SplineFontDB: 3.2
FontName: ATM010-Regular
FullName: ATM010-Regular
FamilyName: ATM 010
Weight: Book
Copyright: AzhaguThamizh
Version: 1.001
ItalicAngle: -11
UnderlinePosition: -271
UnderlineWidth: 102
Ascent: 1600
Descent: 400
InvalidEm: 0
sfntRevision: 0x00010042
LayerCount: 2
Layer: 0 1 "Back" 1
Layer: 1 1 "Fore" 0
XUID: [1021 192 2086997156 24983]
StyleMap: 0x0040
FSType: 8
OS2Version: 3
OS2_WeightWidthSlopeOnly: 0
OS2_UseTypoMetrics: 0
CreationTime: 1535959234
ModificationTime: 1545710873
PfmFamily: 17
TTFWeight: 400
TTFWidth: 5
LineGap: 0
VLineGap: 0
Panose: 2 11 6 4 2 2 2 2 2 4
OS2TypoAscent: 2000
OS2TypoAOffset: 0
OS2TypoDescent: -1320
OS2TypoDOffset: 0
OS2TypoLinegap: 0
OS2WinAscent: 2000
OS2WinAOffset: 0
OS2WinDescent: 744
OS2WinDOffset: 0
HheadAscent: 2000
HheadAOffset: 0
HheadDescent: -1320
HheadDOffset: 0
OS2SubXSize: 1400
OS2SubYSize: 1300
OS2SubXOff: 0
OS2SubYOff: 0
OS2SupXSize: 1400
OS2SupYSize: 1300
OS2SupXOff: 0
OS2SupYOff: 0
OS2StrikeYSize: 100
OS2StrikeYPos: 518
OS2CapHeight: 1586
OS2XHeight: -200
OS2Vendor: '    '
OS2CodePages: 00000001.00000000
OS2UnicodeRanges: 00100003.00000000.00000000.00000000
Lookup: 4 0 0 "'akhn' Akhand in Tamil2 lookup 0" { "'akhn' Akhand in Tamil2 lookup 0 subtable"  } ['akhn' ('tml2' <'dflt' > ) ]
Lookup: 4 0 0 "'akhn' Akhand in Tamil lookup 1" { "'akhn' Akhand in Tamil lookup 1 subtable"  } ['akhn' ('taml' <'dflt' > ) ]
Lookup: 4 0 0 "'half' Half Forms in Tamil lookup 2" { "'half' Half Forms in Tamil lookup 2 subtable"  } ['half' ('taml' <'dflt' > ) ]
Lookup: 4 0 0 "'haln' Halant Forms in Tamil2 lookup 3" { "'haln' Halant Forms in Tamil2 lookup 3 subtable"  } ['haln' ('tml2' <'dflt' > ) ]
Lookup: 4 0 0 "'haln' Halant Forms in Tamil lookup 4" { "'haln' Halant Forms in Tamil lookup 4 subtable"  } ['haln' ('taml' <'dflt' > ) ]
Lookup: 4 0 0 "'abvs' Above Base Substitutions lookup 5" { "'abvs' Above Base Substitutions lookup 5 subtable"  } ['abvs' ('taml' <'dflt' > 'tml2' <'dflt' > ) ]

StartChar: .notdef
Encoding: 65536 -1 0
Width: 1000
Flags: W
LayerCount: 2
Fore
SplineSet
126 0 m 1,0,-1
 126 1600 l 1,1,-1
 876 1600 l 1,2,-1
 876 0 l 1,3,-1
 126 0 l 1,0,-1
250 126 m 1,4,-1
 750 126 l 1,5,-1
 750 1476 l 1,6,-1
 250 1476 l 1,7,-1
 250 126 l 1,4,-1
EndSplineSet
EndChar

StartChar: exclam
Encoding: 33 33 4
Width: 712
GlyphClass: 2
Flags: W
LayerCount: 2
Fore
SplineSet
670 1062 m 0,0,1
 670 924 670 924 622 624 c 2,2,-1
 614 574 l 1,3,-1
 588 458 l 2,4,5
 578 412 578 412 564 382 c 1,6,-1
 488 376 l 1,7,8
 390 860 390 860 390 1038 c 0,9,10
 390 1250 390 1250 468 1342 c 0,11,12
 494 1372 494 1372 532 1372 c 0,13,14
 564 1372 564 1372 598 1342 c 0,15,16
 670 1278 670 1278 670 1062 c 0,0,1
676 126 m 0,17,18
 676 72 676 72 631 28 c 128,-1,19
 586 -16 586 -16 532 -16 c 0,20,21
 486 -16 486 -16 434 26 c 1,22,23
 390 70 390 70 390 128 c 0,24,25
 390 182 390 182 435 226 c 128,-1,26
 480 270 480 270 534 270 c 0,27,28
 582 270 582 270 634 228 c 1,29,30
 676 186 676 186 676 126 c 0,17,18
EndSplineSet
EndChar

StartChar: quotedbl
Encoding: 34 34 5
Width: 710
GlyphClass: 2
Flags: W
LayerCount: 2
Fore
SplineSet
616 1198 m 1,0,-1
 570 924 l 1,1,-1
 464 924 l 1,2,-1
 416 1198 l 1,3,-1
 416 1432 l 1,4,-1
 616 1432 l 1,5,-1
 616 1198 l 1,0,-1
292 1198 m 1,6,-1
 248 924 l 1,7,-1
 140 924 l 1,8,-1
 92 1198 l 1,9,-1
 92 1432 l 1,10,-1
 292 1432 l 1,11,-1
 292 1198 l 1,6,-1
EndSplineSet
EndChar

StartChar: numbersign
Encoding: 35 35 6
Width: 1068
GlyphClass: 2
Flags: W
LayerCount: 2
Fore
SplineSet
998 278 m 1,0,-1
 746 278 l 1,1,-1
 680 -36 l 1,2,-1
 584 -36 l 1,3,-1
 650 278 l 1,4,-1
 320 278 l 1,5,-1
 254 -36 l 1,6,-1
 158 -36 l 1,7,-1
 224 278 l 1,8,-1
 68 278 l 1,9,-1
 68 374 l 1,10,-1
 244 374 l 1,11,-1
 304 664 l 1,12,-1
 68 664 l 1,13,-1
 68 760 l 1,14,-1
 324 760 l 1,15,-1
 384 1024 l 1,16,-1
 480 1024 l 1,17,-1
 420 760 l 1,18,-1
 748 760 l 1,19,-1
 806 1024 l 1,20,-1
 902 1024 l 1,21,-1
 844 760 l 1,22,-1
 998 760 l 1,23,-1
 998 664 l 1,24,-1
 826 664 l 1,25,-1
 764 374 l 1,26,-1
 998 374 l 1,27,-1
 998 278 l 1,0,-1
730 664 m 1,28,-1
 400 664 l 1,29,-1
 340 374 l 1,30,-1
 668 374 l 1,31,-1
 730 664 l 1,28,-1
EndSplineSet
EndChar

StartChar: dollar
Encoding: 36 36 7
Width: 1112
GlyphClass: 2
Flags: W
LayerCount: 2
Fore
SplineSet
1018 408 m 0,0,1
 1018 226 1018 226 902 102 c 0,2,3
 780 -28 780 -28 602 -28 c 1,4,-1
 602 -206 l 1,5,-1
 498 -206 l 1,6,-1
 498 -30 l 1,7,8
 370 -18 370 -18 294 22 c 0,9,10
 210 66 210 66 140 166 c 0,11,12
 86 244 86 244 72 398 c 1,13,-1
 248 430 l 1,14,15
 266 304 266 304 320 222 c 1,16,17
 392 132 392 132 498 118 c 1,18,-1
 498 678 l 1,19,-1
 444 686 l 2,20,21
 424 688 424 688 390 706 c 1,22,23
 238 762 238 762 146 892 c 1,24,-1
 114 980 l 1,25,26
 102 1028 102 1028 102 1080 c 0,27,28
 102 1260 102 1260 234 1384 c 0,29,30
 310 1454 310 1454 498 1480 c 1,31,-1
 498 1564 l 1,32,-1
 602 1564 l 1,33,-1
 602 1480 l 1,34,35
 646 1480 646 1480 662 1476 c 0,36,37
 748 1470 748 1470 844 1390 c 0,38,39
 948 1302 948 1302 984 1126 c 1,40,-1
 802 1100 l 1,41,42
 790 1196 790 1196 736 1256 c 0,43,44
 694 1304 694 1304 602 1332 c 1,45,-1
 602 824 l 1,46,47
 750 790 750 790 778 772 c 1,48,49
 916 732 916 732 986 566 c 0,50,51
 1018 490 1018 490 1018 408 c 0,0,1
498 846 m 1,52,-1
 498 1334 l 1,53,54
 400 1322 400 1322 339 1253 c 128,-1,55
 278 1184 278 1184 278 1094 c 0,56,57
 278 1014 278 1014 326 942 c 1,58,59
 374 884 374 884 498 846 c 1,52,-1
838 396 m 0,60,61
 838 484 838 484 794 540 c 128,-1,62
 750 596 750 596 602 654 c 1,63,-1
 602 118 l 1,64,65
 706 130 706 130 772 210 c 128,-1,66
 838 290 838 290 838 396 c 0,60,61
EndSplineSet
EndChar

StartChar: percent
Encoding: 37 37 8
Width: 1778
GlyphClass: 2
Flags: W
LayerCount: 2
Fore
SplineSet
1656 326 m 0,0,1
 1656 170 1656 170 1580 66 c 0,2,3
 1494 -52 1494 -52 1344 -52 c 0,4,5
 1214 -52 1214 -52 1128 44 c 0,6,7
 1104 70 1104 70 1064 164 c 1,8,-1
 1048 240 l 1,9,-1
 1042 336 l 2,10,11
 1034 478 1034 478 1120 598 c 0,12,13
 1196 704 1196 704 1344 704 c 0,14,15
 1498 704 1498 704 1582 588 c 0,16,17
 1656 486 1656 486 1656 326 c 0,0,1
1348 1456 m 1,18,-1
 568 -52 l 1,19,-1
 422 -52 l 1,20,-1
 1206 1456 l 1,21,-1
 1348 1456 l 1,18,-1
728 1078 m 0,22,23
 728 924 728 924 652 818 c 0,24,25
 566 700 566 700 418 700 c 0,26,27
 288 700 288 700 202 796 c 0,28,29
 178 822 178 822 138 916 c 1,30,-1
 122 992 l 1,31,-1
 116 1088 l 2,32,33
 108 1228 108 1228 194 1348 c 0,34,35
 270 1456 270 1456 416 1456 c 0,36,37
 570 1456 570 1456 654 1340 c 0,38,39
 728 1238 728 1238 728 1078 c 0,22,23
1502 332 m 0,40,41
 1502 468 1502 468 1456 526 c 128,-1,42
 1410 584 1410 584 1348 584 c 0,43,44
 1196 584 1196 584 1196 318 c 0,45,46
 1196 194 1196 194 1238 124 c 1,47,48
 1282 68 1282 68 1348 68 c 0,49,50
 1502 68 1502 68 1502 332 c 0,40,41
576 1084 m 0,51,52
 576 1334 576 1334 422 1334 c 0,53,54
 270 1334 270 1334 270 1070 c 0,55,56
 270 942 270 942 312 876 c 1,57,58
 356 820 356 820 422 820 c 0,59,60
 576 820 576 820 576 1084 c 0,51,52
EndSplineSet
EndChar

StartChar: ampersand
Encoding: 38 38 9
Width: 1334
GlyphClass: 2
Flags: W
LayerCount: 2
Fore
SplineSet
1288 106 m 1,0,-1
 1170 -34 l 1,1,2
 1068 32 1068 32 950 168 c 1,3,4
 782 -24 782 -24 540 -24 c 0,5,6
 318 -24 318 -24 190 124 c 0,7,8
 86 246 86 246 86 394 c 0,9,10
 86 664 86 664 426 822 c 1,11,12
 344 920 344 920 298 998 c 1,13,14
 266 1082 266 1082 266 1136 c 0,15,16
 266 1276 266 1276 376 1368 c 0,17,18
 478 1456 478 1456 622 1456 c 0,19,20
 752 1456 752 1456 852 1370 c 0,21,22
 954 1278 954 1278 954 1150 c 0,23,24
 954 946 954 946 684 802 c 1,25,-1
 940 474 l 1,26,27
 972 542 972 542 1008 674 c 1,28,-1
 1192 634 l 1,29,30
 1144 448 1144 448 1064 326 c 1,31,32
 1154 206 1154 206 1288 106 c 1,0,-1
774 1146 m 0,33,34
 774 1218 774 1218 729 1265 c 128,-1,35
 684 1312 684 1312 612 1312 c 0,36,37
 544 1312 544 1312 496 1266 c 0,38,39
 442 1216 442 1216 446 1154 c 2,40,-1
 448 1122 l 1,41,-1
 460 1090 l 1,42,-1
 482 1048 l 1,43,-1
 514 1006 l 1,44,-1
 592 916 l 1,45,46
 774 1018 774 1018 774 1146 c 0,33,34
840 308 m 1,47,-1
 518 708 l 1,48,49
 372 622 372 622 326 548 c 1,50,-1
 290 474 l 1,51,52
 280 440 280 440 276 406 c 1,53,54
 276 296 276 296 354 213 c 128,-1,55
 432 130 432 130 542 130 c 0,56,57
 624 130 624 130 709 183 c 128,-1,58
 794 236 794 236 840 308 c 1,47,-1
EndSplineSet
EndChar

StartChar: quotesingle
Encoding: 39 39 10
Width: 382
GlyphClass: 2
Flags: W
LayerCount: 2
Fore
SplineSet
288 1192 m 1,0,-1
 242 924 l 1,1,-1
 132 924 l 1,2,-1
 88 1192 l 1,3,-1
 88 1432 l 1,4,-1
 288 1432 l 1,5,-1
 288 1192 l 1,0,-1
EndSplineSet
EndChar

StartChar: parenleft
Encoding: 40 40 11
Width: 444
GlyphClass: 2
Flags: W
LayerCount: 2
Fore
SplineSet
500 -410 m 1,0,-1
 340 -410 l 1,1,2
 242 -272 242 -272 202 -196 c 2,3,-1
 152 -102 l 1,4,-1
 108 -6 l 2,5,6
 24 178 24 178 24 454 c 0,7,8
 24 702 24 702 108 922 c 0,9,10
 180 1110 180 1110 340 1340 c 1,11,-1
 500 1340 l 1,12,13
 366 1124 366 1124 306 916 c 0,14,15
 272 796 272 796 264 702 c 2,16,-1
 254 584 l 1,17,-1
 250 454 l 2,18,19
 236 14 236 14 500 -410 c 1,0,-1
EndSplineSet
EndChar

StartChar: parenright
Encoding: 41 41 12
Width: 460
GlyphClass: 2
Flags: W
LayerCount: 2
Fore
SplineSet
340 454 m 2,0,1
 350 242 350 242 256 -6 c 0,2,3
 236 -58 236 -58 216 -96 c 2,4,-1
 164 -194 l 2,5,6
 114 -290 114 -290 24 -410 c 1,7,-1
 -136 -410 l 1,8,9
 112 14 112 14 112 466 c 0,10,11
 112 934 112 934 -136 1340 c 1,12,-1
 24 1340 l 1,13,14
 184 1106 184 1106 254 922 c 0,15,16
 304 792 304 792 318 690 c 2,17,-1
 334 578 l 1,18,-1
 340 454 l 2,0,1
EndSplineSet
EndChar

StartChar: asterisk
Encoding: 42 42 13
Width: 738
GlyphClass: 2
Flags: W
LayerCount: 2
Fore
SplineSet
620 728 m 2,0,-1
 618 704 l 2,1,2
 612 632 612 632 434 632 c 1,3,4
 550 556 550 556 550 496 c 0,5,6
 550 456 550 456 513 431 c 128,-1,7
 476 406 476 406 434 406 c 0,8,9
 364 406 364 406 320 566 c 1,10,11
 262 406 262 406 184 406 c 1,12,13
 90 422 90 422 90 494 c 0,14,15
 90 556 90 556 208 632 c 1,16,17
 24 674 24 674 24 726 c 0,18,19
 24 782 24 782 70 816 c 0,20,21
 86 828 86 828 110 828 c 0,22,23
 166 828 166 828 250 770 c 1,24,25
 220 846 220 846 220 904 c 0,26,27
 220 998 220 998 318 998 c 0,28,29
 356 998 356 998 386 977 c 128,-1,30
 416 956 416 956 416 902 c 256,31,32
 416 848 416 848 386 770 c 1,33,34
 472 828 472 828 528 828 c 0,35,36
 554 828 554 828 570 816 c 0,37,38
 624 776 624 776 620 728 c 2,0,-1
EndSplineSet
EndChar

StartChar: plus
Encoding: 43 43 14
Width: 1058
GlyphClass: 2
Flags: W
LayerCount: 2
Fore
SplineSet
1028 454 m 1,0,-1
 618 454 l 1,1,-1
 618 44 l 1,2,-1
 440 44 l 1,3,-1
 440 454 l 1,4,-1
 28 454 l 1,5,-1
 28 632 l 1,6,-1
 438 632 l 1,7,-1
 438 1044 l 1,8,-1
 616 1044 l 1,9,-1
 616 632 l 1,10,-1
 1028 632 l 1,11,-1
 1028 454 l 1,0,-1
EndSplineSet
EndChar

StartChar: comma
Encoding: 44 44 15
Width: 460
GlyphClass: 2
Flags: W
LayerCount: 2
Fore
SplineSet
330 20 m 2,0,1
 330 -114 330 -114 272 -202 c 0,2,3
 206 -300 206 -300 80 -320 c 1,4,-1
 80 -262 l 1,5,6
 240 -220 240 -220 240 0 c 1,7,-1
 80 0 l 1,8,-1
 80 226 l 1,9,-1
 330 226 l 1,10,-1
 330 20 l 2,0,1
EndSplineSet
EndChar

StartChar: hyphen
Encoding: 45 45 16
Width: 1310
GlyphClass: 2
Flags: W
LayerCount: 2
Fore
SplineSet
1184 598 m 1,0,-1
 1180 410 l 1,1,-1
 136 404 l 1,2,-1
 136 596 l 1,3,-1
 1184 598 l 1,0,-1
EndSplineSet
EndChar

StartChar: period
Encoding: 46 46 17
Width: 530
GlyphClass: 2
Flags: W
LayerCount: 2
Fore
SplineSet
444 110 m 0,0,1
 444 42 444 42 392 -9 c 128,-1,2
 340 -60 340 -60 274 -60 c 0,3,4
 210 -60 210 -60 152 -6 c 1,5,6
 106 46 106 46 106 110 c 0,7,8
 106 178 106 178 157 227 c 128,-1,9
 208 276 208 276 276 276 c 0,10,11
 346 276 346 276 395 228 c 128,-1,12
 444 180 444 180 444 110 c 0,0,1
EndSplineSet
EndChar

StartChar: slash
Encoding: 47 47 18
Width: 498
GlyphClass: 2
Flags: W
LayerCount: 2
Fore
SplineSet
540 1420 m 1,0,-1
 108 -390 l 1,1,-1
 -46 -386 l 1,2,-1
 384 1424 l 1,3,-1
 540 1420 l 1,0,-1
EndSplineSet
EndChar

StartChar: zero
Encoding: 48 48 19
Width: 935
GlyphClass: 2
Flags: W
LayerCount: 2
Fore
SplineSet
825 614 m 0,0,1
 825 -22 825 -22 408 -22 c 0,2,3
 25 -22 25 -22 25 570 c 0,4,5
 25 903 25 903 118 1056.5 c 128,-1,6
 211 1210 211 1210 408 1210 c 0,7,8
 825 1210 825 1210 825 614 c 0,0,1
637 570 m 2,9,10
 644 801 644 801 603 926 c 0,11,12
 548 1087 548 1087 408 1087 c 0,13,14
 289 1087 289 1087 231 919 c 1,15,16
 207 789 207 789 207 554 c 0,17,18
 207 329 207 329 263.5 201.5 c 128,-1,19
 320 74 320 74 414 74 c 0,20,21
 547 74 547 74 597 204 c 0,22,23
 617 253 617 253 624 347 c 2,24,-1
 633 451 l 1,25,-1
 637 570 l 2,9,10
EndSplineSet
EndChar

StartChar: one
Encoding: 49 49 20
Width: 658
GlyphClass: 2
Flags: W
LayerCount: 2
Fore
SplineSet
502 -9 m 1,0,-1
 311 -9 l 1,1,-1
 299 846 l 1,2,-1
 30 852 l 1,3,-1
 30 948 l 1,4,5
 167 948 167 948 243 993 c 1,6,7
 319 1029 319 1029 370 1179 c 1,8,-1
 502 1179 l 1,9,-1
 502 -9 l 1,0,-1
EndSplineSet
EndChar

StartChar: two
Encoding: 50 50 21
Width: 913
GlyphClass: 2
Flags: W
LayerCount: 2
Fore
SplineSet
804 0 m 1,0,-1
 25 0 l 1,1,2
 25 78 25 78 64 159 c 0,3,4
 110 254 110 254 177 312 c 2,5,-1
 462 557 l 2,6,7
 531 614 531 614 577 699 c 0,8,9
 615 769 615 769 615 847 c 0,10,11
 615 938 615 938 568 1000 c 128,-1,12
 521 1062 521 1062 413 1062 c 0,13,14
 319 1062 319 1062 261 1000 c 1,15,16
 213 936 213 936 213 814 c 1,17,-1
 50 814 l 1,18,-1
 50 861 l 2,19,20
 50 874 50 874 48 892 c 256,21,22
 46 910 46 910 48 916 c 2,23,-1
 48 952 l 1,24,-1
 63 986 l 2,25,26
 94 1058 94 1058 152 1108 c 1,27,28
 249 1209 249 1209 409 1209 c 0,29,30
 567 1209 567 1209 682 1108 c 0,31,32
 804 1002 804 1002 804 847 c 0,33,34
 804 691 804 691 694 571 c 0,35,36
 642 513 642 513 462 370 c 1,37,38
 415 342 415 342 386 316 c 0,39,40
 279 226 279 226 213 138 c 1,41,-1
 804 138 l 1,42,-1
 804 0 l 1,0,-1
EndSplineSet
EndChar

StartChar: three
Encoding: 51 51 22
Width: 913
GlyphClass: 2
Flags: W
LayerCount: 2
Fore
SplineSet
803 323 m 1,0,1
 772 -22 772 -22 413 -22 c 0,2,3
 261 -22 261 -22 154.5 74.5 c 128,-1,4
 48 171 48 171 25 323 c 1,5,-1
 191 323 l 1,6,7
 218 121 218 121 413 121 c 0,8,9
 473 121 473 121 561 185 c 1,10,11
 621 259 621 259 621 339 c 0,12,13
 621 433 621 433 557 509 c 1,14,15
 536 526 536 526 467 547 c 0,16,17
 411 565 411 565 348 565 c 1,18,-1
 348 660 l 1,19,20
 453 660 453 660 529 710 c 0,21,22
 599 755 599 755 599 867 c 0,23,24
 599 929 599 929 537 1002 c 1,25,26
 463 1061 463 1061 395 1061 c 0,27,28
 251 1061 251 1061 213 855 c 1,29,-1
 44 855 l 1,30,-1
 46 927 l 2,31,32
 46 947 46 947 60 977 c 0,33,34
 64 995 64 995 76 1015 c 0,35,36
 98 1051 98 1051 132 1087 c 1,37,38
 227 1210 227 1210 411 1210 c 0,39,40
 556 1210 556 1210 662 1125 c 0,41,42
 784 1027 784 1027 784 887 c 0,43,44
 784 758 784 758 622 656 c 1,45,46
 803 550 803 550 803 323 c 1,0,1
EndSplineSet
EndChar

StartChar: four
Encoding: 52 52 23
Width: 955
GlyphClass: 2
Flags: W
LayerCount: 2
Fore
SplineSet
884 269 m 1,0,-1
 762 264 l 1,1,-1
 756 0 l 1,2,-1
 576 0 l 1,3,-1
 565 264 l 1,4,-1
 29 269 l 1,5,-1
 26 487 l 1,6,-1
 502 1166 l 1,7,-1
 756 1166 l 1,8,-1
 762 424 l 1,9,-1
 884 417 l 1,10,-1
 884 269 l 1,0,-1
579 413 m 1,11,-1
 579 1079 l 1,12,-1
 112 413 l 1,13,-1
 579 413 l 1,11,-1
EndSplineSet
EndChar

StartChar: five
Encoding: 53 53 24
Width: 913
GlyphClass: 2
Flags: W
LayerCount: 2
Fore
SplineSet
825 410 m 0,0,1
 825 309 825 309 797 233 c 0,2,3
 773 165 773 165 709 95 c 0,4,5
 603 -22 603 -22 408 -22 c 0,6,7
 260 -22 260 -22 159 47 c 0,8,9
 53 123 53 123 25 263 c 1,10,-1
 191 263 l 1,11,12
 227 125 227 125 384 125 c 0,13,14
 484 125 484 125 563.5 190 c 128,-1,15
 643 255 643 255 643 366 c 0,16,17
 643 471 643 471 565 550 c 0,18,19
 492 624 492 624 390 624 c 0,20,21
 301 624 301 624 207 543 c 1,22,-1
 57 564 l 1,23,-1
 148 1166 l 1,24,-1
 761 1166 l 1,25,-1
 761 1027 l 1,26,-1
 256 1021 l 1,27,-1
 213 695 l 1,28,29
 332 774 332 774 476 774 c 0,30,31
 635 774 635 774 727 657 c 1,32,33
 825 562 825 562 825 410 c 0,0,1
EndSplineSet
EndChar

StartChar: six
Encoding: 54 54 25
Width: 913
GlyphClass: 2
Flags: W
LayerCount: 2
Fore
SplineSet
825 388 m 0,0,1
 825 195 825 195 715 85 c 0,2,3
 659 29 659 29 596 6 c 0,4,5
 524 -22 524 -22 434 -22 c 0,6,7
 121 -22 121 -22 51 298 c 0,8,9
 25 406 25 406 25 554 c 0,10,11
 25 1210 25 1210 434 1210 c 0,12,13
 693 1210 693 1210 777 943 c 1,14,-1
 615 943 l 1,15,16
 567 1065 567 1065 434 1065 c 0,17,18
 236 1065 236 1065 184 622 c 1,19,20
 320 769 320 769 476 769 c 0,21,22
 630 769 630 769 727.5 658 c 128,-1,23
 825 547 825 547 825 388 c 0,0,1
633 367 m 2,24,25
 639 437 639 437 603 498.5 c 128,-1,26
 567 560 567 560 504 590 c 0,27,28
 464 608 464 608 408 608 c 0,29,30
 325 608 325 608 256 536 c 1,31,32
 204 464 204 464 204 365 c 0,33,34
 204 261 204 261 254 197 c 0,35,36
 310 125 310 125 408 125 c 0,37,38
 502 125 502 125 578 195 c 1,39,40
 606 231 606 231 621 271 c 1,41,-1
 630 316 l 1,42,-1
 633 367 l 2,24,25
EndSplineSet
EndChar

StartChar: seven
Encoding: 55 55 26
Width: 983
GlyphClass: 2
Flags: W
LayerCount: 2
Fore
SplineSet
861 1027 m 1,0,1
 415 535 415 535 415 0 c 1,2,-1
 223 0 l 1,3,4
 281 498 281 498 707 1027 c 1,5,-1
 61 1027 l 1,6,-1
 61 1166 l 1,7,-1
 861 1166 l 1,8,-1
 861 1027 l 1,0,1
EndSplineSet
EndChar

StartChar: eight
Encoding: 56 56 27
Width: 913
GlyphClass: 2
Flags: W
LayerCount: 2
Fore
SplineSet
825 339 m 0,0,1
 825 197 825 197 706.5 87.5 c 128,-1,2
 588 -22 588 -22 408 -22 c 0,3,4
 229 -22 229 -22 127 74.5 c 128,-1,5
 25 171 25 171 25 323 c 0,6,7
 25 435 25 435 89 516 c 0,8,9
 141 582 141 582 251 646 c 1,10,11
 57 713 57 713 57 891 c 0,12,13
 57 1036 57 1036 177 1130 c 0,14,15
 272 1206 272 1206 418 1206 c 0,16,17
 572 1206 572 1206 671 1124 c 0,18,19
 783 1031 783 1031 783 891 c 0,20,21
 783 754 783 754 581 640 c 1,22,23
 825 518 825 518 825 339 c 0,0,1
615 891 m 0,24,25
 615 955 615 955 550 1019 c 1,26,27
 496 1059 496 1059 415 1059 c 0,28,29
 346 1059 346 1059 287 1021 c 1,30,31
 229 971 229 971 229 891 c 0,32,33
 229 821 229 821 283 749 c 1,34,35
 343 690 343 690 408 690 c 0,36,37
 484 690 484 690 552 749 c 1,38,39
 615 817 615 817 615 891 c 0,24,25
643 339 m 0,40,41
 643 402 643 402 598.5 462 c 128,-1,42
 554 522 554 522 494 548 c 0,43,44
 454 564 454 564 408 564 c 0,45,46
 332 564 332 564 256 500 c 1,47,48
 209 437 209 437 209 348 c 0,49,50
 209 257 209 257 256 191 c 1,51,52
 328 119 328 119 408 119 c 0,53,54
 492 119 492 119 567.5 188.5 c 128,-1,55
 643 258 643 258 643 339 c 0,40,41
EndSplineSet
EndChar

StartChar: nine
Encoding: 57 57 28
Width: 935
GlyphClass: 2
Flags: W
LayerCount: 2
Fore
SplineSet
825 641 m 0,0,1
 825 307 825 307 717 139 c 0,2,3
 614 -22 614 -22 396 -22 c 0,4,5
 164 -22 164 -22 55 242 c 1,6,-1
 240 242 l 1,7,8
 274 125 274 125 396 125 c 0,9,10
 525 125 525 125 592 267 c 0,11,12
 617 321 617 321 630 375 c 2,13,-1
 643 432 l 1,14,-1
 666 552 l 1,15,16
 534 421 534 421 374 421 c 0,17,18
 206 421 206 421 113 529 c 0,19,20
 25 632 25 632 25 801 c 0,21,22
 25 1003 25 1003 131 1107 c 1,23,24
 220 1210 220 1210 414 1210 c 0,25,26
 825 1210 825 1210 825 641 c 0,0,1
633 811 m 0,27,28
 633 909 633 909 577.5 987 c 128,-1,29
 522 1065 522 1065 414 1065 c 0,30,31
 310 1065 310 1065 261.5 990 c 128,-1,32
 213 915 213 915 213 811 c 0,33,34
 213 710 213 710 260 644 c 1,35,36
 307 560 307 560 414 560 c 0,37,38
 520 560 520 560 583 642 c 0,39,40
 633 710 633 710 633 811 c 0,27,28
EndSplineSet
EndChar

StartChar: colon
Encoding: 58 58 29
Width: 460
GlyphClass: 2
Flags: W
LayerCount: 2
Fore
SplineSet
350 726 m 1,0,-1
 100 726 l 1,1,-1
 100 954 l 1,2,-1
 350 954 l 1,3,-1
 350 726 l 1,0,-1
350 0 m 1,4,-1
 100 0 l 1,5,-1
 100 226 l 1,6,-1
 350 226 l 1,7,-1
 350 0 l 1,4,-1
EndSplineSet
EndChar

StartChar: semicolon
Encoding: 59 59 30
Width: 460
GlyphClass: 2
Flags: W
LayerCount: 2
Fore
SplineSet
350 726 m 1,0,-1
 100 726 l 1,1,-1
 100 954 l 1,2,-1
 350 954 l 1,3,-1
 350 726 l 1,0,-1
350 20 m 2,4,5
 350 -282 350 -282 100 -320 c 1,6,-1
 100 -250 l 1,7,8
 260 -208 260 -208 260 0 c 1,9,-1
 100 0 l 1,10,-1
 100 250 l 1,11,-1
 350 250 l 1,12,-1
 350 20 l 2,4,5
EndSplineSet
EndChar

StartChar: less
Encoding: 60 60 31
Width: 1140
GlyphClass: 2
Flags: W
LayerCount: 2
Fore
SplineSet
880 258 m 1,0,-1
 750 128 l 1,1,-1
 208 666 l 1,2,-1
 750 1208 l 1,3,-1
 880 1078 l 1,4,-1
 472 668 l 1,5,-1
 880 258 l 1,0,-1
EndSplineSet
EndChar

StartChar: equal
Encoding: 61 61 32
Width: 1132
GlyphClass: 2
Flags: W
LayerCount: 2
Fore
SplineSet
1088 816 m 1,0,-1
 28 814 l 1,1,-1
 28 946 l 1,2,-1
 1088 946 l 1,3,-1
 1088 816 l 1,0,-1
1088 456 m 1,4,-1
 28 454 l 1,5,-1
 28 586 l 1,6,-1
 1088 586 l 1,7,-1
 1088 456 l 1,4,-1
EndSplineSet
EndChar

StartChar: greater
Encoding: 62 62 33
Width: 1140
GlyphClass: 2
Flags: W
LayerCount: 2
Fore
SplineSet
940 666 m 1,0,-1
 398 128 l 1,1,-1
 268 258 l 1,2,-1
 676 668 l 1,3,-1
 268 1078 l 1,4,-1
 398 1208 l 1,5,-1
 940 666 l 1,0,-1
EndSplineSet
EndChar

StartChar: question
Encoding: 63 63 34
Width: 1010
GlyphClass: 2
Flags: W
LayerCount: 2
Fore
SplineSet
946 976 m 0,0,1
 946 832 946 832 858 746 c 1,2,-1
 696 618 l 2,3,4
 606 546 606 546 606 406 c 1,5,-1
 378 406 l 1,6,7
 378 544 378 544 416 618 c 0,8,9
 442 670 442 670 542 752 c 128,-1,10
 642 834 642 834 674 872 c 1,11,-1
 688 908 l 1,12,-1
 696 976 l 1,13,14
 696 1056 696 1056 634 1118 c 128,-1,15
 572 1180 572 1180 492 1180 c 0,16,17
 266 1180 266 1180 266 954 c 1,18,-1
 58 954 l 1,19,-1
 58 998 l 2,20,21
 58 1026 58 1026 62 1042 c 2,22,-1
 82 1124 l 2,23,24
 98 1192 98 1192 168 1264 c 0,25,26
 228 1326 228 1326 296 1348 c 1,27,-1
 366 1360 l 1,28,-1
 468 1364 l 2,29,30
 678 1372 678 1372 818 1262 c 0,31,32
 946 1158 946 1158 946 976 c 0,0,1
652 112 m 256,33,34
 652 46 652 46 605 0 c 128,-1,35
 558 -46 558 -46 492 -46 c 0,36,37
 428 -46 428 -46 380 2 c 128,-1,38
 332 50 332 50 332 114 c 0,39,40
 332 180 332 180 379 227 c 128,-1,41
 426 274 426 274 492 274 c 0,42,43
 546 274 546 274 604 226 c 1,44,45
 652 178 652 178 652 112 c 256,33,34
EndSplineSet
EndChar

StartChar: at
Encoding: 64 64 35
Width: 2030
GlyphClass: 2
Flags: W
LayerCount: 2
Fore
SplineSet
1958 18 m 1,0,1
 1868 -208 1868 -208 1500 -358 c 1,2,-1
 1316 -404 l 1,3,-1
 1216 -416 l 1,4,-1
 1096 -420 l 2,5,6
 908 -426 908 -426 726 -372 c 0,7,8
 528 -314 528 -314 394 -202 c 0,9,10
 116 32 116 32 108 458 c 0,11,12
 104 702 104 702 220 940 c 0,13,14
 472 1456 472 1456 1076 1458 c 0,15,16
 1218 1458 1218 1458 1304 1434 c 2,17,-1
 1408 1404 l 2,18,19
 1424 1400 1424 1400 1456 1384 c 0,20,21
 1676 1292 1676 1292 1802 1084 c 0,22,23
 1908 906 1908 906 1910 696 c 0,24,25
 1912 424 1912 424 1710 194 c 0,26,27
 1536 -4 1536 -4 1322 -4 c 2,28,-1
 1296 -4 l 1,29,-1
 1258 0 l 2,30,31
 1198 6 1198 6 1152 76 c 0,32,33
 1140 94 1140 94 1134 160 c 1,34,35
 1012 2 1012 2 834 -2 c 0,36,37
 642 -6 642 -6 534 204 c 0,38,39
 480 310 480 310 480 436 c 0,40,41
 480 588 480 588 555 737 c 128,-1,42
 630 886 630 886 753 971 c 128,-1,43
 876 1056 876 1056 988 1058 c 0,44,45
 1166 1060 1166 1060 1282 878 c 1,46,-1
 1316 1030 l 1,47,-1
 1490 1030 l 1,48,-1
 1320 224 l 1,49,50
 1320 172 1320 172 1388 160 c 1,51,52
 1482 160 1482 160 1600 286 c 0,53,54
 1764 460 1764 460 1766 700 c 0,55,56
 1768 870 1768 870 1674 1012 c 0,57,58
 1588 1144 1588 1144 1432 1230 c 0,59,60
 1382 1258 1382 1258 1260 1294 c 1,61,-1
 1170 1310 l 1,62,-1
 1068 1316 l 2,63,64
 864 1328 864 1328 650 1212 c 0,65,66
 462 1110 462 1110 354 898 c 0,67,68
 254 702 254 702 252 474 c 0,69,70
 250 248 250 248 346 78 c 0,71,72
 450 -104 450 -104 653 -189 c 128,-1,73
 856 -274 856 -274 1094 -276 c 0,74,75
 1558 -280 1558 -280 1782 18 c 1,76,-1
 1958 18 l 1,0,1
1226 634 m 0,77,78
 1226 746 1226 746 1170 824 c 0,79,80
 1108 914 1108 914 1000 914 c 0,81,82
 886 914 886 914 792 800 c 0,83,84
 722 716 722 716 682 578 c 0,85,86
 664 514 664 514 662 424 c 0,87,88
 660 314 660 314 710 236 c 0,89,90
 766 144 766 144 870 142 c 0,91,92
 976 138 976 138 1070 238 c 0,93,94
 1148 320 1148 320 1190 436 c 0,95,96
 1226 536 1226 536 1226 634 c 0,77,78
EndSplineSet
EndChar

StartChar: bracketleft
Encoding: 91 91 36
Width: 556
GlyphClass: 2
Flags: W
LayerCount: 2
Fore
SplineSet
524 -398 m 1,0,-1
 136 -398 l 1,1,-1
 136 1432 l 1,2,-1
 524 1432 l 1,3,-1
 524 1286 l 1,4,-1
 312 1286 l 1,5,-1
 312 -252 l 1,6,-1
 524 -252 l 1,7,-1
 524 -398 l 1,0,-1
EndSplineSet
EndChar

StartChar: backslash
Encoding: 92 92 37
Width: 556
GlyphClass: 2
Flags: W
LayerCount: 2
Fore
SplineSet
556 -24 m 1,0,-1
 416 -24 l 1,1,-1
 0 1456 l 1,2,-1
 142 1456 l 1,3,-1
 556 -24 l 1,0,-1
EndSplineSet
EndChar

StartChar: bracketright
Encoding: 93 93 38
Width: 556
GlyphClass: 2
Flags: W
LayerCount: 2
Fore
SplineSet
426 -398 m 1,0,-1
 38 -398 l 1,1,-1
 38 -252 l 1,2,-1
 250 -252 l 1,3,-1
 250 1286 l 1,4,-1
 38 1286 l 1,5,-1
 38 1432 l 1,6,-1
 426 1432 l 1,7,-1
 426 -398 l 1,0,-1
EndSplineSet
EndChar

StartChar: asciicircum
Encoding: 94 94 39
Width: 938
GlyphClass: 2
Flags: W
LayerCount: 2
Fore
SplineSet
886 674 m 1,0,-1
 708 674 l 1,1,-1
 468 1256 l 1,2,-1
 234 674 l 1,3,-1
 52 674 l 1,4,-1
 398 1456 l 1,5,-1
 540 1456 l 1,6,-1
 886 674 l 1,0,-1
EndSplineSet
EndChar

StartChar: underscore
Encoding: 95 95 40
Width: 1112
GlyphClass: 2
Flags: W
LayerCount: 2
Fore
SplineSet
1134 -398 m 1,0,-1
 -30 -398 l 1,1,-1
 -30 -270 l 1,2,-1
 1134 -270 l 1,3,-1
 1134 -398 l 1,0,-1
EndSplineSet
EndChar

StartChar: grave
Encoding: 96 96 41
Width: 672
GlyphClass: 2
Flags: W
LayerCount: 2
Fore
SplineSet
690 990 m 1,0,-1
 626 960 l 1,1,-1
 450 1276 l 2,2,3
 444 1292 444 1292 444 1308 c 256,4,5
 444 1324 444 1324 448 1338 c 0,6,7
 460 1368 460 1368 492 1388 c 0,8,9
 504 1394 504 1394 528 1398 c 1,10,11
 586 1398 586 1398 610 1336 c 1,12,-1
 690 990 l 1,0,-1
EndSplineSet
EndChar

StartChar: braceleft
Encoding: 123 123 42
Width: 668
GlyphClass: 2
Flags: W
LayerCount: 2
Fore
SplineSet
622 -420 m 1,0,-1
 566 -420 l 2,1,2
 460 -420 460 -420 426 -404 c 1,3,4
 380 -392 380 -392 328 -334 c 0,5,6
 310 -314 310 -314 270 -206 c 1,7,8
 258 -128 258 -128 258 48 c 0,9,10
 258 246 258 246 242 292 c 1,11,12
 218 426 218 426 56 438 c 1,13,-1
 56 598 l 1,14,15
 204 598 204 598 242 744 c 1,16,-1
 252 854 l 1,17,-1
 258 974 l 2,18,19
 258 1034 258 1034 264 1200 c 0,20,21
 268 1316 268 1316 348 1396 c 0,22,23
 372 1420 372 1420 446 1446 c 1,24,-1
 516 1454 l 1,25,-1
 566 1456 l 1,26,-1
 622 1456 l 1,27,-1
 622 1302 l 1,28,-1
 590 1302 l 2,29,30
 494 1302 494 1302 454 1264 c 1,31,32
 422 1226 422 1226 422 1102 c 2,33,-1
 420 824 l 2,34,35
 420 792 420 792 412 780 c 1,36,37
 394 682 394 682 348 624 c 0,38,39
 310 574 310 574 218 518 c 1,40,41
 350 470 350 470 392 338 c 0,42,43
 418 256 418 256 422 78 c 2,44,-1
 426 -148 l 2,45,46
 428 -208 428 -208 466 -242 c 1,47,-1
 506 -258 l 1,48,49
 556 -268 556 -268 590 -268 c 2,50,-1
 622 -268 l 1,51,-1
 622 -420 l 1,0,-1
EndSplineSet
EndChar

StartChar: bar
Encoding: 124 124 43
Width: 520
GlyphClass: 2
Flags: W
LayerCount: 2
Fore
SplineSet
336 -420 m 1,0,-1
 184 -420 l 1,1,-1
 184 1456 l 1,2,-1
 336 1456 l 1,3,-1
 336 -420 l 1,0,-1
EndSplineSet
EndChar

StartChar: braceright
Encoding: 125 125 44
Width: 668
GlyphClass: 2
Flags: W
LayerCount: 2
Fore
SplineSet
612 438 m 1,0,1
 462 438 462 438 424 290 c 1,2,-1
 414 200 l 1,3,-1
 410 -34 l 2,4,5
 410 -86 410 -86 404 -154 c 0,6,7
 400 -234 400 -234 373 -282 c 128,-1,8
 346 -330 346 -330 312 -364 c 1,9,-1
 276 -386 l 1,10,-1
 222 -410 l 1,11,-1
 176 -418 l 1,12,-1
 100 -420 l 1,13,-1
 46 -420 l 1,14,-1
 46 -268 l 1,15,-1
 76 -268 l 2,16,17
 182 -268 182 -268 216 -218 c 0,18,19
 242 -180 242 -180 244 -66 c 2,20,-1
 246 124 l 1,21,-1
 252 244 l 2,22,23
 256 338 256 338 316 416 c 0,24,25
 366 484 366 484 448 518 c 1,26,27
 320 574 320 574 274 698 c 0,28,29
 244 780 244 780 244 958 c 2,30,-1
 244 1078 l 1,31,-1
 238 1200 l 2,32,33
 232 1302 232 1302 76 1302 c 2,34,-1
 46 1302 l 1,35,-1
 46 1456 l 1,36,-1
 100 1456 l 2,37,38
 204 1456 204 1456 250 1436 c 1,39,40
 346 1406 346 1406 396 1240 c 1,41,-1
 406 1138 l 1,42,-1
 410 988 l 2,43,44
 412 896 412 896 424 738 c 1,45,46
 438 652 438 652 544 608 c 1,47,-1
 576 600 l 1,48,-1
 612 598 l 1,49,-1
 612 438 l 1,0,1
EndSplineSet
EndChar

StartChar: asciitilde
Encoding: 126 126 45
Width: 1168
GlyphClass: 2
Flags: W
LayerCount: 2
Fore
SplineSet
1084 658 m 1,0,1
 1024 604 1024 604 960 572 c 1,2,3
 862 544 862 544 814 546 c 2,4,-1
 758 548 l 1,5,-1
 726 548 l 1,6,-1
 704 556 l 2,7,8
 666 566 666 566 524 628 c 0,9,10
 416 676 416 676 340 676 c 0,11,12
 276 676 276 676 222 650 c 1,13,-1
 162 612 l 1,14,-1
 136 592 l 1,15,-1
 84 544 l 1,16,-1
 84 744 l 1,17,18
 186 856 186 856 356 862 c 0,19,20
 380 862 380 862 480 844 c 1,21,22
 506 832 506 832 664 776 c 2,23,-1
 764 740 l 1,24,-1
 806 730 l 1,25,-1
 832 730 l 2,26,27
 948 730 948 730 1084 864 c 1,28,-1
 1084 658 l 1,0,1
EndSplineSet
EndChar

StartChar: cent
Encoding: 162 162 46
Width: 721
GlyphClass: 2
Flags: W
LayerCount: 2
Fore
SplineSet
598 156 m 1,0,1
 537 71 537 71 467 31 c 128,-1,2
 397 -9 397 -9 304 -17 c 1,3,-1
 228 -265 l 1,4,-1
 187 -265 l 1,5,-1
 262 -17 l 1,6,7
 177 -8 177 -8 128.5 47 c 128,-1,8
 80 102 80 102 80 188 c 0,9,10
 80 345 80 345 191.5 478.5 c 128,-1,11
 303 612 303 612 457 638 c 1,12,-1
 541 917 l 1,13,-1
 580 917 l 1,14,-1
 499 638 l 1,15,16
 580 638 580 638 616.5 607 c 128,-1,17
 653 576 653 576 653 523 c 0,18,19
 653 482 653 482 631.5 455.5 c 128,-1,20
 610 429 610 429 580 429 c 0,21,22
 557 429 557 429 544 442 c 128,-1,23
 531 455 531 455 531 476 c 0,24,25
 531 491 531 491 536 502 c 128,-1,26
 541 513 541 513 560.5 534.5 c 128,-1,27
 580 556 580 556 580 570 c 0,28,29
 580 578 580 578 575 585 c 0,30,31
 565 596 565 596 549.5 601 c 128,-1,32
 534 606 534 606 489 606 c 1,33,-1
 322 49 l 1,34,-1
 352 47 l 1,35,36
 470 47 470 47 580 173 c 1,37,-1
 598 156 l 1,0,1
284 57 m 1,38,-1
 445 598 l 1,39,40
 383 570 383 570 342 533 c 0,41,42
 274 467 274 467 237 380.5 c 128,-1,43
 200 294 200 294 200 205 c 0,44,45
 200 146 200 146 224 108 c 0,46,47
 243 81 243 81 284 57 c 1,38,-1
EndSplineSet
EndChar

StartChar: multiply
Encoding: 215 215 47
Width: 1242
GlyphClass: 2
Flags: W
LayerCount: 2
Fore
SplineSet
1012 400 m 1,0,-1
 926 314 l 1,1,-1
 630 608 l 1,2,-1
 334 314 l 1,3,-1
 248 400 l 1,4,-1
 542 696 l 1,5,-1
 248 990 l 1,6,-1
 336 1078 l 1,7,-1
 630 784 l 1,8,-1
 924 1078 l 1,9,-1
 1012 990 l 1,10,-1
 718 696 l 1,11,-1
 1012 400 l 1,0,-1
EndSplineSet
EndChar

StartChar: divide
Encoding: 247 247 48
Width: 1222
GlyphClass: 2
Flags: W
LayerCount: 2
Fore
SplineSet
740 986 m 0,0,1
 740 942 740 942 711 909 c 128,-1,2
 682 876 682 876 640 876 c 0,3,4
 592 876 592 876 556 903 c 128,-1,5
 520 930 520 930 520 976 c 256,6,7
 520 1022 520 1022 552 1054 c 128,-1,8
 584 1086 584 1086 630 1086 c 0,9,10
 674 1086 674 1086 707 1057 c 128,-1,11
 740 1028 740 1028 740 986 c 0,0,1
1052 630 m 1,12,-1
 214 630 l 1,13,-1
 214 754 l 1,14,-1
 1052 754 l 1,15,-1
 1052 630 l 1,12,-1
740 408 m 0,16,17
 740 364 740 364 711 331 c 128,-1,18
 682 298 682 298 640 298 c 0,19,20
 592 298 592 298 556 325 c 128,-1,21
 520 352 520 352 520 398 c 256,22,23
 520 444 520 444 552 476 c 128,-1,24
 584 508 584 508 630 508 c 0,25,26
 674 508 674 508 707 479 c 128,-1,27
 740 450 740 450 740 408 c 0,16,17
EndSplineSet
EndChar

StartChar: tm_visarga
Encoding: 2947 2947 49
Width: 1730
GlyphClass: 2
Flags: W
LayerCount: 2
Fore
SplineSet
1168 976 m 2,0,1
 1168 882 1168 882 1077 793 c 128,-1,2
 986 704 986 704 876 704 c 2,3,-1
 828 704 l 2,4,5
 714 704 714 704 626 782 c 0,6,7
 532 864 532 864 532 976 c 2,8,-1
 532 1020 l 2,9,10
 532 1122 532 1122 628 1204 c 0,11,12
 706 1270 706 1270 828 1270 c 2,13,-1
 876 1270 l 2,14,15
 988 1270 988 1270 1074 1202 c 0,16,17
 1168 1130 1168 1130 1168 1020 c 2,18,-1
 1168 976 l 2,0,1
1602 270 m 2,19,20
 1602 162 1602 162 1508 81 c 128,-1,21
 1414 0 1414 0 1304 0 c 2,22,-1
 1258 0 l 2,23,24
 1146 0 1146 0 1058 78 c 0,25,26
 964 160 964 160 964 270 c 2,27,-1
 964 316 l 2,28,29
 964 422 964 422 1060 498 c 0,30,31
 1148 566 1148 566 1258 566 c 2,32,-1
 1304 566 l 1,33,-1
 1362 564 l 2,34,35
 1388 564 1388 564 1412 550 c 1,36,37
 1456 538 1456 538 1510 496 c 0,38,39
 1602 426 1602 426 1602 316 c 2,40,-1
 1602 270 l 2,19,20
668 270 m 2,41,42
 668 168 668 168 573 84 c 128,-1,43
 478 0 478 0 376 0 c 2,44,-1
 328 0 l 2,45,46
 216 0 216 0 124 79 c 128,-1,47
 32 158 32 158 32 270 c 2,48,-1
 32 316 l 2,49,50
 32 420 32 420 128 498 c 0,51,52
 212 566 212 566 328 566 c 2,53,-1
 376 566 l 2,54,55
 488 566 488 566 574 498 c 0,56,57
 668 426 668 426 668 316 c 2,58,-1
 668 270 l 2,41,42
1000 990 m 256,59,60
 1000 1060 1000 1060 960 1108 c 128,-1,61
 920 1156 920 1156 852 1156 c 0,62,63
 780 1156 780 1156 738 1108 c 128,-1,64
 696 1060 696 1060 696 986 c 0,65,66
 696 914 696 914 737 865 c 128,-1,67
 778 816 778 816 852 816 c 0,68,69
 920 816 920 816 960 868 c 128,-1,70
 1000 920 1000 920 1000 990 c 256,59,60
1434 284 m 0,71,72
 1434 358 1434 358 1394 406 c 128,-1,73
 1354 454 1354 454 1282 454 c 0,74,75
 1220 454 1220 454 1170 404 c 1,76,77
 1136 360 1136 360 1130 288 c 1,78,79
 1130 216 1130 216 1170 168 c 0,80,81
 1212 114 1212 114 1282 114 c 256,82,83
 1352 114 1352 114 1393 164 c 128,-1,84
 1434 214 1434 214 1434 284 c 0,71,72
500 286 m 0,85,86
 500 342 500 342 464 402 c 1,87,88
 422 454 422 454 352 454 c 0,89,90
 280 454 280 454 238 406 c 128,-1,91
 196 358 196 358 196 284 c 0,92,93
 196 212 196 212 237 163 c 128,-1,94
 278 114 278 114 352 114 c 0,95,96
 420 114 420 114 462 168 c 0,97,98
 500 216 500 216 500 286 c 0,85,86
EndSplineSet
EndChar

StartChar: tm_a
Encoding: 2949 2949 50
Width: 1890
GlyphClass: 2
Flags: W
LayerCount: 2
Fore
SplineSet
1762 -524 m 1,0,-1
 1602 -524 l 1,1,-1
 1602 20 l 1,2,-1
 1376 20 l 1,3,4
 1304 -148 1304 -148 1114 -258 c 128,-1,5
 924 -368 924 -368 714 -368 c 2,6,-1
 602 -368 l 2,7,8
 410 -368 410 -368 250 -290 c 0,9,10
 56 -194 56 -194 36 -24 c 1,11,-1
 36 20 l 2,12,13
 36 132 36 132 214 132 c 2,14,-1
 1246 132 l 1,15,-1
 1258 196 l 1,16,-1
 1262 250 l 1,17,-1
 1262 316 l 2,18,19
 1262 530 1262 530 1158 696 c 0,20,21
 1068 840 1068 840 988 840 c 1,22,23
 1020 808 1020 808 1042 752 c 1,24,-1
 1058 680 l 1,25,-1
 1058 542 l 2,26,27
 1058 452 1058 452 978 390 c 1,28,29
 894 340 894 340 804 340 c 0,30,31
 700 340 700 340 634 388 c 0,32,33
 558 442 558 442 558 542 c 2,34,-1
 558 704 l 2,35,36
 558 810 558 810 639 882 c 128,-1,37
 720 954 720 954 828 954 c 2,38,-1
 942 954 l 2,39,40
 1172 954 1172 954 1306 756 c 0,41,42
 1422 586 1422 586 1422 340 c 2,43,-1
 1422 226 l 2,44,45
 1422 192 1422 192 1410 132 c 1,46,-1
 1602 132 l 1,47,-1
 1602 954 l 1,48,-1
 1762 954 l 1,49,-1
 1762 -524 l 1,0,-1
898 520 m 2,50,-1
 898 750 l 2,51,52
 898 832 898 832 806 832 c 256,53,54
 714 832 714 832 714 750 c 2,55,-1
 714 520 l 2,56,57
 714 456 714 456 802 456 c 0,58,59
 898 456 898 456 898 520 c 2,50,-1
1200 20 m 1,60,-1
 192 20 l 1,61,-1
 192 -24 l 2,62,63
 192 -134 192 -134 352 -198 c 0,64,65
 476 -250 476 -250 602 -250 c 2,66,-1
 714 -250 l 2,67,68
 862 -250 862 -250 996 -178 c 128,-1,69
 1130 -106 1130 -106 1200 20 c 1,60,-1
EndSplineSet
EndChar

StartChar: tm_aa
Encoding: 2950 2950 51
Width: 2264
GlyphClass: 2
Flags: W
LayerCount: 2
Fore
SplineSet
2132 -258 m 2,0,1
 2132 -412 2132 -412 1992 -536 c 128,-1,2
 1852 -660 1852 -660 1696 -660 c 2,3,-1
 1536 -660 l 2,4,5
 1418 -660 1418 -660 1307 -599 c 128,-1,6
 1196 -538 1196 -538 1196 -458 c 2,7,-1
 1196 -410 l 2,8,9
 1196 -346 1196 -346 1244 -296 c 128,-1,10
 1292 -246 1292 -246 1356 -230 c 1,11,-1
 1446 -296 l 1,12,13
 1356 -326 1356 -326 1356 -434 c 0,14,15
 1356 -474 1356 -474 1417 -510 c 128,-1,16
 1478 -546 1478 -546 1536 -546 c 2,17,-1
 1648 -546 l 2,18,19
 1802 -546 1802 -546 1896 -434 c 0,20,21
 1972 -342 1972 -342 1972 -238 c 2,22,-1
 1972 -126 l 2,23,24
 1972 -52 1972 -52 1938 0 c 1,25,26
 1916 42 1916 42 1858 58 c 1,27,28
 1820 58 1820 58 1800 38 c 2,29,-1
 1762 0 l 1,30,-1
 1762 -320 l 1,31,-1
 1606 -320 l 1,32,-1
 1606 20 l 1,33,-1
 1376 20 l 1,34,35
 1302 -154 1302 -154 1104 -264 c 0,36,37
 918 -368 918 -368 718 -368 c 2,38,-1
 606 -368 l 2,39,40
 414 -368 414 -368 254 -290 c 0,41,42
 58 -194 58 -194 36 -24 c 1,43,-1
 36 20 l 2,44,45
 36 132 36 132 218 132 c 2,46,-1
 1250 132 l 1,47,48
 1262 186 1262 186 1262 250 c 2,49,-1
 1262 316 l 2,50,51
 1262 526 1262 526 1160 696 c 0,52,53
 1074 840 1074 840 992 840 c 1,54,55
 1022 810 1022 810 1042 752 c 1,56,-1
 1050 714 l 1,57,-1
 1058 680 l 1,58,-1
 1058 542 l 2,59,60
 1058 446 1058 446 978 388 c 0,61,62
 906 338 906 338 806 338 c 256,63,64
 706 338 706 338 636 390 c 0,65,66
 558 446 558 446 558 542 c 2,67,-1
 558 704 l 2,68,69
 558 810 558 810 641 882 c 128,-1,70
 724 954 724 954 832 954 c 2,71,-1
 946 954 l 2,72,73
 1170 954 1170 954 1308 756 c 0,74,75
 1422 592 1422 592 1422 340 c 2,76,-1
 1422 226 l 1,77,-1
 1414 132 l 1,78,-1
 1606 132 l 1,79,-1
 1606 954 l 1,80,-1
 1762 954 l 1,81,-1
 1762 132 l 1,82,83
 1802 172 1802 172 1882 172 c 0,84,85
 2000 172 2000 172 2070 70 c 0,86,87
 2132 -20 2132 -20 2132 -144 c 2,88,-1
 2132 -258 l 2,0,1
898 520 m 2,89,-1
 898 750 l 2,90,91
 898 780 898 780 868 810 c 128,-1,92
 838 840 838 840 808 840 c 0,93,94
 782 840 782 840 753 809 c 128,-1,95
 724 778 724 778 718 750 c 1,96,-1
 718 520 l 2,97,98
 718 456 718 456 804 456 c 0,99,100
 898 456 898 456 898 520 c 2,89,-1
1200 20 m 1,101,-1
 196 20 l 1,102,-1
 196 -24 l 2,103,104
 196 -134 196 -134 356 -198 c 0,105,106
 480 -250 480 -250 606 -250 c 2,107,-1
 718 -250 l 2,108,109
 864 -250 864 -250 997 -177 c 128,-1,110
 1130 -104 1130 -104 1200 20 c 1,101,-1
EndSplineSet
EndChar

StartChar: tm_i
Encoding: 2951 2951 52
Width: 1708
GlyphClass: 2
Flags: W
LayerCount: 2
Fore
SplineSet
1578 0 m 1,0,-1
 1418 0 l 1,1,-1
 1418 906 l 2,2,3
 1418 1120 1418 1120 1236 1250 c 0,4,5
 1076 1364 1076 1364 852 1364 c 2,6,-1
 714 1364 l 2,7,8
 502 1364 502 1364 342 1170 c 0,9,10
 192 988 192 988 192 770 c 2,11,-1
 192 500 l 2,12,13
 192 278 192 278 282 90 c 1,14,15
 328 124 328 124 444 164 c 128,-1,16
 560 204 560 204 626 204 c 2,17,-1
 828 204 l 2,18,19
 906 204 906 204 988 156 c 1,20,-1
 1002 238 l 1,21,-1
 1008 340 l 1,22,-1
 1008 430 l 2,23,24
 1008 588 1008 588 951 704 c 128,-1,25
 894 820 894 820 804 840 c 1,26,27
 876 768 876 768 876 680 c 2,28,-1
 876 520 l 2,29,30
 876 438 876 438 792 378 c 1,31,32
 712 340 712 340 626 340 c 0,33,34
 528 340 528 340 450 388 c 1,35,36
 376 444 376 444 376 542 c 2,37,-1
 376 704 l 2,38,39
 376 810 376 810 456 882 c 128,-1,40
 536 954 536 954 644 954 c 2,41,-1
 758 954 l 2,42,43
 948 954 948 954 1064 794 c 0,44,45
 1168 652 1168 652 1168 454 c 2,46,-1
 1168 340 l 2,47,48
 1168 304 1168 304 1126 132 c 1,49,50
 1328 24 1328 24 1328 -118 c 2,51,-1
 1328 -250 l 2,52,53
 1328 -368 1328 -368 1224 -448 c 0,54,55
 1128 -524 1128 -524 1008 -524 c 2,56,-1
 828 -524 l 2,57,58
 756 -524 756 -524 578 -434 c 1,59,60
 404 -524 404 -524 328 -524 c 2,61,-1
 144 -524 l 2,62,63
 68 -524 68 -524 16 -470 c 128,-1,64
 -36 -416 -36 -416 -36 -344 c 2,65,-1
 -36 -250 l 2,66,67
 -36 -124 -36 -124 144 20 c 1,68,69
 32 262 32 262 32 500 c 2,70,-1
 32 792 l 2,71,72
 32 1048 32 1048 220 1258 c 0,73,74
 416 1476 416 1476 668 1476 c 2,75,-1
 918 1476 l 2,76,77
 1166 1476 1166 1476 1366 1318 c 0,78,79
 1578 1150 1578 1150 1578 906 c 2,80,-1
 1578 0 l 1,0,-1
714 520 m 2,81,-1
 714 750 l 2,82,83
 714 832 714 832 624 832 c 0,84,85
 532 832 532 832 532 750 c 2,86,-1
 532 520 l 2,87,88
 532 452 532 452 626 452 c 0,89,90
 714 452 714 452 714 520 c 2,81,-1
1168 -250 m 2,91,-1
 1168 -160 l 1,92,-1
 1162 -110 l 2,93,94
 1158 -90 1158 -90 1140 -58 c 0,95,96
 1110 -2 1110 -2 1078 20 c 1,97,98
 962 -178 962 -178 692 -386 c 1,99,100
 768 -410 768 -410 852 -410 c 2,101,-1
 942 -410 l 2,102,103
 1016 -410 1016 -410 1088 -368 c 0,104,105
 1168 -320 1168 -320 1168 -250 c 2,91,-1
942 66 m 1,106,107
 810 90 810 90 782 90 c 2,108,-1
 626 90 l 2,109,110
 518 90 518 90 328 0 c 1,111,112
 434 -208 434 -208 578 -320 c 1,113,114
 666 -266 666 -266 774 -154 c 0,115,116
 888 -34 888 -34 942 66 c 1,106,107
442 -344 m 1,117,118
 284 -204 284 -204 214 -94 c 1,119,120
 126 -192 126 -192 126 -250 c 0,121,122
 126 -320 126 -320 150 -374 c 0,123,124
 166 -410 166 -410 192 -410 c 2,125,-1
 282 -410 l 2,126,127
 300 -410 300 -410 361 -379 c 128,-1,128
 422 -348 422 -348 442 -344 c 1,117,118
EndSplineSet
EndChar

StartChar: tm_ii
Encoding: 2952 2952 53
Width: 1176
GlyphClass: 2
Flags: W
LayerCount: 2
Fore
SplineSet
1098 454 m 0,0,1
 1098 340 1098 340 984 340 c 0,2,3
 890 340 890 340 890 476 c 0,4,5
 890 582 890 582 990 582 c 0,6,7
 1026 582 1026 582 1066 546 c 1,8,9
 1098 508 1098 508 1098 454 c 0,0,1
1050 840 m 1,10,-1
 778 840 l 1,11,-1
 778 0 l 1,12,-1
 622 0 l 1,13,-1
 622 840 l 1,14,-1
 188 840 l 1,15,-1
 188 0 l 1,16,-1
 28 0 l 1,17,-1
 28 954 l 1,18,-1
 1050 954 l 1,19,-1
 1050 840 l 1,10,-1
504 454 m 0,20,21
 504 340 504 340 390 340 c 0,22,23
 298 340 298 340 298 452 c 0,24,25
 298 504 298 504 325 547 c 128,-1,26
 352 590 352 590 402 590 c 0,27,28
 438 590 438 590 472 556 c 1,29,30
 504 512 504 512 504 454 c 0,20,21
EndSplineSet
EndChar

StartChar: tm_u
Encoding: 2953 2953 54
Width: 1660
GlyphClass: 2
Flags: W
LayerCount: 2
Fore
SplineSet
1554 0 m 1,0,-1
 102 0 l 2,1,2
 78 0 78 0 58 17 c 128,-1,3
 38 34 38 34 32 66 c 1,4,-1
 32 132 l 2,5,6
 32 204 32 204 78 204 c 0,7,8
 352 204 352 204 518 296 c 0,9,10
 668 378 668 378 668 542 c 2,11,-1
 668 632 l 2,12,13
 668 714 668 714 585 777 c 128,-1,14
 502 840 502 840 418 840 c 1,15,16
 456 828 456 828 500 766 c 1,17,-1
 524 710 l 1,18,-1
 532 656 l 1,19,-1
 532 590 l 2,20,21
 532 494 532 494 447 429 c 128,-1,22
 362 364 362 364 262 364 c 256,23,24
 162 364 162 364 100 414 c 0,25,26
 32 468 32 468 32 566 c 2,27,-1
 32 656 l 2,28,29
 32 790 32 790 162 878 c 0,30,31
 278 954 278 954 418 954 c 2,32,-1
 508 954 l 2,33,34
 644 954 644 954 736 861 c 128,-1,35
 828 768 828 768 828 632 c 2,36,-1
 828 520 l 2,37,38
 828 212 828 212 304 114 c 1,39,-1
 1554 114 l 1,40,-1
 1554 0 l 1,0,-1
376 542 m 1,41,-1
 376 680 l 2,42,43
 376 748 376 748 284 748 c 256,44,45
 192 748 192 748 192 680 c 2,46,-1
 192 542 l 1,47,48
 202 476 202 476 282 476 c 0,49,50
 308 476 308 476 350 500 c 0,51,52
 364 510 364 510 376 542 c 1,41,-1
EndSplineSet
EndChar

StartChar: tm_uu
Encoding: 2954 2954 55
Width: 2328
GlyphClass: 2
Flags: W
LayerCount: 2
Fore
SplineSet
2266 864 m 1,0,-1
 2040 864 l 1,1,-1
 2040 250 l 1,2,-1
 1902 250 l 1,3,-1
 1902 864 l 1,4,-1
 1812 864 l 2,5,6
 1770 864 1770 864 1733 837 c 128,-1,7
 1696 810 1696 810 1696 770 c 2,8,-1
 1696 250 l 1,9,-1
 1562 250 l 1,10,-1
 1562 726 l 2,11,12
 1562 768 1562 768 1524 812 c 128,-1,13
 1486 856 1486 856 1446 864 c 1,14,-1
 1332 864 l 2,15,16
 1258 864 1258 864 1190 798 c 0,17,18
 1136 746 1136 746 1128 680 c 1,19,20
 1168 710 1168 710 1232 710 c 0,21,22
 1304 710 1304 710 1360 674 c 0,23,24
 1426 634 1426 634 1426 566 c 2,25,-1
 1426 406 l 2,26,27
 1426 340 1426 340 1357 295 c 128,-1,28
 1288 250 1288 250 1218 250 c 0,29,30
 1150 250 1150 250 1076 294 c 0,31,32
 992 344 992 344 992 406 c 2,33,-1
 992 632 l 2,34,35
 992 768 992 768 1094 861 c 128,-1,36
 1196 954 1196 954 1332 954 c 2,37,-1
 1426 954 l 2,38,39
 1552 954 1552 954 1606 882 c 1,40,41
 1658 954 1658 954 1790 954 c 2,42,-1
 2266 954 l 1,43,-1
 2266 864 l 1,0,-1
2266 0 m 1,44,-1
 106 0 l 2,45,46
 52 0 52 0 40 66 c 1,47,-1
 40 132 l 2,48,49
 40 204 40 204 82 204 c 0,50,51
 356 204 356 204 524 296 c 0,52,53
 676 380 676 380 676 542 c 2,54,-1
 676 632 l 2,55,56
 676 708 676 708 586 780 c 0,57,58
 512 840 512 840 426 840 c 1,59,60
 474 822 474 822 507 766 c 128,-1,61
 540 710 540 710 540 656 c 2,62,-1
 540 590 l 2,63,64
 540 494 540 494 455 429 c 128,-1,65
 370 364 370 364 270 364 c 256,66,67
 170 364 170 364 108 414 c 0,68,69
 40 468 40 468 40 566 c 2,70,-1
 40 656 l 2,71,72
 40 792 40 792 170 878 c 0,73,74
 284 954 284 954 426 954 c 2,75,-1
 516 954 l 2,76,77
 650 954 650 954 741 861 c 128,-1,78
 832 768 832 768 832 632 c 2,79,-1
 832 520 l 2,80,81
 832 212 832 212 312 114 c 1,82,-1
 2266 114 l 1,83,-1
 2266 0 l 1,44,-1
1290 382 m 2,84,-1
 1290 520 l 2,85,86
 1290 588 1290 588 1212 588 c 0,87,88
 1128 588 1128 588 1128 520 c 2,89,-1
 1128 382 l 2,90,91
 1128 318 1128 318 1212 318 c 0,92,93
 1290 318 1290 318 1290 382 c 2,84,-1
378 542 m 2,94,-1
 378 680 l 2,95,96
 378 706 378 706 348 728 c 128,-1,97
 318 750 318 750 290 750 c 0,98,99
 218 750 218 750 196 680 c 1,100,-1
 196 542 l 1,101,102
 214 476 214 476 302 476 c 0,103,104
 378 476 378 476 378 542 c 2,94,-1
EndSplineSet
EndChar

StartChar: tm_e
Encoding: 2958 2958 56
Width: 1292
GlyphClass: 2
Flags: W
LayerCount: 2
Fore
SplineSet
1234 840 m 1,0,-1
 960 840 l 1,1,-1
 960 0 l 1,2,-1
 804 0 l 1,3,-1
 804 840 l 1,4,-1
 484 840 l 2,5,6
 350 840 350 840 260 748 c 0,7,8
 188 674 188 674 188 590 c 1,9,10
 236 638 236 638 310 638 c 0,11,12
 396 638 396 638 464 577 c 128,-1,13
 532 516 532 516 532 430 c 2,14,-1
 532 226 l 2,15,16
 532 146 532 146 447 73 c 128,-1,17
 362 0 362 0 282 0 c 0,18,19
 176 0 176 0 104 62 c 128,-1,20
 32 124 32 124 32 226 c 2,21,-1
 32 520 l 2,22,23
 32 694 32 694 149 824 c 128,-1,24
 266 954 266 954 438 954 c 2,25,-1
 1234 954 l 1,26,-1
 1234 840 l 1,0,-1
372 204 m 2,27,-1
 372 382 l 2,28,29
 372 470 372 470 280 470 c 256,30,31
 188 470 188 470 188 382 c 2,32,-1
 188 204 l 2,33,34
 188 116 188 116 280 116 c 256,35,36
 372 116 372 116 372 204 c 2,27,-1
EndSplineSet
EndChar

StartChar: tm_ee
Encoding: 2959 2959 57
Width: 1290
GlyphClass: 2
Flags: W
LayerCount: 2
Fore
SplineSet
1234 840 m 1,0,-1
 960 840 l 1,1,-1
 960 0 l 1,2,-1
 710 -296 l 1,3,-1
 622 -208 l 1,4,-1
 800 0 l 1,5,-1
 800 840 l 1,6,-1
 484 840 l 2,7,8
 348 840 348 840 258 748 c 0,9,10
 188 678 188 678 188 590 c 1,11,12
 236 638 236 638 312 638 c 0,13,14
 396 638 396 638 462 575 c 128,-1,15
 528 512 528 512 528 430 c 2,16,-1
 528 226 l 2,17,18
 528 146 528 146 443 73 c 128,-1,19
 358 0 358 0 278 0 c 0,20,21
 172 0 172 0 100 62 c 128,-1,22
 28 124 28 124 28 226 c 2,23,-1
 28 520 l 2,24,25
 28 700 28 700 144 827 c 128,-1,26
 260 954 260 954 438 954 c 2,27,-1
 1234 954 l 1,28,-1
 1234 840 l 1,0,-1
372 204 m 2,29,-1
 372 382 l 2,30,31
 372 470 372 470 278 470 c 0,32,33
 242 470 242 470 215 443 c 128,-1,34
 188 416 188 416 188 382 c 2,35,-1
 188 204 l 2,36,37
 188 116 188 116 278 116 c 0,38,39
 372 116 372 116 372 204 c 2,29,-1
EndSplineSet
EndChar

StartChar: tm_ai
Encoding: 2960 2960 58
Width: 1454
GlyphClass: 2
Flags: W
LayerCount: 2
Fore
SplineSet
1324 -320 m 2,0,1
 1324 -432 1324 -432 1245 -501 c 128,-1,2
 1166 -570 1166 -570 1054 -570 c 2,3,-1
 960 -570 l 2,4,5
 810 -570 810 -570 734 -434 c 1,6,7
 634 -570 634 -570 438 -570 c 2,8,-1
 348 -570 l 2,9,10
 222 -570 222 -570 130 -496 c 0,11,12
 32 -418 32 -418 32 -296 c 2,13,-1
 32 -184 l 2,14,15
 32 -44 32 -44 182 50 c 0,16,17
 312 132 312 132 484 132 c 2,18,-1
 918 132 l 2,19,20
 1016 132 1016 132 1092 208 c 128,-1,21
 1168 284 1168 284 1168 382 c 2,22,-1
 1168 614 l 2,23,24
 1168 674 1168 674 1130 752 c 0,25,26
 1086 840 1086 840 1032 840 c 2,27,-1
 984 840 l 2,28,29
 938 840 938 840 880 786 c 1,30,31
 824 718 824 718 824 614 c 2,32,-1
 824 250 l 1,33,-1
 668 250 l 1,34,-1
 668 590 l 2,35,36
 668 682 668 682 622 754 c 0,37,38
 570 840 570 840 484 840 c 2,39,-1
 418 840 l 2,40,41
 384 840 384 840 344 811 c 128,-1,42
 304 782 304 782 304 750 c 1,43,44
 400 750 400 750 466 694 c 128,-1,45
 532 638 532 638 532 542 c 2,46,-1
 532 476 l 2,47,48
 532 376 532 376 460 313 c 128,-1,49
 388 250 388 250 282 250 c 0,50,51
 186 250 186 250 109 327 c 128,-1,52
 32 404 32 404 32 500 c 2,53,-1
 32 590 l 2,54,55
 32 744 32 744 136 849 c 128,-1,56
 240 954 240 954 394 954 c 2,57,-1
 460 954 l 2,58,59
 540 954 540 954 615 908 c 128,-1,60
 690 862 690 862 734 792 c 1,61,62
 822 954 822 954 984 954 c 2,63,-1
 1054 954 l 2,64,65
 1192 954 1192 954 1262 860 c 0,66,67
 1324 776 1324 776 1324 632 c 2,68,-1
 1324 382 l 2,69,70
 1324 226 1324 226 1210 123 c 128,-1,71
 1096 20 1096 20 938 20 c 2,72,-1
 460 20 l 2,73,74
 372 20 372 20 286 -38 c 0,75,76
 188 -102 188 -102 188 -184 c 2,77,-1
 188 -274 l 2,78,79
 188 -338 188 -338 259 -398 c 128,-1,80
 330 -458 330 -458 394 -458 c 2,81,-1
 460 -458 l 2,82,83
 528 -458 528 -458 598 -378 c 128,-1,84
 668 -298 668 -298 668 -230 c 2,85,-1
 668 -118 l 1,86,-1
 824 -118 l 1,87,-1
 824 -296 l 2,88,89
 824 -350 824 -350 877 -404 c 128,-1,90
 930 -458 930 -458 984 -458 c 2,91,-1
 1008 -458 l 2,92,93
 1064 -458 1064 -458 1116 -405 c 128,-1,94
 1168 -352 1168 -352 1168 -296 c 2,95,-1
 1168 -230 l 2,96,97
 1168 -146 1168 -146 1122 -94 c 1,98,-1
 1210 0 l 1,99,100
 1240 -18 1240 -18 1286 -82 c 1,101,102
 1324 -154 1324 -154 1324 -208 c 2,103,-1
 1324 -320 l 2,0,1
372 430 m 1,104,-1
 372 566 l 2,105,106
 372 628 372 628 280 628 c 256,107,108
 188 628 188 628 188 566 c 2,109,-1
 188 430 l 1,110,-1
 230 386 l 2,111,112
 244 376 244 376 282 364 c 1,113,-1
 296 370 l 1,114,-1
 334 388 l 1,115,116
 360 408 360 408 372 430 c 1,104,-1
EndSplineSet
EndChar

StartChar: tm_o
Encoding: 2962 2962 59
Width: 1454
GlyphClass: 2
Flags: W
LayerCount: 2
Fore
SplineSet
1324 292 m 2,0,1
 1324 198 1324 198 1257 120 c 128,-1,2
 1190 42 1190 42 1098 42 c 2,3,-1
 1032 42 l 2,4,5
 952 42 952 42 896 126 c 0,6,7
 844 204 844 204 844 308 c 0,8,9
 844 358 844 358 848 364 c 1,10,11
 758 262 758 262 758 180 c 0,12,13
 758 86 758 86 836 8 c 128,-1,14
 914 -70 914 -70 1008 -70 c 2,15,-1
 1258 -70 l 1,16,-1
 1258 -184 l 1,17,-1
 1074 -184 l 2,18,19
 1022 -184 1022 -184 970 -227 c 128,-1,20
 918 -270 918 -270 918 -320 c 2,21,-1
 918 -368 l 2,22,23
 918 -422 918 -422 840 -480 c 1,24,25
 790 -506 790 -506 702 -520 c 0,26,27
 676 -524 676 -524 644 -524 c 2,28,-1
 532 -524 l 2,29,30
 424 -524 424 -524 334 -466 c 0,31,32
 234 -398 234 -398 234 -296 c 2,33,-1
 234 -160 l 1,34,-1
 394 -250 l 1,35,-1
 390 -284 l 1,36,37
 390 -410 390 -410 554 -410 c 2,38,-1
 598 -410 l 2,39,40
 738 -410 738 -410 782 -274 c 1,41,42
 782 -170 782 -170 872 -118 c 1,43,44
 798 -98 798 -98 724 -20 c 0,45,46
 686 18 686 18 664 74 c 1,47,-1
 650 122 l 1,48,-1
 644 180 l 1,49,-1
 644 226 l 2,50,51
 644 314 644 314 722 414 c 0,52,53
 790 500 790 500 848 500 c 2,54,-1
 960 500 l 2,55,56
 1034 500 1034 500 1044 498 c 128,-1,57
 1054 496 1054 496 1054 476 c 2,58,-1
 1054 454 l 1,59,60
 1034 454 1034 454 990 404 c 1,61,62
 960 356 960 356 960 316 c 2,63,-1
 960 270 l 2,64,65
 960 248 960 248 996 196 c 1,66,67
 1024 164 1024 164 1054 156 c 1,68,-1
 1074 156 l 2,69,70
 1118 156 1118 156 1146 230 c 0,71,72
 1168 288 1168 288 1168 340 c 2,73,-1
 1168 406 l 2,74,75
 1168 610 1168 610 1014 734 c 0,76,77
 882 840 882 840 688 840 c 2,78,-1
 574 840 l 2,79,80
 406 840 406 840 288 748 c 0,81,82
 188 670 188 670 188 590 c 1,83,84
 236 638 236 638 310 638 c 0,85,86
 396 638 396 638 464 577 c 128,-1,87
 532 516 532 516 532 430 c 2,88,-1
 532 226 l 2,89,90
 532 126 532 126 454 62 c 0,91,92
 384 4 384 4 280 4 c 0,93,94
 174 4 174 4 103 63 c 128,-1,95
 32 122 32 122 32 226 c 2,96,-1
 32 542 l 2,97,98
 32 704 32 704 216 834 c 0,99,100
 384 954 384 954 554 954 c 2,101,-1
 734 954 l 2,102,103
 986 954 986 954 1164 798 c 0,104,105
 1324 658 1324 658 1324 454 c 2,106,-1
 1324 292 l 2,0,1
372 204 m 2,107,-1
 372 382 l 2,108,109
 372 472 372 472 278 472 c 0,110,111
 254 472 254 472 214 448 c 1,112,113
 188 422 188 422 188 382 c 2,114,-1
 188 204 l 2,115,116
 188 116 188 116 280 116 c 256,117,118
 372 116 372 116 372 204 c 2,107,-1
EndSplineSet
EndChar

StartChar: tm_oo
Encoding: 2963 2963 60
Width: 1454
GlyphClass: 2
Flags: W
LayerCount: 2
Fore
SplineSet
1324 292 m 2,0,1
 1324 198 1324 198 1257 120 c 128,-1,2
 1190 42 1190 42 1098 42 c 2,3,-1
 1032 42 l 2,4,5
 952 42 952 42 896 126 c 0,6,7
 844 204 844 204 844 308 c 0,8,9
 844 358 844 358 848 364 c 1,10,11
 758 262 758 262 758 180 c 0,12,13
 758 86 758 86 836 8 c 128,-1,14
 914 -70 914 -70 1008 -70 c 2,15,-1
 1258 -70 l 1,16,-1
 1258 -184 l 1,17,-1
 1074 -184 l 2,18,19
 1022 -184 1022 -184 970 -227 c 128,-1,20
 918 -270 918 -270 918 -320 c 2,21,-1
 918 -368 l 2,22,23
 918 -422 918 -422 840 -480 c 1,24,25
 790 -506 790 -506 702 -520 c 0,26,27
 676 -524 676 -524 644 -524 c 2,28,-1
 532 -524 l 2,29,30
 416 -524 416 -524 332 -470 c 0,31,32
 234 -406 234 -406 234 -296 c 2,33,-1
 234 -230 l 2,34,35
 234 -188 234 -188 270 -153 c 128,-1,36
 306 -118 306 -118 348 -118 c 2,37,-1
 418 -118 l 2,38,39
 462 -118 462 -118 504 -142 c 0,40,41
 554 -168 554 -168 554 -208 c 2,42,-1
 554 -296 l 2,43,44
 554 -368 554 -368 438 -410 c 1,45,-1
 530 -418 l 2,46,47
 742 -436 742 -436 782 -274 c 1,48,49
 782 -170 782 -170 872 -118 c 1,50,51
 798 -98 798 -98 724 -20 c 0,52,53
 686 18 686 18 664 74 c 1,54,-1
 650 122 l 1,55,-1
 644 180 l 1,56,-1
 644 226 l 2,57,58
 644 314 644 314 722 414 c 0,59,60
 790 500 790 500 848 500 c 2,61,-1
 960 500 l 2,62,63
 1034 500 1034 500 1044 498 c 128,-1,64
 1054 496 1054 496 1054 476 c 2,65,-1
 1054 454 l 1,66,67
 1034 454 1034 454 990 404 c 1,68,69
 960 356 960 356 960 316 c 2,70,-1
 960 270 l 2,71,72
 960 248 960 248 996 196 c 1,73,74
 1024 164 1024 164 1054 156 c 1,75,-1
 1074 156 l 2,76,77
 1118 156 1118 156 1146 230 c 0,78,79
 1168 288 1168 288 1168 340 c 2,80,-1
 1168 406 l 2,81,82
 1168 610 1168 610 1014 734 c 0,83,84
 882 840 882 840 688 840 c 2,85,-1
 574 840 l 2,86,87
 406 840 406 840 288 748 c 0,88,89
 188 670 188 670 188 590 c 1,90,91
 236 638 236 638 310 638 c 0,92,93
 396 638 396 638 464 577 c 128,-1,94
 532 516 532 516 532 430 c 2,95,-1
 532 226 l 2,96,97
 532 126 532 126 454 62 c 0,98,99
 384 4 384 4 280 4 c 0,100,101
 174 4 174 4 103 63 c 128,-1,102
 32 122 32 122 32 226 c 2,103,-1
 32 542 l 2,104,105
 32 704 32 704 216 834 c 0,106,107
 384 954 384 954 554 954 c 2,108,-1
 734 954 l 2,109,110
 986 954 986 954 1164 798 c 0,111,112
 1324 658 1324 658 1324 454 c 2,113,-1
 1324 292 l 2,0,1
372 204 m 2,114,-1
 372 382 l 2,115,116
 372 472 372 472 278 472 c 0,117,118
 254 472 254 472 214 448 c 1,119,120
 188 422 188 422 188 382 c 2,121,-1
 188 204 l 2,122,123
 188 116 188 116 280 116 c 256,124,125
 372 116 372 116 372 204 c 2,114,-1
484 -274 m 256,126,127
 484 -210 484 -210 416 -210 c 256,128,129
 348 -210 348 -210 348 -274 c 256,130,131
 348 -338 348 -338 416 -338 c 256,132,133
 484 -338 484 -338 484 -274 c 256,126,127
EndSplineSet
EndChar

StartChar: tm_au
Encoding: 2964 2964 61
Width: 3038
GlyphClass: 2
Flags: W
LayerCount: 2
Fore
SplineSet
2974 840 m 1,0,-1
 2702 840 l 1,1,-1
 2702 0 l 1,2,-1
 2546 0 l 1,3,-1
 2546 840 l 1,4,-1
 2428 840 l 2,5,6
 2370 840 2370 840 2333 801 c 128,-1,7
 2296 762 2296 762 2296 704 c 2,8,-1
 2296 0 l 1,9,-1
 2134 0 l 1,10,-1
 2134 656 l 2,11,12
 2134 712 2134 712 2094 772 c 0,13,14
 2052 840 2052 840 1998 840 c 2,15,-1
 1862 840 l 2,16,17
 1750 840 1750 840 1681 760 c 128,-1,18
 1612 680 1612 680 1612 566 c 1,19,20
 1674 628 1674 628 1758 628 c 0,21,22
 1836 628 1836 628 1894 568 c 128,-1,23
 1952 508 1952 508 1952 430 c 2,24,-1
 1952 226 l 2,25,26
 1952 126 1952 126 1877 66 c 128,-1,27
 1802 6 1802 6 1698 6 c 256,28,29
 1594 6 1594 6 1526 64 c 0,30,31
 1452 124 1452 124 1452 226 c 2,32,-1
 1452 520 l 2,33,34
 1452 684 1452 684 1576 819 c 128,-1,35
 1700 954 1700 954 1862 954 c 2,36,-1
 1974 954 l 2,37,38
 2102 954 2102 954 2198 840 c 1,39,40
 2276 954 2276 954 2408 954 c 2,41,-1
 2974 954 l 1,42,-1
 2974 840 l 1,0,-1
1324 292 m 2,43,44
 1324 198 1324 198 1257 120 c 128,-1,45
 1190 42 1190 42 1098 42 c 2,46,-1
 1032 42 l 2,47,48
 952 42 952 42 896 126 c 0,49,50
 844 204 844 204 844 308 c 0,51,52
 844 358 844 358 848 364 c 1,53,54
 758 262 758 262 758 180 c 0,55,56
 758 86 758 86 836 8 c 128,-1,57
 914 -70 914 -70 1008 -70 c 2,58,-1
 1258 -70 l 1,59,-1
 1258 -184 l 1,60,-1
 1074 -184 l 2,61,62
 1022 -184 1022 -184 970 -227 c 128,-1,63
 918 -270 918 -270 918 -320 c 2,64,-1
 918 -368 l 2,65,66
 918 -422 918 -422 840 -480 c 1,67,68
 790 -506 790 -506 702 -520 c 0,69,70
 676 -524 676 -524 644 -524 c 2,71,-1
 532 -524 l 2,72,73
 424 -524 424 -524 334 -466 c 0,74,75
 234 -398 234 -398 234 -296 c 2,76,-1
 234 -160 l 1,77,-1
 394 -250 l 1,78,-1
 390 -284 l 1,79,80
 390 -410 390 -410 554 -410 c 2,81,-1
 598 -410 l 2,82,83
 738 -410 738 -410 782 -274 c 1,84,85
 782 -170 782 -170 872 -118 c 1,86,87
 798 -98 798 -98 724 -20 c 0,88,89
 686 18 686 18 664 74 c 1,90,-1
 650 122 l 1,91,-1
 644 180 l 1,92,-1
 644 226 l 2,93,94
 644 314 644 314 722 414 c 0,95,96
 790 500 790 500 848 500 c 2,97,-1
 960 500 l 2,98,99
 1034 500 1034 500 1044 498 c 128,-1,100
 1054 496 1054 496 1054 476 c 2,101,-1
 1054 454 l 1,102,103
 1034 454 1034 454 990 404 c 1,104,105
 960 356 960 356 960 316 c 2,106,-1
 960 270 l 2,107,108
 960 248 960 248 996 196 c 1,109,110
 1024 164 1024 164 1054 156 c 1,111,-1
 1074 156 l 2,112,113
 1118 156 1118 156 1146 230 c 0,114,115
 1168 288 1168 288 1168 340 c 2,116,-1
 1168 406 l 2,117,118
 1168 610 1168 610 1014 734 c 0,119,120
 882 840 882 840 688 840 c 2,121,-1
 574 840 l 2,122,123
 406 840 406 840 288 748 c 0,124,125
 188 670 188 670 188 590 c 1,126,127
 236 638 236 638 310 638 c 0,128,129
 396 638 396 638 464 577 c 128,-1,130
 532 516 532 516 532 430 c 2,131,-1
 532 226 l 2,132,133
 532 126 532 126 454 62 c 0,134,135
 384 4 384 4 280 4 c 0,136,137
 174 4 174 4 103 63 c 128,-1,138
 32 122 32 122 32 226 c 2,139,-1
 32 542 l 2,140,141
 32 704 32 704 216 834 c 0,142,143
 384 954 384 954 554 954 c 2,144,-1
 734 954 l 2,145,146
 986 954 986 954 1164 798 c 0,147,148
 1324 658 1324 658 1324 454 c 2,149,-1
 1324 292 l 2,43,44
1796 204 m 2,150,-1
 1796 382 l 2,151,152
 1796 408 1796 408 1766 444 c 1,153,-1
 1740 464 l 2,154,155
 1724 476 1724 476 1702 476 c 0,156,157
 1672 476 1672 476 1642 444 c 128,-1,158
 1612 412 1612 412 1612 382 c 2,159,-1
 1612 204 l 2,160,161
 1612 116 1612 116 1702 116 c 0,162,163
 1796 116 1796 116 1796 204 c 2,150,-1
372 204 m 2,164,-1
 372 382 l 2,165,166
 372 472 372 472 278 472 c 0,167,168
 254 472 254 472 214 448 c 1,169,170
 188 422 188 422 188 382 c 2,171,-1
 188 204 l 2,172,173
 188 116 188 116 280 116 c 256,174,175
 372 116 372 116 372 204 c 2,164,-1
EndSplineSet
EndChar

StartChar: tm_ka
Encoding: 2965 2965 62
Width: 1350
GlyphClass: 2
Flags: W
LayerCount: 2
Fore
SplineSet
1210 250 m 2,0,1
 1210 144 1210 144 1126 66 c 0,2,3
 1030 -24 1030 -24 908 -14 c 2,4,-1
 836 -8 l 1,5,-1
 894 114 l 1,6,-1
 918 110 l 1,7,8
 968 110 968 110 1011 162 c 128,-1,9
 1054 214 1054 214 1054 270 c 2,10,-1
 1054 364 l 2,11,12
 1054 476 1054 476 918 476 c 2,13,-1
 804 476 l 1,14,-1
 804 292 l 2,15,16
 804 0 804 0 394 0 c 0,17,18
 256 0 256 0 152 64 c 0,19,20
 32 140 32 140 32 270 c 2,21,-1
 32 454 l 2,22,23
 32 492 32 492 68 546 c 1,24,-1
 104 578 l 2,25,26
 122 590 122 590 144 590 c 2,27,-1
 234 590 l 1,28,-1
 234 954 l 1,29,-1
 1074 954 l 1,30,-1
 1074 840 l 1,31,-1
 804 840 l 1,32,-1
 804 590 l 1,33,-1
 938 590 l 2,34,35
 1210 590 1210 590 1210 382 c 2,36,-1
 1210 250 l 2,0,1
644 590 m 1,37,-1
 644 840 l 1,38,-1
 394 840 l 1,39,-1
 394 590 l 1,40,-1
 644 590 l 1,37,-1
644 270 m 2,41,-1
 644 476 l 1,42,-1
 258 476 l 2,43,44
 210 476 210 476 210 430 c 2,45,-1
 210 250 l 2,46,47
 210 210 210 210 276 156 c 1,48,49
 342 114 342 114 418 114 c 0,50,51
 490 114 490 114 562 154 c 0,52,53
 644 202 644 202 644 270 c 2,41,-1
EndSplineSet
EndChar

StartChar: tm_nga
Encoding: 2969 2969 63
Width: 1520
GlyphClass: 2
Flags: W
LayerCount: 2
Fore
SplineSet
1394 0 m 1,0,-1
 394 0 l 1,1,-1
 394 114 l 1,2,-1
 688 114 l 1,3,4
 848 172 848 172 848 406 c 0,5,6
 848 464 848 464 816 510 c 0,7,8
 782 564 782 564 726 564 c 0,9,10
 644 564 644 564 598 476 c 1,11,-1
 598 270 l 1,12,-1
 438 270 l 1,13,-1
 438 840 l 1,14,-1
 188 840 l 1,15,-1
 188 0 l 1,16,-1
 32 0 l 1,17,-1
 32 954 l 1,18,-1
 848 954 l 1,19,-1
 848 840 l 1,20,-1
 598 840 l 1,21,-1
 598 614 l 1,22,23
 670 680 670 680 804 680 c 0,24,25
 900 680 900 680 958 588 c 0,26,27
 1008 508 1008 508 1008 406 c 0,28,29
 1008 210 1008 210 894 114 c 1,30,-1
 1234 114 l 1,31,-1
 1234 954 l 1,32,-1
 1394 954 l 1,33,-1
 1394 0 l 1,0,-1
EndSplineSet
EndChar

StartChar: tm_ca
Encoding: 2970 2970 64
Width: 1152
GlyphClass: 2
Flags: W
LayerCount: 2
Fore
SplineSet
1074 840 m 1,0,-1
 800 840 l 1,1,-1
 800 590 l 1,2,-1
 1050 590 l 1,3,-1
 1050 476 l 1,4,-1
 800 476 l 1,5,-1
 800 292 l 2,6,7
 800 0 800 0 390 0 c 0,8,9
 252 0 252 0 148 64 c 0,10,11
 28 140 28 140 28 270 c 2,12,-1
 28 454 l 2,13,14
 28 492 28 492 64 546 c 1,15,-1
 100 578 l 2,16,17
 118 590 118 590 140 590 c 2,18,-1
 234 590 l 1,19,-1
 234 954 l 1,20,-1
 1074 954 l 1,21,-1
 1074 840 l 1,0,-1
640 590 m 1,22,-1
 640 840 l 1,23,-1
 390 840 l 1,24,-1
 390 590 l 1,25,-1
 640 590 l 1,22,-1
640 270 m 2,26,-1
 640 476 l 1,27,-1
 254 476 l 2,28,29
 210 476 210 476 210 430 c 2,30,-1
 210 250 l 2,31,32
 210 214 210 214 276 156 c 1,33,34
 342 114 342 114 414 114 c 256,35,36
 486 114 486 114 558 154 c 0,37,38
 640 202 640 202 640 270 c 2,26,-1
EndSplineSet
EndChar

StartChar: tm_ja
Encoding: 2972 2972 65
Width: 1454
GlyphClass: 2
Flags: W
LayerCount: 2
Fore
SplineSet
1324 -368 m 2,0,1
 1324 -466 1324 -466 1246 -522 c 0,2,3
 1176 -570 1176 -570 1074 -570 c 2,4,-1
 894 -570 l 2,5,6
 838 -570 838 -570 798 -542 c 1,7,8
 766 -528 766 -528 734 -480 c 1,9,-1
 804 -386 l 1,10,11
 812 -410 812 -410 858 -438 c 1,12,13
 908 -458 908 -458 938 -458 c 2,14,-1
 1008 -458 l 2,15,16
 1050 -458 1050 -458 1106 -420 c 128,-1,17
 1162 -382 1162 -382 1168 -344 c 1,18,-1
 1168 -296 l 2,19,20
 1168 -262 1168 -262 1120 -216 c 1,21,-1
 1072 -190 l 1,22,-1
 1032 -184 l 1,23,-1
 918 -184 l 2,24,25
 840 -184 840 -184 756 -284 c 2,26,-1
 600 -470 l 1,27,28
 500 -570 500 -570 394 -570 c 2,29,-1
 348 -570 l 2,30,31
 230 -570 230 -570 138 -510 c 0,32,33
 32 -440 32 -440 32 -320 c 2,34,-1
 32 -184 l 2,35,36
 32 -44 32 -44 182 50 c 0,37,38
 312 132 312 132 484 132 c 2,39,-1
 918 132 l 2,40,41
 1016 132 1016 132 1092 208 c 128,-1,42
 1168 284 1168 284 1168 382 c 2,43,-1
 1168 614 l 2,44,45
 1168 684 1168 684 1134 754 c 0,46,47
 1094 840 1094 840 1032 840 c 2,48,-1
 984 840 l 2,49,50
 938 840 938 840 880 786 c 1,51,52
 824 718 824 718 824 614 c 2,53,-1
 824 250 l 1,54,-1
 668 250 l 1,55,-1
 668 590 l 2,56,57
 668 708 668 708 612 782 c 0,58,59
 568 840 568 840 508 840 c 2,60,-1
 418 840 l 2,61,62
 280 840 280 840 234 750 c 1,63,-1
 300 758 l 1,64,65
 388 758 388 758 460 694 c 128,-1,66
 532 630 532 630 532 542 c 2,67,-1
 532 476 l 2,68,69
 532 386 532 386 454 310 c 1,70,71
 380 254 380 254 284 254 c 0,72,73
 178 254 178 254 108 310 c 0,74,75
 32 372 32 372 32 476 c 2,76,-1
 32 614 l 2,77,78
 32 746 32 746 136 850 c 128,-1,79
 240 954 240 954 372 954 c 2,80,-1
 460 954 l 2,81,82
 540 954 540 954 615 908 c 128,-1,83
 690 862 690 862 734 792 c 1,84,85
 822 954 822 954 984 954 c 2,86,-1
 1074 954 l 2,87,88
 1190 954 1190 954 1262 848 c 0,89,90
 1324 754 1324 754 1324 632 c 2,91,-1
 1324 382 l 2,92,93
 1324 318 1324 318 1300 248 c 1,94,-1
 1270 190 l 1,95,-1
 1248 162 l 1,96,-1
 1224 134 l 2,97,98
 1126 20 1126 20 938 20 c 2,99,-1
 460 20 l 2,100,101
 372 20 372 20 286 -38 c 0,102,103
 188 -102 188 -102 188 -184 c 2,104,-1
 188 -296 l 2,105,106
 188 -458 188 -458 372 -458 c 2,107,-1
 418 -458 l 2,108,109
 460 -458 460 -458 544 -358 c 0,110,111
 672 -208 672 -208 716 -170 c 0,112,113
 834 -70 834 -70 938 -70 c 2,114,-1
 1074 -70 l 2,115,116
 1160 -70 1160 -70 1238 -128 c 0,117,118
 1324 -192 1324 -192 1324 -274 c 2,119,-1
 1324 -368 l 2,0,1
372 430 m 2,120,-1
 372 566 l 2,121,122
 372 634 372 634 280 634 c 256,123,124
 188 634 188 634 188 566 c 2,125,-1
 188 430 l 1,126,-1
 220 384 l 1,127,128
 242 374 242 374 282 364 c 1,129,130
 308 364 308 364 340 385 c 128,-1,131
 372 406 372 406 372 430 c 2,120,-1
EndSplineSet
EndChar

StartChar: tm_nya
Encoding: 2974 2974 66
Width: 1844
GlyphClass: 2
Flags: W
LayerCount: 2
Fore
SplineSet
1714 204 m 0,0,1
 1714 -160 1714 -160 1470 -340 c 0,2,3
 1254 -500 1254 -500 876 -500 c 0,4,5
 524 -500 524 -500 276 -250 c 0,6,7
 164 -138 164 -138 98 -12 c 0,8,9
 54 72 54 72 40 180 c 0,10,11
 38 200 38 200 36 250 c 2,12,-1
 34 328 l 2,13,14
 28 596 28 596 214 882 c 1,15,-1
 286 792 l 1,16,17
 144 536 144 536 144 314 c 0,18,19
 144 34 144 34 376 -168 c 0,20,21
 578 -344 578 -344 876 -386 c 1,22,23
 1030 -386 1030 -386 1198 -330 c 0,24,25
 1442 -248 1442 -248 1526 -54 c 0,26,27
 1562 32 1562 32 1562 176 c 2,28,-1
 1562 268 l 1,29,-1
 1558 292 l 1,30,31
 1558 340 1558 340 1516 376 c 128,-1,32
 1474 412 1474 412 1426 412 c 0,33,34
 1380 412 1380 412 1328 364 c 1,35,-1
 1328 0 l 1,36,-1
 1172 0 l 1,37,-1
 1172 840 l 1,38,-1
 808 840 l 2,39,40
 712 840 712 840 635 763 c 128,-1,41
 558 686 558 686 558 590 c 1,42,43
 614 640 614 640 678 640 c 0,44,45
 764 640 764 640 831 577 c 128,-1,46
 898 514 898 514 898 430 c 2,47,-1
 898 226 l 2,48,49
 898 126 898 126 820 62 c 0,50,51
 750 4 750 4 646 4 c 0,52,53
 540 4 540 4 469 63 c 128,-1,54
 398 122 398 122 398 226 c 2,55,-1
 398 520 l 2,56,57
 398 692 398 692 517 823 c 128,-1,58
 636 954 636 954 808 954 c 2,59,-1
 1602 954 l 1,60,-1
 1602 840 l 1,61,-1
 1328 840 l 1,62,-1
 1328 520 l 1,63,64
 1394 550 1394 550 1450 550 c 0,65,66
 1570 550 1570 550 1646 432 c 0,67,68
 1714 330 1714 330 1714 204 c 0,0,1
738 204 m 2,69,-1
 738 382 l 2,70,71
 738 418 738 418 711 447 c 128,-1,72
 684 476 684 476 648 476 c 0,73,74
 618 476 618 476 588 444 c 128,-1,75
 558 412 558 412 558 382 c 2,76,-1
 558 204 l 2,77,78
 558 116 558 116 648 116 c 256,79,80
 738 116 738 116 738 204 c 2,69,-1
EndSplineSet
EndChar

StartChar: tm_tta
Encoding: 2975 2975 67
Width: 1290
GlyphClass: 2
Flags: W
LayerCount: 2
Fore
SplineSet
1164 0 m 1,0,-1
 28 0 l 1,1,-1
 28 954 l 1,2,-1
 188 954 l 1,3,-1
 188 114 l 1,4,-1
 1164 114 l 1,5,-1
 1164 0 l 1,0,-1
EndSplineSet
EndChar

StartChar: tm_nna
Encoding: 2979 2979 68
Width: 2512
GlyphClass: 2
Flags: W
LayerCount: 2
Fore
SplineSet
2446 840 m 1,0,-1
 2176 840 l 1,1,-1
 2176 0 l 1,2,-1
 2016 0 l 1,3,-1
 2016 840 l 1,4,-1
 1832 840 l 2,5,6
 1754 840 1754 840 1696 816 c 1,7,8
 1758 758 1758 758 1780 690 c 2,9,-1
 1804 614 l 1,10,-1
 1812 542 l 1,11,-1
 1812 226 l 2,12,13
 1812 126 1812 126 1738 60 c 0,14,15
 1672 0 1672 0 1560 0 c 0,16,17
 1454 0 1454 0 1386 60 c 0,18,19
 1312 122 1312 122 1312 226 c 2,20,-1
 1312 542 l 2,21,22
 1312 680 1312 680 1446 816 c 1,23,24
 1404 840 1404 840 1290 840 c 2,25,-1
 1196 840 l 2,26,27
 1116 840 1116 840 1062 816 c 1,28,29
 1104 774 1104 774 1144 688 c 0,30,31
 1164 646 1164 646 1168 612 c 2,32,-1
 1176 542 l 1,33,-1
 1176 226 l 2,34,35
 1176 120 1176 120 1098 58 c 0,36,37
 1028 2 1028 2 924 2 c 0,38,39
 816 2 816 2 746 61 c 128,-1,40
 676 120 676 120 676 226 c 2,41,-1
 676 542 l 2,42,43
 676 686 676 686 812 816 c 1,44,45
 766 840 766 840 652 840 c 2,46,-1
 446 840 l 2,47,48
 340 840 340 840 268 756 c 128,-1,49
 196 672 196 672 196 566 c 1,50,51
 258 628 258 628 338 628 c 0,52,53
 424 628 424 628 482 561 c 128,-1,54
 540 494 540 494 540 406 c 2,55,-1
 540 226 l 2,56,57
 540 126 540 126 465 66 c 128,-1,58
 390 6 390 6 286 6 c 256,59,60
 182 6 182 6 114 64 c 0,61,62
 40 124 40 124 40 226 c 2,63,-1
 40 520 l 2,64,65
 40 694 40 694 157 824 c 128,-1,66
 274 954 274 954 446 954 c 2,67,-1
 696 954 l 1,68,-1
 754 948 l 2,69,70
 768 946 768 946 826 926 c 0,71,72
 898 900 898 900 926 882 c 1,73,74
 1052 954 1052 954 1082 954 c 2,75,-1
 1332 954 l 1,76,-1
 1390 948 l 2,77,78
 1404 946 1404 946 1462 926 c 0,79,80
 1534 900 1534 900 1562 882 c 1,81,82
 1694 954 1694 954 1742 954 c 2,83,-1
 2446 954 l 1,84,-1
 2446 840 l 1,0,-1
1652 204 m 2,85,-1
 1652 566 l 2,86,87
 1652 648 1652 648 1562 648 c 0,88,89
 1468 648 1468 648 1468 566 c 2,90,-1
 1468 204 l 2,91,92
 1468 120 1468 120 1558 120 c 0,93,94
 1652 120 1652 120 1652 204 c 2,85,-1
1016 204 m 2,95,-1
 1016 566 l 2,96,97
 1016 650 1016 650 926 650 c 0,98,99
 832 650 832 650 832 566 c 2,100,-1
 832 204 l 2,101,102
 832 120 832 120 922 120 c 0,103,104
 1016 120 1016 120 1016 204 c 2,95,-1
378 204 m 2,105,-1
 378 382 l 2,106,107
 378 468 378 468 288 468 c 0,108,109
 196 468 196 468 196 382 c 2,110,-1
 196 204 l 2,111,112
 196 168 196 168 223 143 c 128,-1,113
 250 118 250 118 288 118 c 0,114,115
 324 118 324 118 351 142 c 128,-1,116
 378 166 378 166 378 204 c 2,105,-1
EndSplineSet
EndChar

StartChar: tm_ta
Encoding: 2980 2980 69
Width: 1290
GlyphClass: 2
Flags: W
LayerCount: 2
Fore
SplineSet
1210 156 m 2,0,1
 1210 -32 1210 -32 1052 -150 c 0,2,3
 918 -250 918 -250 758 -250 c 2,4,-1
 324 -250 l 2,5,6
 280 -250 280 -250 245 -276 c 128,-1,7
 210 -302 210 -302 210 -344 c 2,8,-1
 210 -524 l 1,9,-1
 54 -524 l 1,10,-1
 54 -344 l 2,11,12
 54 -136 54 -136 324 -136 c 2,13,-1
 758 -136 l 2,14,15
 860 -136 860 -136 957 -52 c 128,-1,16
 1054 32 1054 32 1054 132 c 2,17,-1
 1054 340 l 2,18,19
 1054 476 1054 476 918 476 c 2,20,-1
 804 476 l 1,21,-1
 804 292 l 2,22,23
 804 0 804 0 394 0 c 0,24,25
 256 0 256 0 152 64 c 0,26,27
 32 140 32 140 32 270 c 2,28,-1
 32 454 l 2,29,30
 32 492 32 492 68 546 c 1,31,-1
 104 578 l 2,32,33
 122 590 122 590 144 590 c 2,34,-1
 234 590 l 1,35,-1
 234 954 l 1,36,-1
 1074 954 l 1,37,-1
 1074 840 l 1,38,-1
 804 840 l 1,39,-1
 804 590 l 1,40,-1
 938 590 l 2,41,42
 1052 590 1052 590 1124 544 c 0,43,44
 1210 488 1210 488 1210 382 c 2,45,-1
 1210 156 l 2,0,1
644 590 m 1,46,-1
 644 840 l 1,47,-1
 394 840 l 1,48,-1
 394 590 l 1,49,-1
 644 590 l 1,46,-1
644 270 m 2,50,-1
 644 476 l 1,51,-1
 258 476 l 2,52,53
 210 476 210 476 210 430 c 2,54,-1
 210 250 l 2,55,56
 210 210 210 210 276 156 c 1,57,58
 342 114 342 114 418 114 c 0,59,60
 490 114 490 114 562 154 c 0,61,62
 644 202 644 202 644 270 c 2,50,-1
EndSplineSet
EndChar

StartChar: tm_na
Encoding: 2984 2984 70
Width: 1128
GlyphClass: 2
Flags: W
LayerCount: 2
Fore
SplineSet
1004 0 m 2,0,1
 1004 -250 1004 -250 618 -250 c 2,2,-1
 208 -250 l 2,3,4
 70 -250 70 -250 70 -344 c 2,5,-1
 70 -524 l 1,6,-1
 -62 -524 l 1,7,-1
 -62 -344 l 2,8,9
 -62 -136 -62 -136 188 -136 c 2,10,-1
 640 -136 l 2,11,12
 724 -136 724 -136 794 -88 c 1,13,14
 844 -44 844 -44 844 20 c 2,15,-1
 844 204 l 2,16,17
 844 358 844 358 732 358 c 0,18,19
 652 358 652 358 594 270 c 1,20,-1
 594 0 l 1,21,-1
 438 0 l 1,22,-1
 438 840 l 1,23,-1
 188 840 l 1,24,-1
 188 0 l 1,25,-1
 28 0 l 1,26,-1
 28 954 l 1,27,-1
 868 954 l 1,28,-1
 868 840 l 1,29,-1
 594 840 l 1,30,-1
 594 406 l 1,31,32
 658 470 658 470 756 470 c 0,33,34
 860 470 860 470 932 400 c 128,-1,35
 1004 330 1004 330 1004 226 c 2,36,-1
 1004 0 l 2,0,1
EndSplineSet
EndChar

StartChar: tm_nnna
Encoding: 2985 2985 71
Width: 1868
GlyphClass: 2
Flags: W
LayerCount: 2
Fore
SplineSet
1804 840 m 1,0,-1
 1532 840 l 1,1,-1
 1532 0 l 1,2,-1
 1376 0 l 1,3,-1
 1376 840 l 1,4,-1
 1192 840 l 2,5,6
 1102 840 1102 840 1054 792 c 1,7,8
 1168 690 1168 690 1168 542 c 2,9,-1
 1168 226 l 2,10,11
 1168 124 1168 124 1095 65 c 128,-1,12
 1022 6 1022 6 916 6 c 0,13,14
 820 6 820 6 744 61 c 128,-1,15
 668 116 668 116 668 226 c 2,16,-1
 668 542 l 2,17,18
 668 656 668 656 804 792 c 1,19,20
 738 840 738 840 626 840 c 2,21,-1
 442 840 l 2,22,23
 338 840 338 840 265 755 c 128,-1,24
 192 670 192 670 192 566 c 1,25,26
 254 628 254 628 338 628 c 0,27,28
 416 628 416 628 474 568 c 128,-1,29
 532 508 532 508 532 430 c 2,30,-1
 532 226 l 2,31,32
 532 124 532 124 459 65 c 128,-1,33
 386 6 386 6 280 6 c 0,34,35
 184 6 184 6 108 61 c 128,-1,36
 32 116 32 116 32 226 c 2,37,-1
 32 520 l 2,38,39
 32 678 32 678 159 816 c 128,-1,40
 286 954 286 954 442 954 c 2,41,-1
 668 954 l 1,42,-1
 726 948 l 1,43,-1
 766 940 l 1,44,-1
 808 926 l 2,45,46
 856 910 856 910 918 882 c 1,47,-1
 998 928 l 1,48,-1
 1078 954 l 1,49,-1
 1804 954 l 1,50,-1
 1804 840 l 1,0,-1
1008 204 m 2,51,-1
 1008 566 l 2,52,53
 1008 654 1008 654 922 654 c 0,54,55
 884 654 884 654 856 629 c 128,-1,56
 828 604 828 604 828 566 c 2,57,-1
 828 204 l 2,58,59
 828 116 828 116 920 116 c 0,60,61
 1008 116 1008 116 1008 204 c 2,51,-1
376 204 m 2,62,-1
 376 382 l 1,63,64
 328 476 328 476 282 476 c 0,65,66
 252 476 252 476 222 444 c 128,-1,67
 192 412 192 412 192 382 c 2,68,-1
 192 204 l 2,69,70
 192 116 192 116 282 116 c 0,71,72
 376 116 376 116 376 204 c 2,62,-1
EndSplineSet
EndChar

StartChar: tm_pa
Encoding: 2986 2986 72
Width: 1082
GlyphClass: 2
Flags: W
LayerCount: 2
Fore
SplineSet
960 0 m 1,0,-1
 50 0 l 1,1,-1
 50 954 l 1,2,-1
 210 954 l 1,3,-1
 210 114 l 1,4,-1
 800 114 l 1,5,-1
 800 954 l 1,6,-1
 960 954 l 1,7,-1
 960 0 l 1,0,-1
EndSplineSet
EndChar

StartChar: tm_ma
Encoding: 2990 2990 73
Width: 1266
GlyphClass: 2
Flags: W
LayerCount: 2
Fore
SplineSet
1140 180 m 2,0,1
 1140 0 1140 0 984 0 c 2,2,-1
 28 0 l 1,3,-1
 28 954 l 1,4,-1
 188 954 l 1,5,-1
 188 114 l 1,6,-1
 574 114 l 1,7,-1
 574 770 l 2,8,9
 574 846 574 846 645 900 c 128,-1,10
 716 954 716 954 848 954 c 0,11,12
 1140 954 1140 954 1140 632 c 2,13,-1
 1140 180 l 2,0,1
984 226 m 2,14,-1
 984 632 l 2,15,16
 984 840 984 840 848 840 c 0,17,18
 806 840 806 840 760 798 c 1,19,20
 734 766 734 766 734 726 c 2,21,-1
 734 114 l 1,22,-1
 914 114 l 2,23,24
 984 114 984 114 984 226 c 2,14,-1
EndSplineSet
EndChar

StartChar: tm_ya
Encoding: 2991 2991 74
Width: 1336
GlyphClass: 2
Flags: W
LayerCount: 2
Fore
SplineSet
1210 0 m 1,0,-1
 438 0 l 1,1,-1
 438 132 l 1,2,3
 394 74 394 74 318 37 c 128,-1,4
 242 0 242 0 168 0 c 256,5,6
 94 0 94 0 66 20 c 0,7,8
 32 44 32 44 32 114 c 2,9,-1
 32 954 l 1,10,-1
 188 954 l 1,11,-1
 188 156 l 1,12,13
 200 106 200 106 270 106 c 0,14,15
 334 106 334 106 383 156 c 128,-1,16
 432 206 432 206 438 270 c 1,17,-1
 438 954 l 1,18,-1
 598 954 l 1,19,-1
 598 114 l 1,20,-1
 1040 116 l 1,21,-1
 1040 956 l 1,22,-1
 1210 954 l 1,23,-1
 1210 0 l 1,0,-1
EndSplineSet
EndChar

StartChar: tm_ra
Encoding: 2992 2992 75
Width: 922
GlyphClass: 2
Flags: W
LayerCount: 2
Fore
SplineSet
868 840 m 1,0,-1
 594 840 l 1,1,-1
 594 0 l 1,2,-1
 344 -274 l 1,3,-1
 254 -184 l 1,4,-1
 438 20 l 1,5,-1
 438 840 l 1,6,-1
 188 840 l 1,7,-1
 188 0 l 1,8,-1
 28 0 l 1,9,-1
 28 954 l 1,10,-1
 868 954 l 1,11,-1
 868 840 l 1,0,-1
EndSplineSet
EndChar

StartChar: tm_rra
Encoding: 2993 2993 76
Width: 1200
GlyphClass: 2
Flags: W
LayerCount: 2
Fore
SplineSet
1074 156 m 2,0,1
 1074 -250 1074 -250 640 -250 c 2,2,-1
 234 -250 l 2,3,4
 190 -250 190 -250 156 -275 c 128,-1,5
 122 -300 122 -300 122 -344 c 2,6,-1
 122 -524 l 1,7,-1
 -40 -524 l 1,8,-1
 -40 -344 l 2,9,10
 -40 -240 -40 -240 48 -184 c 0,11,12
 124 -136 124 -136 234 -136 c 2,13,-1
 664 -136 l 2,14,15
 914 -136 914 -136 914 204 c 2,16,-1
 914 632 l 2,17,18
 914 698 914 698 870 764 c 0,19,20
 820 840 820 840 754 840 c 0,21,22
 700 840 700 840 642 780 c 1,23,24
 598 718 598 718 598 632 c 2,25,-1
 598 0 l 1,26,-1
 438 0 l 1,27,-1
 438 680 l 2,28,29
 438 730 438 730 404 785 c 128,-1,30
 370 840 370 840 324 840 c 0,31,32
 280 840 280 840 234 793 c 128,-1,33
 188 746 188 746 188 704 c 2,34,-1
 188 0 l 1,35,-1
 28 0 l 1,36,-1
 28 704 l 2,37,38
 28 784 28 784 80 848 c 0,39,40
 130 906 130 906 208 934 c 0,41,42
 264 954 264 954 300 954 c 0,43,44
 404 954 404 954 486 882 c 0,45,46
 538 838 538 838 550 792 c 1,47,48
 610 954 610 954 778 954 c 0,49,50
 910 954 910 954 992 860 c 128,-1,51
 1074 766 1074 766 1074 632 c 2,52,-1
 1074 156 l 2,0,1
EndSplineSet
EndChar

StartChar: tm_la
Encoding: 2994 2994 77
Width: 1430
GlyphClass: 2
Flags: W
LayerCount: 2
Fore
SplineSet
1304 292 m 2,0,1
 1304 166 1304 166 1208 83 c 128,-1,2
 1112 0 1112 0 984 0 c 0,3,4
 846 0 846 0 762 64 c 0,5,6
 668 136 668 136 668 270 c 2,7,-1
 668 632 l 2,8,9
 668 698 668 698 622 766 c 0,10,11
 570 840 570 840 508 840 c 2,12,-1
 438 840 l 2,13,14
 332 840 332 840 260 756 c 128,-1,15
 188 672 188 672 188 566 c 1,16,17
 248 630 248 630 338 630 c 0,18,19
 382 630 382 630 404 620 c 2,20,-1
 442 602 l 1,21,-1
 472 578 l 1,22,23
 532 520 532 520 532 430 c 2,24,-1
 532 226 l 2,25,26
 532 146 532 146 447 73 c 128,-1,27
 362 0 362 0 282 0 c 0,28,29
 176 0 176 0 104 62 c 128,-1,30
 32 124 32 124 32 226 c 2,31,-1
 32 520 l 2,32,33
 32 678 32 678 157 816 c 128,-1,34
 282 954 282 954 438 954 c 2,35,-1
 532 954 l 2,36,37
 666 954 666 954 748 858 c 0,38,39
 824 768 824 768 824 632 c 2,40,-1
 824 270 l 2,41,42
 824 210 824 210 872 158 c 1,43,44
 922 118 922 118 986 118 c 0,45,46
 1054 118 1054 118 1099 160 c 128,-1,47
 1144 202 1144 202 1144 270 c 2,48,-1
 1144 632 l 2,49,50
 1144 724 1144 724 1094 800 c 128,-1,51
 1044 876 1044 876 960 906 c 1,52,-1
 1032 1000 l 1,53,54
 1156 960 1156 960 1230 861 c 128,-1,55
 1304 762 1304 762 1304 632 c 2,56,-1
 1304 292 l 2,0,1
372 204 m 2,57,-1
 372 382 l 2,58,59
 372 470 372 470 280 470 c 256,60,61
 188 470 188 470 188 382 c 2,62,-1
 188 204 l 2,63,64
 188 168 188 168 215 143 c 128,-1,65
 242 118 242 118 280 118 c 256,66,67
 318 118 318 118 345 142 c 128,-1,68
 372 166 372 166 372 204 c 2,57,-1
EndSplineSet
EndChar

StartChar: tm_lla
Encoding: 2995 2995 78
Width: 1614
GlyphClass: 2
Flags: W
LayerCount: 2
Fore
SplineSet
1554 840 m 1,0,-1
 1282 840 l 1,1,-1
 1282 0 l 1,2,-1
 1126 0 l 1,3,-1
 1126 840 l 1,4,-1
 1008 840 l 2,5,6
 950 840 950 840 913 801 c 128,-1,7
 876 762 876 762 876 704 c 2,8,-1
 876 0 l 1,9,-1
 714 0 l 1,10,-1
 714 656 l 2,11,12
 714 712 714 712 674 772 c 0,13,14
 632 840 632 840 578 840 c 2,15,-1
 442 840 l 2,16,17
 330 840 330 840 261 760 c 128,-1,18
 192 680 192 680 192 566 c 1,19,20
 254 628 254 628 338 628 c 0,21,22
 416 628 416 628 474 568 c 128,-1,23
 532 508 532 508 532 430 c 2,24,-1
 532 226 l 2,25,26
 532 126 532 126 457 66 c 128,-1,27
 382 6 382 6 278 6 c 256,28,29
 174 6 174 6 106 64 c 0,30,31
 32 124 32 124 32 226 c 2,32,-1
 32 520 l 2,33,34
 32 684 32 684 156 819 c 128,-1,35
 280 954 280 954 442 954 c 2,36,-1
 554 954 l 2,37,38
 682 954 682 954 778 840 c 1,39,40
 856 954 856 954 988 954 c 2,41,-1
 1554 954 l 1,42,-1
 1554 840 l 1,0,-1
376 204 m 2,43,-1
 376 382 l 2,44,45
 376 408 376 408 346 444 c 1,46,-1
 320 464 l 2,47,48
 304 476 304 476 282 476 c 0,49,50
 252 476 252 476 222 444 c 128,-1,51
 192 412 192 412 192 382 c 2,52,-1
 192 204 l 2,53,54
 192 116 192 116 282 116 c 0,55,56
 376 116 376 116 376 204 c 2,43,-1
EndSplineSet
EndChar

StartChar: tm_llla
Encoding: 2996 2996 79
Width: 1266
GlyphClass: 2
Flags: W
LayerCount: 2
Fore
SplineSet
1140 180 m 2,0,1
 1140 0 1140 0 984 0 c 2,2,-1
 28 0 l 1,3,-1
 28 954 l 1,4,-1
 188 954 l 1,5,-1
 188 114 l 1,6,-1
 574 114 l 1,7,-1
 574 770 l 2,8,9
 574 846 574 846 645 900 c 128,-1,10
 716 954 716 954 848 954 c 0,11,12
 1140 954 1140 954 1140 632 c 2,13,-1
 1140 180 l 2,0,1
1098 -250 m 1,14,-1
 734 -250 l 1,15,16
 698 -570 698 -570 324 -570 c 0,17,18
 218 -570 218 -570 130 -510 c 0,19,20
 28 -444 28 -444 28 -344 c 2,21,-1
 28 -296 l 2,22,23
 28 -244 28 -244 64 -198 c 1,24,25
 102 -160 102 -160 140 -160 c 1,26,-1
 210 -250 l 1,27,-1
 188 -274 l 2,28,29
 168 -296 168 -296 168 -332 c 0,30,31
 168 -370 168 -370 218 -420 c 1,32,33
 268 -458 268 -458 324 -458 c 0,34,35
 442 -458 442 -458 496 -406 c 0,36,37
 518 -384 518 -384 550 -302 c 128,-1,38
 582 -220 582 -220 622 -184 c 1,39,40
 574 -136 574 -136 574 0 c 1,41,-1
 734 0 l 1,42,43
 734 -106 734 -106 778 -136 c 1,44,-1
 1098 -136 l 1,45,-1
 1098 -250 l 1,14,-1
984 226 m 2,46,-1
 984 632 l 2,47,48
 984 840 984 840 848 840 c 0,49,50
 806 840 806 840 760 798 c 1,51,52
 734 766 734 766 734 726 c 2,53,-1
 734 114 l 1,54,-1
 914 114 l 2,55,56
 984 114 984 114 984 226 c 2,46,-1
EndSplineSet
EndChar

StartChar: tm_va
Encoding: 2997 2997 80
Width: 1566
GlyphClass: 2
Flags: W
LayerCount: 2
Fore
SplineSet
1442 0 m 1,0,-1
 644 0 l 1,1,-1
 644 132 l 1,2,3
 706 172 706 172 756 288 c 0,4,5
 804 396 804 396 804 476 c 0,6,7
 804 610 804 610 748 714 c 0,8,9
 678 840 678 840 554 840 c 2,10,-1
 442 840 l 2,11,12
 346 840 346 840 269 763 c 128,-1,13
 192 686 192 686 192 590 c 1,14,15
 240 638 240 638 314 638 c 0,16,17
 398 638 398 638 465 576 c 128,-1,18
 532 514 532 514 532 430 c 2,19,-1
 532 226 l 2,20,21
 532 146 532 146 447 73 c 128,-1,22
 362 0 362 0 282 0 c 0,23,24
 176 0 176 0 104 62 c 128,-1,25
 32 124 32 124 32 226 c 2,26,-1
 32 520 l 2,27,28
 32 688 32 688 154 821 c 128,-1,29
 276 954 276 954 442 954 c 2,30,-1
 578 954 l 2,31,32
 768 954 768 954 872 804 c 0,33,34
 964 674 964 674 964 476 c 0,35,36
 964 274 964 274 804 114 c 1,37,-1
 1282 114 l 1,38,-1
 1282 954 l 1,39,-1
 1442 954 l 1,40,-1
 1442 0 l 1,0,-1
376 204 m 2,41,-1
 376 382 l 2,42,43
 376 426 376 426 350 449 c 128,-1,44
 324 472 324 472 286 472 c 0,45,46
 192 472 192 472 192 382 c 2,47,-1
 192 204 l 2,48,49
 192 116 192 116 282 116 c 0,50,51
 376 116 376 116 376 204 c 2,41,-1
EndSplineSet
EndChar

StartChar: tm_ssa
Encoding: 2999 2999 81
Width: 1844
GlyphClass: 2
Flags: W
LayerCount: 2
Fore
SplineSet
1714 20 m 2,0,1
 1714 2 1714 2 1692 0 c 2,2,-1
 1352 0 l 1,3,-1
 1102 -546 l 1,4,-1
 964 -500 l 1,5,-1
 1192 0 l 1,6,-1
 644 0 l 1,7,-1
 644 114 l 1,8,9
 706 158 706 158 755 266 c 128,-1,10
 804 374 804 374 804 454 c 0,11,12
 804 588 804 588 746 700 c 0,13,14
 676 840 676 840 554 840 c 2,15,-1
 442 840 l 2,16,17
 346 840 346 840 269 752 c 128,-1,18
 192 664 192 664 192 566 c 1,19,20
 254 628 254 628 338 628 c 0,21,22
 416 628 416 628 474 568 c 128,-1,23
 532 508 532 508 532 430 c 2,24,-1
 532 226 l 2,25,26
 532 130 532 130 440 62 c 0,27,28
 358 0 358 0 258 0 c 0,29,30
 166 0 166 0 99 67 c 128,-1,31
 32 134 32 134 32 226 c 2,32,-1
 32 520 l 2,33,34
 32 688 32 688 154 821 c 128,-1,35
 276 954 276 954 442 954 c 2,36,-1
 578 954 l 2,37,38
 746 954 746 954 864 802 c 0,39,40
 966 670 966 670 966 474 c 0,41,42
 966 234 966 234 804 114 c 1,43,-1
 1238 114 l 1,44,-1
 1352 340 l 1,45,46
 1238 356 1238 356 1164 416 c 0,47,48
 1078 484 1078 484 1078 590 c 2,49,-1
 1078 750 l 2,50,51
 1078 832 1078 832 1146 898 c 0,52,53
 1204 954 1204 954 1282 954 c 2,54,-1
 1394 954 l 2,55,56
 1460 954 1460 954 1519 897 c 128,-1,57
 1578 840 1578 840 1578 770 c 2,58,-1
 1578 542 l 2,59,60
 1578 458 1578 458 1532 406 c 1,61,62
 1614 358 1614 358 1664 278 c 1,63,64
 1690 228 1690 228 1702 194 c 128,-1,65
 1714 160 1714 160 1714 132 c 2,66,-1
 1714 20 l 2,0,1
1418 542 m 2,67,-1
 1418 770 l 2,68,69
 1418 838 1418 838 1328 838 c 256,70,71
 1238 838 1238 838 1238 770 c 2,72,-1
 1238 542 l 2,73,74
 1238 512 1238 512 1266 494 c 128,-1,75
 1294 476 1294 476 1332 476 c 0,76,77
 1418 476 1418 476 1418 542 c 2,67,-1
1560 156 m 1,78,79
 1560 228 1560 228 1488 292 c 1,80,-1
 1394 114 l 1,81,-1
 1554 114 l 1,82,-1
 1560 156 l 1,78,79
376 204 m 2,83,-1
 376 382 l 2,84,85
 376 470 376 470 282 470 c 0,86,87
 246 470 246 470 219 443 c 128,-1,88
 192 416 192 416 192 382 c 2,89,-1
 192 204 l 2,90,91
 192 174 192 174 224 142 c 0,92,93
 244 126 244 126 282 114 c 1,94,95
 310 114 310 114 343 145 c 128,-1,96
 376 176 376 176 376 204 c 2,83,-1
EndSplineSet
EndChar

StartChar: tm_sa
Encoding: 3000 3000 82
Width: 1914
GlyphClass: 2
Flags: W
LayerCount: 2
Fore
SplineSet
1786 292 m 2,0,1
 1786 158 1786 158 1682 78 c 0,2,3
 1586 2 1586 2 1450 2 c 0,4,5
 1324 2 1324 2 1236 74 c 128,-1,6
 1148 146 1148 146 1148 270 c 2,7,-1
 1148 656 l 2,8,9
 1148 716 1148 716 1112 774 c 0,10,11
 1070 840 1070 840 1012 840 c 2,12,-1
 964 840 l 2,13,14
 918 840 918 840 873 786 c 128,-1,15
 828 732 828 732 828 680 c 2,16,-1
 828 0 l 1,17,-1
 672 0 l 1,18,-1
 672 614 l 2,19,20
 672 682 672 682 626 756 c 0,21,22
 576 840 576 840 512 840 c 2,23,-1
 442 840 l 2,24,25
 354 840 354 840 273 759 c 128,-1,26
 192 678 192 678 192 590 c 1,27,28
 238 632 238 632 376 632 c 0,29,30
 442 632 442 632 492 562 c 0,31,32
 536 498 536 498 536 430 c 2,33,-1
 536 226 l 2,34,35
 536 126 536 126 458 62 c 0,36,37
 388 4 388 4 284 4 c 0,38,39
 178 4 178 4 107 63 c 128,-1,40
 36 122 36 122 36 226 c 2,41,-1
 36 520 l 2,42,43
 36 694 36 694 153 824 c 128,-1,44
 270 954 270 954 442 954 c 2,45,-1
 536 954 l 2,46,47
 644 954 644 954 738 792 c 1,48,49
 768 854 768 854 844 904 c 128,-1,50
 920 954 920 954 988 954 c 2,51,-1
 1058 954 l 2,52,53
 1164 954 1164 954 1236 871 c 128,-1,54
 1308 788 1308 788 1308 680 c 2,55,-1
 1308 250 l 2,56,57
 1308 198 1308 198 1350 150 c 1,58,59
 1394 116 1394 116 1450 116 c 0,60,61
 1516 116 1516 116 1571 161 c 128,-1,62
 1626 206 1626 206 1626 270 c 2,63,-1
 1626 632 l 2,64,65
 1626 724 1626 724 1576 800 c 128,-1,66
 1526 876 1526 876 1442 906 c 1,67,-1
 1512 1000 l 1,68,69
 1638 962 1638 962 1712 863 c 128,-1,70
 1786 764 1786 764 1786 632 c 2,71,-1
 1786 292 l 2,0,1
376 204 m 2,72,-1
 376 382 l 2,73,74
 376 470 376 470 284 470 c 256,75,76
 192 470 192 470 192 382 c 2,77,-1
 192 204 l 2,78,79
 192 168 192 168 222 141 c 128,-1,80
 252 114 252 114 286 114 c 256,81,82
 320 114 320 114 348 142 c 128,-1,83
 376 170 376 170 376 204 c 2,72,-1
EndSplineSet
EndChar

StartChar: tm_ha
Encoding: 3001 3001 83
Width: 2308
GlyphClass: 2
Flags: W
LayerCount: 2
Fore
SplineSet
2176 156 m 2,0,1
 2176 -250 2176 -250 1742 -250 c 2,2,-1
 468 -250 l 2,3,4
 384 -250 384 -250 356 -344 c 1,5,-1
 356 -524 l 1,6,-1
 196 -524 l 1,7,-1
 196 -344 l 2,8,9
 196 -240 196 -240 284 -184 c 0,10,11
 358 -136 358 -136 468 -136 c 2,12,-1
 1766 -136 l 2,13,14
 1898 -136 1898 -136 1964 -28 c 0,15,16
 2016 62 2016 62 2016 204 c 2,17,-1
 2016 632 l 2,18,19
 2016 708 2016 708 1974 770 c 0,20,21
 1928 840 1928 840 1856 840 c 0,22,23
 1696 840 1696 840 1696 632 c 2,24,-1
 1696 0 l 1,25,-1
 1540 0 l 1,26,-1
 1540 680 l 2,27,28
 1540 840 1540 840 1426 840 c 0,29,30
 1366 840 1366 840 1322 790 c 1,31,-1
 1304 760 l 1,32,-1
 1290 704 l 1,33,-1
 1290 0 l 1,34,-1
 652 0 l 1,35,-1
 652 114 l 1,36,37
 712 156 712 156 762 264 c 128,-1,38
 812 372 812 372 812 454 c 0,39,40
 812 588 812 588 754 700 c 0,41,42
 684 840 684 840 562 840 c 2,43,-1
 446 840 l 2,44,45
 348 840 348 840 272 753 c 128,-1,46
 196 666 196 666 196 566 c 1,47,48
 258 628 258 628 344 628 c 0,49,50
 424 628 424 628 482 569 c 128,-1,51
 540 510 540 510 540 430 c 2,52,-1
 540 250 l 2,53,54
 540 148 540 148 456 77 c 128,-1,55
 372 6 372 6 270 6 c 256,56,57
 168 6 168 6 104 66 c 128,-1,58
 40 126 40 126 40 226 c 2,59,-1
 40 520 l 2,60,61
 40 692 40 692 158 823 c 128,-1,62
 276 954 276 954 446 954 c 2,63,-1
 562 954 l 2,64,65
 730 954 730 954 849 829 c 128,-1,66
 968 704 968 704 968 476 c 0,67,68
 968 374 968 374 930 276 c 0,69,70
 888 166 888 166 812 114 c 1,71,-1
 1128 114 l 1,72,-1
 1128 704 l 2,73,74
 1128 804 1128 804 1214 879 c 128,-1,75
 1300 954 1300 954 1402 954 c 0,76,77
 1516 954 1516 954 1594 882 c 0,78,79
 1652 828 1652 828 1652 792 c 1,80,-1
 1676 836 l 2,81,82
 1698 876 1698 876 1744 912 c 0,83,84
 1798 954 1798 954 1878 954 c 0,85,86
 2014 954 2014 954 2098 860 c 0,87,88
 2176 770 2176 770 2176 632 c 2,89,-1
 2176 156 l 2,0,1
378 204 m 2,90,-1
 378 382 l 2,91,92
 378 470 378 470 288 470 c 0,93,94
 196 470 196 470 196 382 c 2,95,-1
 196 204 l 2,96,97
 196 116 196 116 284 116 c 0,98,99
 318 116 318 116 348 143 c 128,-1,100
 378 170 378 170 378 204 c 2,90,-1
EndSplineSet
EndChar

StartChar: tm_aakaar
Encoding: 3006 3006 84
Width: 922
GlyphClass: 2
Flags: W
LayerCount: 2
Fore
SplineSet
868 840 m 1,0,-1
 594 840 l 1,1,-1
 594 0 l 1,2,-1
 438 0 l 1,3,-1
 438 840 l 1,4,-1
 188 840 l 1,5,-1
 188 0 l 1,6,-1
 28 0 l 1,7,-1
 28 954 l 1,8,-1
 868 954 l 1,9,-1
 868 840 l 1,0,-1
EndSplineSet
EndChar

StartChar: tm_ikaar
Encoding: 3007 3007 85
Width: 300
GlyphClass: 2
Flags: W
LayerCount: 2
Fore
SplineSet
180 0 m 1,0,-1
 20 0 l 1,1,-1
 20 1000 l 2,2,3
 20 1142 20 1142 -68 1241 c 128,-1,4
 -156 1340 -156 1340 -296 1340 c 2,5,-1
 -386 1340 l 2,6,7
 -468 1340 -468 1340 -552 1267 c 128,-1,8
 -636 1194 -636 1194 -636 1114 c 2,9,-1
 -636 1066 l 2,10,11
 -636 1006 -636 1006 -594 954 c 1,12,-1
 -750 954 l 1,13,14
 -796 996 -796 996 -796 1066 c 2,15,-1
 -796 1114 l 2,16,17
 -796 1264 -796 1264 -654 1364 c 0,18,19
 -524 1454 -524 1454 -368 1454 c 2,20,-1
 -274 1454 l 2,21,22
 -86 1454 -86 1454 47 1321 c 128,-1,23
 180 1188 180 1188 180 1000 c 2,24,-1
 180 0 l 1,0,-1
EndSplineSet
EndChar

StartChar: tm_iikaar
Encoding: 3008 3008 86
Width: 100
GlyphClass: 4
Flags: W
LayerCount: 2
Fore
SplineSet
66 1204 m 2,0,1
 66 1158 66 1158 18 1112 c 128,-1,2
 -30 1066 -30 1066 -94 1066 c 2,3,-1
 -184 1066 l 2,4,5
 -264 1066 -264 1066 -312 1120 c 128,-1,6
 -360 1174 -360 1174 -360 1254 c 0,7,8
 -360 1292 -360 1292 -356 1300 c 2,9,-1
 -344 1340 l 1,10,11
 -400 1340 -400 1340 -450 1288 c 128,-1,12
 -500 1236 -500 1236 -500 1180 c 2,13,-1
 -500 1132 l 2,14,15
 -500 1062 -500 1062 -434 954 c 1,16,-1
 -594 954 l 1,17,-1
 -638 1042 l 1,18,-1
 -652 1092 l 1,19,-1
 -660 1132 l 1,20,-1
 -660 1204 l 2,21,22
 -660 1318 -660 1318 -556 1390 c 0,23,24
 -462 1454 -462 1454 -344 1454 c 2,25,-1
 -218 1454 l 2,26,27
 -108 1454 -108 1454 -32 1416 c 0,28,29
 66 1368 66 1368 66 1270 c 2,30,-1
 66 1204 l 2,0,1
-94 1250 m 2,31,-1
 -94 1292 l 2,32,33
 -94 1358 -94 1358 -160 1358 c 0,34,35
 -230 1358 -230 1358 -230 1292 c 2,36,-1
 -230 1250 l 2,37,38
 -230 1180 -230 1180 -160 1180 c 0,39,40
 -94 1180 -94 1180 -94 1250 c 2,31,-1
EndSplineSet
EndChar

StartChar: tm_ukaar
Encoding: 3009 3009 87
Width: 790
GlyphClass: 4
Flags: W
LayerCount: 2
Fore
SplineSet
688 442 m 1,0,-1
 120 442 l 1,1,-1
 120 828 l 1,2,-1
 -392 828 l 1,3,-1
 -392 942 l 1,4,-1
 688 942 l 1,5,-1
 688 442 l 1,0,-1
532 554 m 1,6,-1
 532 828 l 1,7,-1
 282 828 l 1,8,-1
 282 554 l 1,9,-1
 532 554 l 1,6,-1
EndSplineSet
EndChar

StartChar: tm_uukaar
Encoding: 3010 3010 88
Width: 1280
GlyphClass: 4
Flags: W
LayerCount: 2
Fore
SplineSet
1148 580 m 2,0,1
 1148 -10 1148 -10 464 -10 c 0,2,3
 326 -10 326 -10 168 88 c 0,4,5
 20 182 20 182 -58 306 c 1,6,-1
 12 372 l 1,7,8
 174 122 174 122 464 122 c 0,9,10
 782 122 782 122 902 264 c 0,11,12
 926 294 926 294 966 384 c 1,13,-1
 982 460 l 1,14,-1
 988 556 l 1,15,-1
 988 806 l 2,16,17
 988 964 988 964 888 1096 c 0,18,19
 778 1240 778 1240 624 1240 c 0,20,21
 492 1240 492 1240 398 1155 c 128,-1,22
 304 1070 304 1070 304 940 c 1,23,-1
 714 940 l 1,24,-1
 714 440 l 1,25,-1
 148 440 l 1,26,-1
 148 826 l 1,27,-1
 -388 826 l 1,28,-1
 -388 940 l 1,29,-1
 148 940 l 1,30,31
 148 1150 148 1150 296 1266 c 0,32,33
 432 1372 432 1372 648 1372 c 0,34,35
 862 1372 862 1372 1005 1220 c 128,-1,36
 1148 1068 1148 1068 1148 854 c 2,37,-1
 1148 580 l 2,0,1
554 552 m 1,38,-1
 554 826 l 1,39,-1
 304 826 l 1,40,-1
 304 552 l 1,41,-1
 554 552 l 1,38,-1
EndSplineSet
EndChar

StartChar: tm_ekaar
Encoding: 3014 3014 89
Width: 1382
GlyphClass: 2
Flags: W
LayerCount: 2
Fore
SplineSet
1258 0 m 1,0,-1
 1098 0 l 1,1,-1
 1098 976 l 2,2,3
 1098 1150 1098 1150 954 1262 c 0,4,5
 822 1364 822 1364 644 1364 c 0,6,7
 454 1364 454 1364 316 1182 c 0,8,9
 188 1012 188 1012 188 816 c 0,10,11
 188 554 188 554 284 352 c 0,12,13
 364 184 364 184 508 114 c 1,14,-1
 476 188 l 1,15,-1
 464 246 l 1,16,-1
 460 292 l 1,17,-1
 460 430 l 2,18,19
 460 522 460 522 519 589 c 128,-1,20
 578 656 578 656 668 656 c 2,21,-1
 734 656 l 2,22,23
 828 656 828 656 894 590 c 128,-1,24
 960 524 960 524 960 430 c 2,25,-1
 960 270 l 2,26,27
 960 0 960 0 598 0 c 0,28,29
 32 0 32 0 32 816 c 0,30,31
 32 1102 32 1102 194 1284 c 0,32,33
 362 1476 362 1476 644 1476 c 0,34,35
 906 1476 906 1476 1070 1360 c 0,36,37
 1258 1228 1258 1228 1258 976 c 2,38,-1
 1258 0 l 1,0,-1
804 204 m 2,39,-1
 804 454 l 2,40,41
 804 536 804 536 712 536 c 0,42,43
 622 536 622 536 622 454 c 2,44,-1
 622 204 l 2,45,46
 622 116 622 116 712 116 c 0,47,48
 804 116 804 116 804 204 c 2,39,-1
EndSplineSet
EndChar

StartChar: tm_eekaar
Encoding: 3015 3015 90
Width: 1128
GlyphClass: 2
Flags: W
LayerCount: 2
Fore
SplineSet
1004 270 m 2,0,1
 1004 150 1004 150 894 68 c 0,2,3
 802 0 802 0 664 0 c 2,4,-1
 574 0 l 2,5,6
 350 0 350 0 182 234 c 0,7,8
 28 448 28 448 28 680 c 2,9,-1
 28 840 l 2,10,11
 28 1122 28 1122 216 1299 c 128,-1,12
 404 1476 404 1476 688 1476 c 2,13,-1
 778 1476 l 2,14,15
 872 1476 872 1476 938 1406 c 128,-1,16
 1004 1336 1004 1336 1004 1250 c 2,17,-1
 1004 1156 l 2,18,19
 1004 1040 1004 1040 950 966 c 0,20,21
 890 882 890 882 778 882 c 2,22,-1
 710 882 l 2,23,24
 618 882 618 882 561 947 c 128,-1,25
 504 1012 504 1012 504 1114 c 2,26,-1
 504 1226 l 2,27,28
 504 1318 504 1318 550 1364 c 1,29,30
 380 1320 380 1320 280 1152 c 0,31,32
 188 1000 188 1000 188 816 c 2,33,-1
 188 680 l 2,34,35
 188 500 188 500 294 324 c 0,36,37
 410 136 410 136 574 90 c 1,38,39
 562 102 562 102 530 178 c 1,40,-1
 504 292 l 1,41,-1
 504 430 l 2,42,43
 504 522 504 522 562 589 c 128,-1,44
 620 656 620 656 710 656 c 2,45,-1
 778 656 l 2,46,47
 872 656 872 656 938 590 c 128,-1,48
 1004 524 1004 524 1004 430 c 2,49,-1
 1004 270 l 2,0,1
848 1090 m 1,50,-1
 848 1270 l 2,51,52
 848 1308 848 1308 820 1331 c 128,-1,53
 792 1354 792 1354 754 1354 c 0,54,55
 664 1354 664 1354 664 1270 c 2,56,-1
 664 1090 l 2,57,58
 664 1062 664 1062 695 1034 c 128,-1,59
 726 1006 726 1006 754 1000 c 1,60,61
 784 1000 784 1000 813 1030 c 128,-1,62
 842 1060 842 1060 848 1090 c 1,50,-1
848 204 m 2,63,-1
 848 454 l 2,64,65
 848 536 848 536 754 536 c 0,66,67
 664 536 664 536 664 454 c 2,68,-1
 664 204 l 2,69,70
 664 116 664 116 754 116 c 0,71,72
 848 116 848 116 848 204 c 2,63,-1
EndSplineSet
EndChar

StartChar: tm_aikaar
Encoding: 3016 3016 91
Width: 1708
GlyphClass: 2
Flags: W
LayerCount: 2
Fore
SplineSet
1578 382 m 2,0,1
 1578 326 1578 326 1564 258 c 0,2,3
 1554 216 1554 216 1520 148 c 0,4,5
 1464 38 1464 38 1376 0 c 1,6,7
 1338 0 1338 0 1298 27 c 128,-1,8
 1258 54 1258 54 1258 90 c 1,9,10
 1324 134 1324 134 1371 212 c 128,-1,11
 1418 290 1418 290 1418 364 c 2,12,-1
 1418 542 l 2,13,14
 1418 620 1418 620 1356 726 c 0,15,16
 1286 840 1286 840 1214 840 c 2,17,-1
 1192 840 l 2,18,19
 1102 840 1102 840 1054 816 c 1,20,21
 1086 784 1086 784 1136 690 c 1,22,-1
 1160 614 l 1,23,-1
 1168 542 l 1,24,-1
 1168 226 l 2,25,26
 1168 120 1168 120 1090 58 c 0,27,28
 1020 2 1020 2 916 2 c 0,29,30
 808 2 808 2 738 61 c 128,-1,31
 668 120 668 120 668 226 c 2,32,-1
 668 542 l 2,33,34
 668 680 668 680 804 816 c 1,35,36
 758 840 758 840 644 840 c 2,37,-1
 464 840 l 2,38,39
 360 840 360 840 276 767 c 128,-1,40
 192 694 192 694 192 590 c 1,41,42
 240 638 240 638 316 638 c 0,43,44
 400 638 400 638 466 575 c 128,-1,45
 532 512 532 512 532 430 c 2,46,-1
 532 226 l 2,47,48
 532 150 532 150 445 75 c 128,-1,49
 358 0 358 0 282 0 c 0,50,51
 176 0 176 0 104 62 c 128,-1,52
 32 124 32 124 32 226 c 2,53,-1
 32 520 l 2,54,55
 32 680 32 680 157 817 c 128,-1,56
 282 954 282 954 442 954 c 2,57,-1
 692 954 l 1,58,-1
 744 948 l 1,59,-1
 776 940 l 1,60,-1
 818 926 l 2,61,62
 886 904 886 904 918 882 c 1,63,-1
 998 928 l 1,64,-1
 1078 954 l 1,65,-1
 1144 954 l 2,66,67
 1578 954 1578 954 1578 520 c 2,68,-1
 1578 382 l 2,0,1
1008 204 m 2,69,-1
 1008 566 l 2,70,71
 1008 650 1008 650 920 650 c 0,72,73
 828 650 828 650 828 566 c 2,74,-1
 828 204 l 2,75,76
 828 168 828 168 855 143 c 128,-1,77
 882 118 882 118 918 118 c 0,78,79
 1008 118 1008 118 1008 204 c 2,69,-1
376 204 m 2,80,-1
 376 382 l 2,81,82
 376 470 376 470 282 470 c 0,83,84
 246 470 246 470 219 443 c 128,-1,85
 192 416 192 416 192 382 c 2,86,-1
 192 204 l 2,87,88
 192 174 192 174 224 142 c 0,89,90
 244 126 244 126 282 114 c 1,91,92
 310 114 310 114 343 145 c 128,-1,93
 376 176 376 176 376 204 c 2,80,-1
EndSplineSet
EndChar

StartChar: tm_okaar
Encoding: 3018 3018 92
Width: 2272
GlyphClass: 2
Flags: W
LayerCount: 2
Fore
SplineSet
2228 840 m 1,0,-1
 1954 840 l 1,1,-1
 1954 0 l 1,2,-1
 1798 0 l 1,3,-1
 1798 840 l 1,4,-1
 1548 840 l 1,5,-1
 1548 0 l 1,6,-1
 1388 0 l 1,7,-1
 1388 954 l 1,8,-1
 2228 954 l 1,9,-1
 2228 840 l 1,0,-1
1258 0 m 1,10,-1
 1098 0 l 1,11,-1
 1098 976 l 2,12,13
 1098 1150 1098 1150 954 1262 c 0,14,15
 822 1364 822 1364 644 1364 c 0,16,17
 454 1364 454 1364 316 1182 c 0,18,19
 188 1012 188 1012 188 816 c 0,20,21
 188 554 188 554 284 352 c 0,22,23
 364 184 364 184 508 114 c 1,24,-1
 476 188 l 1,25,-1
 464 246 l 1,26,-1
 460 292 l 1,27,-1
 460 430 l 2,28,29
 460 522 460 522 519 589 c 128,-1,30
 578 656 578 656 668 656 c 2,31,-1
 734 656 l 2,32,33
 828 656 828 656 894 590 c 128,-1,34
 960 524 960 524 960 430 c 2,35,-1
 960 270 l 2,36,37
 960 0 960 0 598 0 c 0,38,39
 32 0 32 0 32 816 c 0,40,41
 32 1102 32 1102 194 1284 c 0,42,43
 362 1476 362 1476 644 1476 c 0,44,45
 906 1476 906 1476 1070 1360 c 0,46,47
 1258 1228 1258 1228 1258 976 c 2,48,-1
 1258 0 l 1,10,-1
804 204 m 2,49,-1
 804 454 l 2,50,51
 804 536 804 536 712 536 c 0,52,53
 622 536 622 536 622 454 c 2,54,-1
 622 204 l 2,55,56
 622 116 622 116 712 116 c 0,57,58
 804 116 804 116 804 204 c 2,49,-1
EndSplineSet
EndChar

StartChar: tm_ookaar
Encoding: 3019 3019 93
Width: 2028
GlyphClass: 2
Flags: W
LayerCount: 2
Fore
SplineSet
1968 840 m 1,0,-1
 1694 840 l 1,1,-1
 1694 0 l 1,2,-1
 1538 0 l 1,3,-1
 1538 840 l 1,4,-1
 1288 840 l 1,5,-1
 1288 0 l 1,6,-1
 1128 0 l 1,7,-1
 1128 954 l 1,8,-1
 1968 954 l 1,9,-1
 1968 840 l 1,0,-1
1004 270 m 2,10,11
 1004 150 1004 150 894 68 c 0,12,13
 802 0 802 0 664 0 c 2,14,-1
 574 0 l 2,15,16
 350 0 350 0 182 234 c 0,17,18
 28 448 28 448 28 680 c 2,19,-1
 28 840 l 2,20,21
 28 1122 28 1122 216 1299 c 128,-1,22
 404 1476 404 1476 688 1476 c 2,23,-1
 778 1476 l 2,24,25
 872 1476 872 1476 938 1406 c 128,-1,26
 1004 1336 1004 1336 1004 1250 c 2,27,-1
 1004 1156 l 2,28,29
 1004 1040 1004 1040 950 966 c 0,30,31
 890 882 890 882 778 882 c 2,32,-1
 710 882 l 2,33,34
 618 882 618 882 561 947 c 128,-1,35
 504 1012 504 1012 504 1114 c 2,36,-1
 504 1226 l 2,37,38
 504 1318 504 1318 550 1364 c 1,39,40
 380 1320 380 1320 280 1152 c 0,41,42
 188 1000 188 1000 188 816 c 2,43,-1
 188 680 l 2,44,45
 188 500 188 500 294 324 c 0,46,47
 410 136 410 136 574 90 c 1,48,49
 562 102 562 102 530 178 c 1,50,-1
 504 292 l 1,51,-1
 504 430 l 2,52,53
 504 522 504 522 562 589 c 128,-1,54
 620 656 620 656 710 656 c 2,55,-1
 778 656 l 2,56,57
 872 656 872 656 938 590 c 128,-1,58
 1004 524 1004 524 1004 430 c 2,59,-1
 1004 270 l 2,10,11
848 1090 m 1,60,-1
 848 1270 l 2,61,62
 848 1308 848 1308 820 1331 c 128,-1,63
 792 1354 792 1354 754 1354 c 0,64,65
 664 1354 664 1354 664 1270 c 2,66,-1
 664 1090 l 2,67,68
 664 1062 664 1062 695 1034 c 128,-1,69
 726 1006 726 1006 754 1000 c 1,70,71
 784 1000 784 1000 813 1030 c 128,-1,72
 842 1060 842 1060 848 1090 c 1,60,-1
848 204 m 2,73,-1
 848 454 l 2,74,75
 848 536 848 536 754 536 c 0,76,77
 664 536 664 536 664 454 c 2,78,-1
 664 204 l 2,79,80
 664 116 664 116 754 116 c 0,81,82
 848 116 848 116 848 204 c 2,73,-1
EndSplineSet
EndChar

StartChar: tm_aukaar
Encoding: 3020 3020 94
Width: 2988
GlyphClass: 2
Flags: W
LayerCount: 2
Fore
SplineSet
2914 840 m 1,0,-1
 2642 840 l 1,1,-1
 2642 0 l 1,2,-1
 2486 0 l 1,3,-1
 2486 840 l 1,4,-1
 2368 840 l 2,5,6
 2310 840 2310 840 2273 801 c 128,-1,7
 2236 762 2236 762 2236 704 c 2,8,-1
 2236 0 l 1,9,-1
 2074 0 l 1,10,-1
 2074 656 l 2,11,12
 2074 712 2074 712 2034 772 c 0,13,14
 1992 840 1992 840 1938 840 c 2,15,-1
 1802 840 l 2,16,17
 1690 840 1690 840 1621 760 c 128,-1,18
 1552 680 1552 680 1552 566 c 1,19,20
 1614 628 1614 628 1698 628 c 0,21,22
 1776 628 1776 628 1834 568 c 128,-1,23
 1892 508 1892 508 1892 430 c 2,24,-1
 1892 226 l 2,25,26
 1892 126 1892 126 1817 66 c 128,-1,27
 1742 6 1742 6 1638 6 c 256,28,29
 1534 6 1534 6 1466 64 c 0,30,31
 1392 124 1392 124 1392 226 c 2,32,-1
 1392 520 l 2,33,34
 1392 684 1392 684 1516 819 c 128,-1,35
 1640 954 1640 954 1802 954 c 2,36,-1
 1914 954 l 2,37,38
 2042 954 2042 954 2138 840 c 1,39,40
 2216 954 2216 954 2348 954 c 2,41,-1
 2914 954 l 1,42,-1
 2914 840 l 1,0,-1
1258 0 m 1,43,-1
 1098 0 l 1,44,-1
 1098 976 l 2,45,46
 1098 1150 1098 1150 954 1262 c 0,47,48
 822 1364 822 1364 644 1364 c 0,49,50
 454 1364 454 1364 316 1182 c 0,51,52
 188 1012 188 1012 188 816 c 0,53,54
 188 554 188 554 284 352 c 0,55,56
 364 184 364 184 508 114 c 1,57,-1
 476 188 l 1,58,-1
 464 246 l 1,59,-1
 460 292 l 1,60,-1
 460 430 l 2,61,62
 460 522 460 522 519 589 c 128,-1,63
 578 656 578 656 668 656 c 2,64,-1
 734 656 l 2,65,66
 828 656 828 656 894 590 c 128,-1,67
 960 524 960 524 960 430 c 2,68,-1
 960 270 l 2,69,70
 960 0 960 0 598 0 c 0,71,72
 32 0 32 0 32 816 c 0,73,74
 32 1102 32 1102 194 1284 c 0,75,76
 362 1476 362 1476 644 1476 c 0,77,78
 906 1476 906 1476 1070 1360 c 0,79,80
 1258 1228 1258 1228 1258 976 c 2,81,-1
 1258 0 l 1,43,-1
1736 204 m 2,82,-1
 1736 382 l 2,83,84
 1736 408 1736 408 1706 444 c 1,85,-1
 1680 464 l 2,86,87
 1664 476 1664 476 1642 476 c 0,88,89
 1612 476 1612 476 1582 444 c 128,-1,90
 1552 412 1552 412 1552 382 c 2,91,-1
 1552 204 l 2,92,93
 1552 116 1552 116 1642 116 c 0,94,95
 1736 116 1736 116 1736 204 c 2,82,-1
804 204 m 2,96,-1
 804 454 l 2,97,98
 804 536 804 536 712 536 c 0,99,100
 622 536 622 536 622 454 c 2,101,-1
 622 204 l 2,102,103
 622 116 622 116 712 116 c 0,104,105
 804 116 804 116 804 204 c 2,96,-1
EndSplineSet
EndChar

StartChar: tm_halant
Encoding: 3021 3021 95
Width: 20
GlyphClass: 4
Flags: W
LayerCount: 2
Fore
SplineSet
-434 1490 m 1,0,-1
 -590 1490 l 1,1,-1
 -590 1686 l 1,2,-1
 -434 1686 l 1,3,-1
 -434 1490 l 1,0,-1
EndSplineSet
EndChar

StartChar: tm_au_lengthmk
Encoding: 3031 3031 96
Width: 1614
GlyphClass: 2
Flags: W
LayerCount: 2
Fore
SplineSet
1554 840 m 1,0,-1
 1282 840 l 1,1,-1
 1282 0 l 1,2,-1
 1126 0 l 1,3,-1
 1126 840 l 1,4,-1
 1008 840 l 2,5,6
 950 840 950 840 913 801 c 128,-1,7
 876 762 876 762 876 704 c 2,8,-1
 876 0 l 1,9,-1
 714 0 l 1,10,-1
 714 656 l 2,11,12
 714 712 714 712 674 772 c 0,13,14
 632 840 632 840 578 840 c 2,15,-1
 442 840 l 2,16,17
 330 840 330 840 261 760 c 128,-1,18
 192 680 192 680 192 566 c 1,19,20
 254 628 254 628 338 628 c 0,21,22
 416 628 416 628 474 568 c 128,-1,23
 532 508 532 508 532 430 c 2,24,-1
 532 226 l 2,25,26
 532 126 532 126 457 66 c 128,-1,27
 382 6 382 6 278 6 c 256,28,29
 174 6 174 6 106 64 c 0,30,31
 32 124 32 124 32 226 c 2,32,-1
 32 520 l 2,33,34
 32 684 32 684 156 819 c 128,-1,35
 280 954 280 954 442 954 c 2,36,-1
 554 954 l 2,37,38
 682 954 682 954 778 840 c 1,39,40
 856 954 856 954 988 954 c 2,41,-1
 1554 954 l 1,42,-1
 1554 840 l 1,0,-1
376 204 m 2,43,-1
 376 382 l 2,44,45
 376 408 376 408 346 444 c 1,46,-1
 320 464 l 2,47,48
 304 476 304 476 282 476 c 0,49,50
 252 476 252 476 222 444 c 128,-1,51
 192 412 192 412 192 382 c 2,52,-1
 192 204 l 2,53,54
 192 116 192 116 282 116 c 0,55,56
 376 116 376 116 376 204 c 2,43,-1
EndSplineSet
EndChar

StartChar: tm_one
Encoding: 3047 3047 97
Width: 1376
GlyphClass: 2
Flags: W
LayerCount: 2
Fore
SplineSet
1266 286 m 0,0,1
 1268 174 1268 174 1175 94 c 128,-1,2
 1082 14 1082 14 968 12 c 0,3,4
 920 12 920 12 832 42 c 1,5,-1
 832 164 l 1,6,-1
 890 140 l 1,7,-1
 960 132 l 1,8,9
 1040 132 1040 132 1097 171 c 128,-1,10
 1154 210 1154 210 1156 286 c 0,11,12
 1158 370 1158 370 1104 419 c 128,-1,13
 1050 468 1050 468 964 468 c 2,14,-1
 792 468 l 1,15,-1
 792 286 l 2,16,17
 792 146 792 146 686 68 c 0,18,19
 592 -2 592 -2 446 -4 c 0,20,21
 282 -6 282 -6 162 94 c 0,22,23
 34 200 34 200 32 360 c 0,24,25
 32 438 32 438 78 504 c 0,26,27
 130 578 130 578 204 578 c 2,28,-1
 250 578 l 1,29,-1
 250 964 l 1,30,-1
 1110 964 l 1,31,-1
 1110 856 l 1,32,-1
 792 856 l 1,33,-1
 792 578 l 1,34,-1
 1012 578 l 2,35,36
 1120 578 1120 578 1192 487 c 128,-1,37
 1264 396 1264 396 1266 286 c 0,0,1
684 578 m 1,38,-1
 684 856 l 1,39,-1
 360 856 l 1,40,-1
 360 578 l 1,41,-1
 684 578 l 1,38,-1
684 336 m 2,42,-1
 684 468 l 1,43,-1
 250 468 l 2,44,45
 222 468 222 468 180 424 c 1,46,47
 152 384 152 384 152 336 c 0,48,49
 150 244 150 244 254 172 c 0,50,51
 350 106 350 106 446 106 c 0,52,53
 684 106 684 106 684 336 c 2,42,-1
EndSplineSet
EndChar

StartChar: tm_two
Encoding: 3048 3048 98
Width: 1672
GlyphClass: 2
Flags: W
LayerCount: 2
Fore
SplineSet
1574 -4 m 1,0,-1
 254 -4 l 2,1,2
 26 -4 26 -4 24 164 c 0,3,4
 24 244 24 244 88 292 c 0,5,6
 146 336 146 336 230 336 c 2,7,-1
 484 336 l 2,8,9
 584 336 584 336 674 412 c 0,10,11
 698 432 698 432 736 484 c 0,12,13
 738 490 738 490 752 516 c 0,14,15
 754 524 754 524 762 566 c 1,16,17
 762 702 762 702 678 778 c 128,-1,18
 594 854 594 854 456 856 c 0,19,20
 370 858 370 858 276 810 c 0,21,22
 158 750 158 750 152 656 c 0,23,24
 148 594 148 594 210 494 c 1,25,26
 284 452 284 452 284 406 c 0,27,28
 284 380 284 380 250 378 c 0,29,30
 164 374 164 374 102 430 c 0,31,32
 72 458 72 458 48 520 c 128,-1,33
 24 582 24 582 24 626 c 0,34,35
 22 800 22 800 170 890 c 0,36,37
 218 920 218 920 304 944 c 1,38,39
 418 964 418 964 460 964 c 0,40,41
 628 966 628 966 749 856 c 128,-1,42
 870 746 870 746 872 578 c 0,43,44
 874 434 874 434 736 326 c 0,45,46
 608 226 608 226 460 226 c 2,47,-1
 230 226 l 2,48,49
 122 226 122 226 122 164 c 0,50,51
 122 106 122 106 230 106 c 2,52,-1
 1574 106 l 1,53,-1
 1574 -4 l 1,0,-1
EndSplineSet
EndChar

StartChar: tm_three
Encoding: 3049 3049 99
Width: 1488
GlyphClass: 2
Flags: W
LayerCount: 2
Fore
SplineSet
1380 -4 m 1,0,-1
 464 -4 l 1,1,-1
 464 106 l 1,2,-1
 730 106 l 1,3,4
 898 152 898 152 898 360 c 0,5,6
 898 426 898 426 838 472 c 0,7,8
 786 512 786 512 716 514 c 0,9,10
 644 516 644 516 574 446 c 1,11,-1
 574 262 l 1,12,-1
 464 262 l 1,13,-1
 464 856 l 1,14,-1
 136 856 l 1,15,-1
 136 -4 l 1,16,-1
 28 -4 l 1,17,-1
 28 964 l 1,18,-1
 864 964 l 1,19,-1
 864 856 l 1,20,-1
 574 856 l 1,21,-1
 574 590 l 1,22,23
 640 644 640 644 730 646 c 0,24,25
 844 648 844 648 937 567 c 128,-1,26
 1030 486 1030 486 1032 372 c 0,27,28
 1034 194 1034 194 922 106 c 1,29,-1
 1380 104 l 1,30,-1
 1380 -4 l 1,0,-1
EndSplineSet
EndChar

StartChar: tm_four
Encoding: 3050 3050 100
Width: 1466
GlyphClass: 2
Flags: W
LayerCount: 2
Fore
SplineSet
1414 468 m 1,0,-1
 792 468 l 1,1,-1
 792 286 l 2,2,3
 792 146 792 146 686 68 c 0,4,5
 592 -2 592 -2 446 -4 c 0,6,7
 282 -6 282 -6 162 94 c 0,8,9
 34 200 34 200 32 360 c 0,10,11
 32 444 32 444 74 508 c 0,12,13
 124 578 124 578 204 578 c 2,14,-1
 250 578 l 1,15,-1
 250 964 l 1,16,-1
 1110 964 l 1,17,-1
 1110 856 l 1,18,-1
 792 856 l 1,19,-1
 792 578 l 1,20,-1
 1304 576 l 1,21,-1
 1304 958 l 1,22,-1
 1414 958 l 1,23,-1
 1414 468 l 1,0,-1
684 578 m 1,24,-1
 684 856 l 1,25,-1
 360 856 l 1,26,-1
 360 578 l 1,27,-1
 684 578 l 1,24,-1
684 336 m 2,28,-1
 684 468 l 1,29,-1
 250 468 l 2,30,31
 208 468 208 468 178 426 c 1,32,-1
 162 390 l 1,33,34
 162 366 162 366 152 336 c 1,35,36
 152 246 152 246 256 172 c 0,37,38
 350 106 350 106 446 106 c 0,39,40
 684 106 684 106 684 336 c 2,28,-1
EndSplineSet
EndChar

StartChar: tm_five
Encoding: 3051 3051 101
Width: 1762
GlyphClass: 2
Flags: W
LayerCount: 2
Fore
SplineSet
1640 94 m 0,0,1
 1642 -184 1642 -184 1392 -372 c 0,2,3
 1164 -544 1164 -544 878 -546 c 0,4,5
 540 -548 540 -548 296 -330 c 0,6,7
 42 -102 42 -102 32 226 c 2,8,-1
 30 290 l 2,9,10
 24 462 24 462 76 620 c 0,11,12
 144 830 144 830 262 926 c 0,13,14
 274 938 274 938 292 938 c 0,15,16
 340 938 340 938 342 888 c 1,17,-1
 336 868 l 1,18,19
 126 638 126 638 138 294 c 2,20,-1
 140 238 l 2,21,22
 152 -82 152 -82 370 -262 c 0,23,24
 566 -424 566 -424 868 -426 c 0,25,26
 1110 -428 1110 -428 1308 -292 c 0,27,28
 1530 -140 1530 -140 1532 94 c 0,29,30
 1534 214 1534 214 1472 320 c 0,31,32
 1402 444 1402 444 1290 446 c 0,33,34
 1152 448 1152 448 1074 296 c 1,35,-1
 1074 -4 l 1,36,-1
 964 -4 l 1,37,-1
 964 856 l 1,38,-1
 684 856 l 1,39,-1
 684 -4 l 1,40,-1
 578 -4 l 1,41,-1
 578 964 l 1,42,-1
 1352 964 l 1,43,-1
 1352 856 l 1,44,-1
 1074 856 l 1,45,-1
 1074 430 l 1,46,47
 1086 470 1086 470 1170 518 c 0,48,49
 1206 538 1206 538 1234 542 c 2,50,-1
 1300 550 l 1,51,52
 1446 550 1446 550 1554 412 c 1,53,54
 1638 278 1638 278 1640 94 c 0,0,1
EndSplineSet
EndChar

StartChar: tm_six
Encoding: 3052 3052 102
Width: 1992
GlyphClass: 2
Flags: W
LayerCount: 2
Fore
SplineSet
1862 476 m 1,0,-1
 1666 476 l 1,1,-1
 1666 -4 l 1,2,-1
 1556 -4 l 1,3,-1
 1556 476 l 1,4,-1
 1278 476 l 1,5,-1
 1278 -4 l 1,6,-1
 1170 -4 l 1,7,-1
 1170 90 l 2,8,9
 1170 218 1170 218 1156 286 c 1,10,11
 1158 370 1158 370 1104 419 c 128,-1,12
 1050 468 1050 468 964 468 c 2,13,-1
 792 468 l 1,14,-1
 792 286 l 2,15,16
 792 146 792 146 686 68 c 0,17,18
 592 -2 592 -2 446 -4 c 0,19,20
 282 -6 282 -6 162 94 c 0,21,22
 34 200 34 200 32 360 c 0,23,24
 32 438 32 438 78 504 c 0,25,26
 130 578 130 578 204 578 c 2,27,-1
 250 578 l 1,28,-1
 250 964 l 1,29,-1
 1110 964 l 1,30,-1
 1110 856 l 1,31,-1
 792 856 l 1,32,-1
 792 578 l 1,33,-1
 1012 578 l 2,34,35
 1094 578 1094 578 1170 508 c 1,36,-1
 1170 584 l 1,37,-1
 1862 584 l 1,38,-1
 1862 476 l 1,0,-1
684 578 m 1,39,-1
 684 856 l 1,40,-1
 360 856 l 1,41,-1
 360 578 l 1,42,-1
 684 578 l 1,39,-1
684 336 m 2,43,-1
 684 468 l 1,44,-1
 250 468 l 2,45,46
 222 468 222 468 180 424 c 1,47,48
 152 384 152 384 152 336 c 0,49,50
 150 244 150 244 254 172 c 0,51,52
 350 106 350 106 446 106 c 0,53,54
 684 106 684 106 684 336 c 2,43,-1
EndSplineSet
EndChar

StartChar: tm_seven
Encoding: 3053 3053 103
Width: 1488
GlyphClass: 2
Flags: W
LayerCount: 2
Fore
SplineSet
1430 832 m 1,0,-1
 1070 832 l 1,1,-1
 1070 -4 l 1,2,-1
 950 -4 l 1,3,-1
 950 832 l 1,4,-1
 536 832 l 2,5,6
 394 832 394 832 268 724 c 0,7,8
 254 712 254 712 180 604 c 1,9,-1
 156 538 l 1,10,-1
 148 468 l 1,11,12
 238 594 238 594 426 598 c 0,13,14
 560 600 560 600 644 521 c 128,-1,15
 728 442 728 442 730 308 c 0,16,17
 732 170 732 170 630 76 c 0,18,19
 544 -2 544 -2 442 -4 c 0,20,21
 254 -6 254 -6 138 134 c 0,22,23
 30 266 30 266 28 458 c 0,24,25
 26 666 26 666 176 810 c 128,-1,26
 326 954 326 954 536 954 c 2,27,-1
 1430 954 l 1,28,-1
 1430 832 l 1,0,-1
622 286 m 0,29,30
 622 348 622 348 562 413 c 128,-1,31
 502 478 502 478 442 480 c 0,32,33
 364 482 364 482 300 423 c 128,-1,34
 236 364 236 364 234 286 c 0,35,36
 232 220 232 220 290 156 c 1,37,38
 344 114 344 114 422 112 c 0,39,40
 504 110 504 110 563 158 c 128,-1,41
 622 206 622 206 622 286 c 0,29,30
EndSplineSet
EndChar

StartChar: tm_eight
Encoding: 3054 3054 104
Width: 2036
GlyphClass: 2
Flags: W
LayerCount: 2
Fore
SplineSet
1922 -320 m 1,0,-1
 1816 -320 l 1,1,-1
 1816 140 l 1,2,-1
 1494 140 l 1,3,4
 1384 -52 1384 -52 1170 -158 c 0,5,6
 974 -256 974 -256 738 -258 c 0,7,8
 522 -260 522 -260 296 -156 c 0,9,10
 26 -32 26 -32 24 164 c 0,11,12
 22 262 22 262 180 262 c 2,13,-1
 1420 262 l 1,14,15
 1452 360 1452 360 1454 468 c 0,16,17
 1458 614 1458 614 1353 737 c 128,-1,18
 1248 860 1248 860 1104 862 c 0,19,20
 1080 862 1080 862 1004 844 c 1,21,22
 978 844 978 844 920 790 c 0,23,24
 868 744 868 744 848 712 c 1,25,26
 842 684 842 684 830 626 c 1,27,28
 830 574 830 574 862 540 c 0,29,30
 942 452 942 452 978 436 c 0,31,32
 988 432 988 432 1026 406 c 0,33,34
 1058 382 1058 382 1070 382 c 0,35,36
 1076 382 1076 382 1082 388 c 1,37,38
 1080 360 1080 360 1094 334 c 0,39,40
 1098 328 1098 328 1116 304 c 1,41,42
 1114 300 1114 300 1110 298 c 0,43,44
 1094 284 1094 284 1074 284 c 0,45,46
 1052 284 1052 284 1018 300 c 2,47,-1
 950 332 l 2,48,49
 886 358 886 358 770 478 c 1,50,51
 716 552 716 552 714 648 c 0,52,53
 712 798 712 798 856 888 c 0,54,55
 974 962 974 962 1114 964 c 0,56,57
 1318 968 1318 968 1446 810 c 0,58,59
 1564 668 1564 668 1574 458 c 1,60,-1
 1568 356 l 2,61,62
 1566 336 1566 336 1560 312 c 2,63,-1
 1546 262 l 1,64,-1
 1816 262 l 1,65,-1
 1816 942 l 1,66,-1
 1922 942 l 1,67,-1
 1922 -320 l 1,0,-1
1360 140 m 1,68,-1
 144 140 l 1,69,70
 186 8 186 8 378 -76 c 0,71,72
 542 -148 542 -148 726 -148 c 0,73,74
 916 -148 916 -148 1080 -80 c 0,75,76
 1266 -4 1266 -4 1360 140 c 1,68,-1
EndSplineSet
EndChar

StartChar: tm_nine
Encoding: 3055 3055 105
Width: 1928
GlyphClass: 2
Flags: W
LayerCount: 2
Fore
SplineSet
1816 -4 m 1,0,-1
 1528 -4 l 1,1,-1
 1528 102 l 1,2,3
 1662 158 1662 158 1664 386 c 0,4,5
 1664 492 1664 492 1560 566 c 0,6,7
 1468 632 1468 632 1356 634 c 0,8,9
 1236 636 1236 636 1168 558 c 1,10,11
 1272 558 1272 558 1358 462 c 1,12,13
 1418 378 1418 378 1420 256 c 0,14,15
 1422 140 1422 140 1360 65 c 128,-1,16
 1298 -10 1298 -10 1184 -12 c 0,17,18
 1034 -14 1034 -14 960 86 c 1,19,-1
 938 126 l 2,20,21
 930 146 930 146 914 184 c 1,22,23
 900 240 900 240 898 316 c 0,24,25
 896 396 896 396 932 468 c 1,26,-1
 786 468 l 1,27,-1
 786 286 l 2,28,29
 786 146 786 146 676 68 c 0,30,31
 580 -2 580 -2 434 -4 c 0,32,33
 272 -6 272 -6 152 94 c 0,34,35
 24 200 24 200 24 360 c 0,36,37
 24 444 24 444 68 506 c 0,38,39
 118 578 118 578 196 578 c 2,40,-1
 242 578 l 1,41,-1
 242 964 l 1,42,-1
 1102 964 l 1,43,-1
 1102 856 l 1,44,-1
 786 856 l 1,45,-1
 786 578 l 1,46,-1
 998 578 l 1,47,48
 1138 748 1138 748 1378 750 c 0,49,50
 1540 752 1540 752 1663 621 c 128,-1,51
 1786 490 1786 490 1786 326 c 0,52,53
 1786 226 1786 226 1714 106 c 1,54,-1
 1804 106 l 1,55,-1
 1816 -4 l 1,0,-1
1296 282 m 1,56,57
 1278 470 1278 470 1098 472 c 0,58,59
 1078 472 1078 472 1040 422 c 1,60,61
 1016 374 1016 374 1016 304 c 0,62,63
 1016 108 1016 108 1176 106 c 0,64,65
 1296 104 1296 104 1296 282 c 1,56,57
676 578 m 1,66,-1
 676 856 l 1,67,-1
 352 856 l 1,68,-1
 352 578 l 1,69,-1
 676 578 l 1,66,-1
676 336 m 2,70,-1
 676 468 l 1,71,-1
 242 468 l 2,72,73
 200 468 200 468 170 426 c 1,74,-1
 154 390 l 1,75,76
 154 366 154 366 144 336 c 1,77,78
 144 246 144 246 246 174 c 0,79,80
 340 106 340 106 434 106 c 0,81,82
 676 106 676 106 676 336 c 2,70,-1
EndSplineSet
EndChar

StartChar: tm_ten
Encoding: 3056 3056 106
Width: 1638
GlyphClass: 2
Flags: W
LayerCount: 2
Fore
SplineSet
1526 522 m 0,0,1
 1526 362 1526 362 1470 226 c 0,2,3
 1408 72 1408 72 1286 -4 c 0,4,5
 1090 -126 1090 -126 850 -124 c 256,6,7
 610 -122 610 -122 534 0 c 0,8,9
 512 36 512 36 478 132 c 1,10,11
 434 72 434 72 353 31 c 128,-1,12
 272 -10 272 -10 198 -10 c 0,13,14
 28 -12 28 -12 28 140 c 2,15,-1
 28 964 l 1,16,-1
 136 964 l 1,17,-1
 136 204 l 2,18,19
 136 106 136 106 222 104 c 0,20,21
 304 102 304 102 372 174 c 0,22,23
 432 238 432 238 454 324 c 1,24,-1
 454 964 l 1,25,-1
 570 966 l 1,26,27
 566 850 566 850 570 598 c 0,28,29
 568 528 568 528 576 350 c 1,30,31
 592 186 592 186 622 110 c 0,32,33
 662 14 662 14 758 0 c 0,34,35
 828 -10 828 -10 892 -10 c 0,36,37
 1224 -10 1224 -10 1342 242 c 0,38,39
 1404 376 1404 376 1404 530 c 0,40,41
 1404 878 1404 878 1096 1078 c 0,42,43
 954 1170 954 1170 648 1186 c 1,44,-1
 644 1294 l 1,45,46
 1000 1260 1000 1260 1164 1162 c 0,47,48
 1286 1088 1286 1088 1350 1012 c 0,49,50
 1526 810 1526 810 1526 522 c 0,0,1
EndSplineSet
EndChar

StartChar: tm_hundred
Encoding: 3057 3057 107
Width: 1476
GlyphClass: 2
Flags: W
LayerCount: 2
Fore
SplineSet
1392 856 m 1,0,-1
 1116 856 l 1,1,-1
 1116 8 l 1,2,-1
 1006 12 l 1,3,-1
 1006 856 l 1,4,-1
 728 856 l 1,5,-1
 728 -4 l 1,6,-1
 620 -4 l 1,7,-1
 620 816 l 1,8,9
 530 838 530 838 444 838 c 0,10,11
 264 838 264 838 204 720 c 0,12,13
 164 640 164 640 164 436 c 256,14,15
 164 232 164 232 208 -4 c 1,16,-1
 100 -4 l 1,17,18
 58 242 58 242 56 446 c 0,19,20
 54 788 54 788 170 872 c 0,21,22
 256 934 256 934 456 934 c 0,23,24
 540 934 540 934 620 924 c 1,25,-1
 620 964 l 1,26,-1
 1392 964 l 1,27,-1
 1392 856 l 1,0,-1
EndSplineSet
EndChar

StartChar: tm_thousand
Encoding: 3058 3058 108
Width: 1682
GlyphClass: 2
Flags: W
LayerCount: 2
Fore
SplineSet
1606 48 m 0,0,1
 1606 -68 1606 -68 1542 -136 c 0,2,3
 1450 -232 1450 -232 1302 -288 c 0,4,5
 1166 -340 1166 -340 1024 -340 c 0,6,7
 952 -340 952 -340 807 -323 c 128,-1,8
 662 -306 662 -306 590 -306 c 0,9,10
 466 -306 466 -306 430 -368 c 1,11,12
 400 -450 400 -450 398 -452 c 0,13,14
 372 -504 372 -504 336 -508 c 0,15,16
 262 -516 262 -516 220 -434 c 0,17,18
 192 -380 192 -380 192 -362 c 0,19,20
 192 -324 192 -324 264 -240 c 0,21,22
 302 -196 302 -196 472 -196 c 0,23,24
 568 -196 568 -196 762 -210 c 128,-1,25
 956 -224 956 -224 1052 -224 c 0,26,27
 1212 -224 1212 -224 1272 -190 c 2,28,-1
 1434 -98 l 1,29,30
 1496 -52 1496 -52 1496 36 c 0,31,32
 1496 118 1496 118 1426 166 c 0,33,34
 1364 208 1364 208 1278 210 c 0,35,36
 1220 212 1220 212 1148 166 c 1,37,-1
 1148 -4 l 1,38,-1
 1028 -4 l 1,39,-1
 1028 468 l 1,40,-1
 796 468 l 1,41,-1
 796 286 l 2,42,43
 796 146 796 146 690 68 c 0,44,45
 596 -2 596 -2 450 -4 c 0,46,47
 286 -6 286 -6 166 94 c 0,48,49
 38 200 38 200 36 360 c 0,50,51
 36 444 36 444 78 508 c 0,52,53
 128 578 128 578 208 578 c 2,54,-1
 254 578 l 1,55,-1
 254 964 l 1,56,-1
 1114 964 l 1,57,-1
 1114 856 l 1,58,-1
 796 856 l 1,59,-1
 796 578 l 1,60,-1
 1258 578 l 1,61,-1
 1258 468 l 1,62,-1
 1148 468 l 1,63,-1
 1148 288 l 1,64,65
 1226 324 1226 324 1296 324 c 0,66,67
 1420 324 1420 324 1510 250 c 0,68,69
 1606 170 1606 170 1606 48 c 0,0,1
692 578 m 1,70,-1
 692 856 l 1,71,-1
 364 856 l 1,72,-1
 364 578 l 1,73,-1
 692 578 l 1,70,-1
692 336 m 2,74,-1
 692 468 l 1,75,-1
 254 468 l 2,76,77
 212 468 212 468 182 426 c 1,78,-1
 166 390 l 1,79,80
 166 366 166 366 156 336 c 1,81,82
 156 246 156 246 260 172 c 0,83,84
 354 106 354 106 450 106 c 0,85,86
 692 106 692 106 692 336 c 2,74,-1
EndSplineSet
EndChar

StartChar: zerowidthnonjoiner
Encoding: 8204 8204 109
Width: 0
GlyphClass: 2
Flags: W
LayerCount: 2
Fore
SplineSet
315 1225 m 1,0,-1
 -34 -516 l 1,1,-1
 -103 -516 l 1,2,-1
 244 1225 l 1,3,-1
 315 1225 l 1,0,-1
EndSplineSet
EndChar

StartChar: zerowidthjoiner
Encoding: 8205 8205 110
Width: 0
GlyphClass: 2
Flags: W
LayerCount: 2
Fore
SplineSet
415 997 m 1,0,-1
 363 953 l 1,1,-1
 270 1073 l 1,2,-1
 -24 -441 l 1,3,-1
 -87 -441 l 1,4,-1
 206 1073 l 1,5,-1
 65 953 l 1,6,-1
 32 997 l 1,7,-1
 210 1145 l 1,8,-1
 89 1292 l 1,9,-1
 140 1334 l 1,10,-1
 260 1185 l 1,11,-1
 437 1334 l 1,12,-1
 472 1292 l 1,13,-1
 294 1145 l 1,14,-1
 415 997 l 1,0,-1
EndSplineSet
EndChar

StartChar: u2013
Encoding: 8211 8211 111
Width: 722
GlyphClass: 2
Flags: W
LayerCount: 2
Fore
SplineSet
733 319 m 1,0,-1
 -12 319 l 1,1,-1
 -12 370 l 1,2,-1
 733 370 l 1,3,-1
 733 319 l 1,0,-1
EndSplineSet
EndChar

StartChar: u2014
Encoding: 8212 8212 112
Width: 1284
GlyphClass: 2
Flags: W
LayerCount: 2
Fore
SplineSet
1296 318 m 1,0,-1
 -13 319 l 1,1,-1
 -13 371 l 1,2,-1
 1296 370 l 1,3,-1
 1296 318 l 1,0,-1
EndSplineSet
EndChar

StartChar: u2018
Encoding: 65539 -1 113
Width: 666
GlyphClass: 2
Flags: W
LayerCount: 2
Fore
SplineSet
478 962 m 1,0,1
 478 912 478 912 448 882 c 1,2,-1
 402 856 l 1,3,-1
 350 848 l 1,4,-1
 320 850 l 1,5,-1
 284 862 l 2,6,7
 260 874 260 874 238 896 c 1,8,-1
 192 966 l 1,9,10
 180 1000 180 1000 180 1040 c 0,11,12
 180 1160 180 1160 266 1250 c 1,13,-1
 336 1308 l 1,14,-1
 432 1354 l 1,15,-1
 432 1312 l 1,16,-1
 348 1252 l 1,17,-1
 296 1200 l 1,18,-1
 276 1158 l 1,19,-1
 270 1110 l 1,20,-1
 272 1082 l 2,21,22
 276 1068 276 1068 282 1064 c 2,23,-1
 292 1052 l 1,24,-1
 308 1048 l 1,25,-1
 318 1050 l 1,26,-1
 334 1056 l 1,27,-1
 358 1062 l 1,28,-1
 378 1064 l 1,29,30
 420 1064 420 1064 446 1038 c 1,31,32
 458 1032 458 1032 470 1002 c 1,33,-1
 478 962 l 1,0,1
EndSplineSet
EndChar

StartChar: u2019
Encoding: 65540 -1 114
Width: 666
GlyphClass: 2
Flags: W
LayerCount: 2
Fore
SplineSet
486 1162 m 1,0,1
 486 1048 486 1048 398 952 c 1,2,-1
 368 926 l 1,3,-1
 326 894 l 1,4,-1
 232 848 l 1,5,-1
 232 894 l 1,6,-1
 316 950 l 1,7,-1
 342 974 l 1,8,-1
 368 1006 l 1,9,-1
 386 1044 l 1,10,-1
 394 1094 l 2,11,12
 394 1114 394 1114 390 1122 c 2,13,-1
 382 1138 l 1,14,-1
 370 1150 l 1,15,-1
 358 1154 l 1,16,-1
 344 1152 l 1,17,-1
 330 1146 l 1,18,-1
 306 1140 l 1,19,-1
 288 1138 l 1,20,-1
 250 1144 l 2,21,22
 234 1150 234 1150 218 1166 c 1,23,-1
 196 1200 l 1,24,-1
 188 1240 l 1,25,-1
 194 1282 l 1,26,27
 210 1322 210 1322 254 1340 c 1,28,-1
 316 1354 l 1,29,30
 348 1354 348 1354 370 1340 c 2,31,-1
 434 1298 l 2,32,33
 460 1282 460 1282 472 1236 c 2,34,-1
 482 1200 l 1,35,-1
 486 1162 l 1,0,1
EndSplineSet
EndChar

StartChar: u201C
Encoding: 65541 -1 115
Width: 886
GlyphClass: 2
Flags: W
LayerCount: 2
Fore
SplineSet
830 968 m 1,0,1
 830 944 830 944 822 926 c 2,2,-1
 812 904 l 1,3,-1
 792 884 l 1,4,-1
 750 858 l 1,5,-1
 700 850 l 1,6,-1
 670 852 l 1,7,-1
 636 864 l 2,8,9
 612 876 612 876 590 898 c 1,10,-1
 544 968 l 1,11,12
 530 1006 530 1006 532 1044 c 2,13,-1
 534 1096 l 2,14,15
 536 1142 536 1142 593 1222 c 128,-1,16
 650 1302 650 1302 784 1350 c 1,17,-1
 784 1314 l 1,18,-1
 746 1290 l 1,19,-1
 702 1260 l 2,20,21
 648 1222 648 1222 630 1162 c 1,22,-1
 622 1106 l 1,23,-1
 624 1082 l 1,24,-1
 632 1066 l 1,25,-1
 644 1054 l 1,26,-1
 656 1052 l 1,27,-1
 668 1054 l 1,28,-1
 708 1066 l 1,29,-1
 730 1068 l 2,30,31
 774 1068 774 1068 800 1038 c 1,32,-1
 822 1006 l 1,33,-1
 830 968 l 1,0,1
362 964 m 1,34,35
 362 938 362 938 354 919 c 128,-1,36
 346 900 346 900 326 884 c 2,37,-1
 286 858 l 1,38,-1
 236 850 l 1,39,-1
 206 852 l 1,40,-1
 192 854 l 1,41,-1
 166 866 l 1,42,-1
 120 904 l 1,43,-1
 78 970 l 1,44,-1
 68 1006 l 1,45,-1
 64 1046 l 1,46,-1
 64 1082 l 1,47,-1
 66 1108 l 2,48,49
 68 1124 68 1124 70 1126 c 2,50,-1
 82 1150 l 2,51,52
 132 1250 132 1250 208 1302 c 1,53,-1
 258 1328 l 1,54,-1
 318 1354 l 1,55,-1
 318 1314 l 1,56,-1
 276 1292 l 1,57,-1
 244 1268 l 1,58,-1
 194 1220 l 1,59,-1
 166 1168 l 1,60,-1
 158 1114 l 1,61,-1
 160 1084 l 2,62,63
 160 1072 160 1072 166 1066 c 2,64,-1
 176 1054 l 1,65,-1
 188 1052 l 1,66,-1
 202 1054 l 1,67,-1
 242 1066 l 1,68,-1
 262 1068 l 1,69,70
 306 1068 306 1068 332 1038 c 1,71,-1
 354 1004 l 1,72,-1
 362 964 l 1,34,35
EndSplineSet
EndChar

StartChar: u201D
Encoding: 65542 -1 116
Width: 886
GlyphClass: 2
Flags: W
LayerCount: 2
Fore
SplineSet
830 1352 m 1,0,1
 830 1280 830 1280 814 1256 c 1,2,-1
 796 1216 l 1,3,4
 782 1172 782 1172 686 1096 c 1,5,-1
 650 1076 l 1,6,-1
 578 1044 l 1,7,-1
 578 1086 l 1,8,9
 624 1108 624 1108 652 1130 c 1,10,-1
 700 1180 l 1,11,-1
 714 1200 l 1,12,-1
 728 1232 l 1,13,-1
 738 1268 l 1,14,-1
 738 1286 l 2,15,16
 738 1306 738 1306 734 1314 c 2,17,-1
 728 1334 l 1,18,-1
 718 1344 l 1,19,-1
 706 1346 l 1,20,-1
 690 1344 l 1,21,-1
 672 1338 l 1,22,23
 658 1338 658 1338 650 1334 c 2,24,-1
 632 1332 l 1,25,-1
 594 1338 l 1,26,-1
 562 1362 l 1,27,-1
 540 1396 l 1,28,-1
 534 1434 l 1,29,-1
 540 1478 l 2,30,31
 544 1490 544 1490 564 1512 c 1,32,-1
 610 1540 l 1,33,-1
 658 1548 l 1,34,35
 692 1548 692 1548 722 1535 c 128,-1,36
 752 1522 752 1522 776 1494 c 2,37,-1
 796 1466 l 1,38,-1
 816 1428 l 1,39,-1
 826 1392 l 1,40,-1
 830 1352 l 1,0,1
362 1352 m 1,41,-1
 360 1300 l 2,42,43
 358 1252 358 1252 296 1166 c 0,44,45
 278 1136 278 1136 222 1096 c 0,46,47
 196 1078 196 1078 112 1044 c 1,48,-1
 112 1086 l 1,49,-1
 194 1138 l 1,50,-1
 218 1160 l 1,51,-1
 240 1186 l 1,52,-1
 264 1236 l 1,53,-1
 272 1292 l 2,54,55
 272 1312 272 1312 268 1316 c 2,56,-1
 262 1332 l 1,57,-1
 250 1342 l 1,58,-1
 238 1346 l 1,59,-1
 224 1344 l 1,60,-1
 208 1338 l 1,61,62
 188 1338 188 1338 184 1334 c 2,63,-1
 164 1332 l 1,64,-1
 126 1338 l 2,65,66
 110 1344 110 1344 94 1360 c 1,67,-1
 72 1394 l 1,68,-1
 64 1432 l 1,69,70
 64 1458 64 1458 71 1476 c 128,-1,71
 78 1494 78 1494 98 1512 c 128,-1,72
 118 1530 118 1530 144 1540 c 1,73,-1
 194 1548 l 1,74,75
 226 1548 226 1548 254 1534 c 1,76,77
 318 1516 318 1516 348 1428 c 1,78,-1
 362 1352 l 1,41,-1
EndSplineSet
EndChar

StartChar: u2026
Encoding: 8230 8230 117
Width: 1283
GlyphClass: 2
Flags: W
LayerCount: 2
Fore
SplineSet
265 136 m 0,0,1
 298 136 298 136 320.5 114 c 128,-1,2
 343 92 343 92 343 58 c 0,3,4
 343 26 343 26 320.5 3 c 128,-1,5
 298 -20 298 -20 265 -20 c 0,6,7
 233 -20 233 -20 210 3 c 128,-1,8
 187 26 187 26 187 58 c 0,9,10
 187 92 187 92 210 114 c 128,-1,11
 233 136 233 136 265 136 c 0,0,1
638 136 m 256,12,13
 670 136 670 136 693 114 c 128,-1,14
 716 92 716 92 716 58 c 0,15,16
 716 26 716 26 692.5 3 c 128,-1,17
 669 -20 669 -20 638 -20 c 0,18,19
 606 -20 606 -20 583 3 c 128,-1,20
 560 26 560 26 560 58 c 0,21,22
 560 92 560 92 583 114 c 128,-1,23
 606 136 606 136 638 136 c 256,12,13
1010 136 m 0,24,25
 1043 136 1043 136 1066 114 c 128,-1,26
 1089 92 1089 92 1089 58 c 0,27,28
 1089 26 1089 26 1065.5 3 c 128,-1,29
 1042 -20 1042 -20 1010 -20 c 256,30,31
 978 -20 978 -20 955.5 3 c 128,-1,32
 933 26 933 26 933 58 c 0,33,34
 933 92 933 92 955.5 114 c 128,-1,35
 978 136 978 136 1010 136 c 0,24,25
EndSplineSet
EndChar

StartChar: u2212
Encoding: 8722 8722 118
Width: 974
GlyphClass: 2
Flags: W
LayerCount: 2
Fore
SplineSet
133 450 m 1,0,-1
 133 508 l 1,1,-1
 894 508 l 1,2,-1
 894 450 l 1,3,-1
 133 450 l 1,0,-1
EndSplineSet
EndChar

StartChar: u25CC
Encoding: 9676 9676 119
Width: 1167
GlyphClass: 2
Flags: W
LayerCount: 2
Fore
SplineSet
654 665 m 0,0,1
 626 665 626 665 612 679 c 128,-1,2
 598 693 598 693 598 724 c 0,3,4
 598 746 598 746 615 762.5 c 128,-1,5
 632 779 632 779 654 779 c 0,6,7
 683 779 683 779 697.5 765 c 128,-1,8
 712 751 712 751 712 724 c 0,9,10
 712 693 712 693 697.5 679 c 128,-1,11
 683 665 683 665 654 665 c 0,0,1
840 616 m 0,12,13
 811 616 811 616 796.5 630.5 c 128,-1,14
 782 645 782 645 782 674 c 0,15,16
 782 701 782 701 796.5 715 c 128,-1,17
 811 729 811 729 840 729 c 0,18,19
 862 729 862 729 879 713 c 128,-1,20
 896 697 896 697 896 674 c 0,21,22
 896 645 896 645 882 630.5 c 128,-1,23
 868 616 868 616 840 616 c 0,12,13
470 616 m 0,24,25
 442 616 442 616 428 630.5 c 128,-1,26
 414 645 414 645 414 674 c 0,27,28
 414 697 414 697 431 713 c 128,-1,29
 448 729 448 729 470 729 c 0,30,31
 494 729 494 729 510 713 c 128,-1,32
 526 697 526 697 526 674 c 0,33,34
 526 645 526 645 512.5 630.5 c 128,-1,35
 499 616 499 616 470 616 c 0,24,25
973 482 m 0,36,37
 951 482 951 482 933.5 498 c 128,-1,38
 916 514 916 514 916 538 c 0,39,40
 916 567 916 567 930.5 581 c 128,-1,41
 945 595 945 595 973 595 c 256,42,43
 1001 595 1001 595 1014.5 581 c 128,-1,44
 1028 567 1028 567 1028 538 c 0,45,46
 1028 514 1028 514 1012 498 c 128,-1,47
 996 482 996 482 973 482 c 0,36,37
336 482 m 0,48,49
 307 482 307 482 293 495.5 c 128,-1,50
 279 509 279 509 279 538 c 256,51,52
 279 567 279 567 293 581 c 128,-1,53
 307 595 307 595 336 595 c 0,54,55
 364 595 364 595 378 581 c 128,-1,56
 392 567 392 567 392 538 c 0,57,58
 392 514 392 514 375 498 c 128,-1,59
 358 482 358 482 336 482 c 0,48,49
1024 298 m 0,60,61
 994 298 994 298 979.5 311.5 c 128,-1,62
 965 325 965 325 965 354 c 0,63,64
 965 382 965 382 979.5 396 c 128,-1,65
 994 410 994 410 1024 410 c 0,66,67
 1046 410 1046 410 1063 393 c 128,-1,68
 1080 376 1080 376 1080 354 c 0,69,70
 1080 331 1080 331 1063 314.5 c 128,-1,71
 1046 298 1046 298 1024 298 c 0,60,61
287 298 m 0,72,73
 257 298 257 298 243 311.5 c 128,-1,74
 229 325 229 325 229 354 c 0,75,76
 229 382 229 382 243 396 c 128,-1,77
 257 410 257 410 287 410 c 0,78,79
 310 410 310 410 326.5 393 c 128,-1,80
 343 376 343 376 343 354 c 0,81,82
 343 331 343 331 326.5 314.5 c 128,-1,83
 310 298 310 298 287 298 c 0,72,73
973 112 m 256,84,85
 945 112 945 112 930.5 126.5 c 128,-1,86
 916 141 916 141 916 169 c 0,87,88
 916 193 916 193 933.5 209.5 c 128,-1,89
 951 226 951 226 973 226 c 0,90,91
 996 226 996 226 1012 209.5 c 128,-1,92
 1028 193 1028 193 1028 169 c 0,93,94
 1028 141 1028 141 1014.5 126.5 c 128,-1,95
 1001 112 1001 112 973 112 c 256,84,85
336 112 m 0,96,97
 307 112 307 112 293 126.5 c 128,-1,98
 279 141 279 141 279 169 c 0,99,100
 279 198 279 198 293 212 c 128,-1,101
 307 226 307 226 336 226 c 0,102,103
 358 226 358 226 375 209.5 c 128,-1,104
 392 193 392 193 392 169 c 0,105,106
 392 141 392 141 378 126.5 c 128,-1,107
 364 112 364 112 336 112 c 0,96,97
840 -22 m 0,108,109
 811 -22 811 -22 796.5 -8 c 128,-1,110
 782 6 782 6 782 34 c 0,111,112
 782 63 782 63 796.5 78 c 128,-1,113
 811 93 811 93 840 93 c 0,114,115
 863 93 863 93 879.5 75 c 128,-1,116
 896 57 896 57 896 34 c 256,117,118
 896 11 896 11 879 -5.5 c 128,-1,119
 862 -22 862 -22 840 -22 c 0,108,109
470 -22 m 0,120,121
 448 -22 448 -22 431 -5.5 c 128,-1,122
 414 11 414 11 414 34 c 256,123,124
 414 57 414 57 430.5 75 c 128,-1,125
 447 93 447 93 470 93 c 0,126,127
 495 93 495 93 510.5 75 c 128,-1,128
 526 57 526 57 526 34 c 256,129,130
 526 11 526 11 510 -5.5 c 128,-1,131
 494 -22 494 -22 470 -22 c 0,120,121
654 -72 m 0,132,133
 632 -72 632 -72 615 -55 c 128,-1,134
 598 -38 598 -38 598 -16 c 0,135,136
 598 14 598 14 612 28.5 c 128,-1,137
 626 43 626 43 654 43 c 0,138,139
 683 43 683 43 697.5 28.5 c 128,-1,140
 712 14 712 14 712 -16 c 0,141,142
 712 -44 712 -44 697.5 -58 c 128,-1,143
 683 -72 683 -72 654 -72 c 0,132,133
EndSplineSet
EndChar

StartChar: tm_k_ikaar
Encoding: 65543 -1 120
Width: 1636
GlyphClass: 2
Flags: W
LayerCount: 2
Fore
SplineSet
1508 0 m 1,0,-1
 1352 0 l 1,1,-1
 1352 1000 l 2,2,3
 1352 1126 1352 1126 1292 1224 c 0,4,5
 1220 1340 1220 1340 1102 1340 c 2,6,-1
 1008 1340 l 2,7,8
 924 1340 924 1340 841 1269 c 128,-1,9
 758 1198 758 1198 758 1114 c 2,10,-1
 758 1066 l 2,11,12
 758 1000 758 1000 804 954 c 1,13,-1
 1078 954 l 1,14,-1
 1078 840 l 1,15,-1
 804 840 l 1,16,-1
 804 590 l 1,17,-1
 942 590 l 2,18,19
 1214 590 1214 590 1214 382 c 2,20,-1
 1214 250 l 2,21,22
 1214 144 1214 144 1130 66 c 0,23,24
 1032 -24 1032 -24 910 -14 c 2,25,-1
 840 -8 l 1,26,-1
 894 114 l 1,27,-1
 920 110 l 1,28,29
 974 110 974 110 1014 162 c 128,-1,30
 1054 214 1054 214 1054 270 c 2,31,-1
 1054 364 l 2,32,33
 1054 476 1054 476 918 476 c 2,34,-1
 804 476 l 1,35,-1
 804 292 l 2,36,37
 804 0 804 0 394 0 c 0,38,39
 256 0 256 0 152 64 c 0,40,41
 32 140 32 140 32 270 c 2,42,-1
 32 454 l 2,43,44
 32 492 32 492 68 546 c 1,45,-1
 104 578 l 2,46,47
 122 590 122 590 144 590 c 2,48,-1
 238 590 l 1,49,-1
 238 954 l 1,50,-1
 644 954 l 1,51,52
 602 1006 602 1006 602 1066 c 2,53,-1
 602 1114 l 2,54,55
 602 1260 602 1260 734 1360 c 0,56,57
 858 1454 858 1454 1008 1454 c 2,58,-1
 1126 1454 l 2,59,60
 1292 1454 1292 1454 1404 1306 c 0,61,62
 1508 1170 1508 1170 1508 1000 c 2,63,-1
 1508 0 l 1,0,-1
644 590 m 1,64,-1
 644 840 l 1,65,-1
 394 840 l 1,66,-1
 394 590 l 1,67,-1
 644 590 l 1,64,-1
644 270 m 2,68,-1
 644 476 l 1,69,-1
 258 476 l 2,70,71
 214 476 214 476 214 430 c 2,72,-1
 214 250 l 2,73,74
 214 214 214 214 280 156 c 1,75,76
 346 114 346 114 418 114 c 256,77,78
 490 114 490 114 562 154 c 0,79,80
 644 202 644 202 644 270 c 2,68,-1
EndSplineSet
Ligature2: "'psts' Post Base Substitutions lookup 8 subtable" tm_ka tm_ikaar
EndChar

StartChar: tm_ng_ikaar
Encoding: 65544 -1 121
Width: 1914
GlyphClass: 2
Flags: W
LayerCount: 2
Fore
SplineSet
1786 0 m 1,0,-1
 1626 0 l 1,1,-1
 1626 1066 l 2,2,3
 1626 1176 1626 1176 1556 1266 c 0,4,5
 1482 1364 1482 1364 1376 1364 c 0,6,7
 1264 1364 1264 1364 1195 1295 c 128,-1,8
 1126 1226 1126 1226 1126 1114 c 2,9,-1
 1126 954 l 2,10,11
 1126 770 1126 770 1238 770 c 1,12,-1
 1238 954 l 1,13,-1
 1398 954 l 1,14,-1
 1398 0 l 1,15,-1
 398 0 l 1,16,-1
 398 114 l 1,17,-1
 692 114 l 1,18,19
 852 172 852 172 852 406 c 0,20,21
 852 464 852 464 820 510 c 0,22,23
 786 564 786 564 730 564 c 0,24,25
 648 564 648 564 602 476 c 1,26,-1
 602 270 l 1,27,-1
 442 270 l 1,28,-1
 442 840 l 1,29,-1
 192 840 l 1,30,-1
 192 0 l 1,31,-1
 36 0 l 1,32,-1
 36 954 l 1,33,-1
 852 954 l 1,34,-1
 852 840 l 1,35,-1
 602 840 l 1,36,-1
 602 614 l 1,37,38
 674 680 674 680 808 680 c 0,39,40
 904 680 904 680 962 588 c 0,41,42
 1012 508 1012 508 1012 406 c 0,43,44
 1012 210 1012 210 898 114 c 1,45,-1
 1238 114 l 1,46,-1
 1238 656 l 1,47,48
 1136 656 1136 656 1050 746 c 128,-1,49
 964 836 964 836 964 976 c 2,50,-1
 964 1156 l 2,51,52
 964 1304 964 1304 1088 1394 c 0,53,54
 1200 1476 1200 1476 1352 1476 c 0,55,56
 1552 1476 1552 1476 1669 1370 c 128,-1,57
 1786 1264 1786 1264 1786 1066 c 2,58,-1
 1786 0 l 1,0,-1
EndSplineSet
Ligature2: "'psts' Post Base Substitutions lookup 8 subtable" tm_nga tm_ikaar
EndChar

StartChar: tm_c_ikaar
Encoding: 65545 -1 122
Width: 1524
GlyphClass: 2
Flags: W
LayerCount: 2
Fore
SplineSet
1394 0 m 1,0,-1
 1238 0 l 1,1,-1
 1238 1000 l 2,2,3
 1238 1340 1238 1340 1032 1340 c 2,4,-1
 964 1340 l 2,5,6
 876 1340 876 1340 817 1272 c 128,-1,7
 758 1204 758 1204 758 1114 c 2,8,-1
 758 1066 l 2,9,10
 758 1000 758 1000 804 954 c 1,11,-1
 1078 954 l 1,12,-1
 1078 840 l 1,13,-1
 804 840 l 1,14,-1
 804 590 l 1,15,-1
 1054 590 l 1,16,-1
 1054 476 l 1,17,-1
 804 476 l 1,18,-1
 804 292 l 2,19,20
 804 0 804 0 394 0 c 0,21,22
 256 0 256 0 152 64 c 0,23,24
 32 140 32 140 32 270 c 2,25,-1
 32 454 l 2,26,27
 32 492 32 492 68 546 c 1,28,-1
 104 578 l 2,29,30
 122 590 122 590 144 590 c 2,31,-1
 238 590 l 1,32,-1
 238 954 l 1,33,-1
 644 954 l 1,34,35
 602 1006 602 1006 602 1066 c 2,36,-1
 602 1114 l 2,37,38
 602 1268 602 1268 705 1361 c 128,-1,39
 808 1454 808 1454 964 1454 c 2,40,-1
 1032 1454 l 2,41,42
 1206 1454 1206 1454 1306 1310 c 0,43,44
 1394 1182 1394 1182 1394 1000 c 2,45,-1
 1394 0 l 1,0,-1
644 590 m 1,46,-1
 644 840 l 1,47,-1
 394 840 l 1,48,-1
 394 590 l 1,49,-1
 644 590 l 1,46,-1
644 270 m 2,50,-1
 644 476 l 1,51,-1
 258 476 l 2,52,53
 214 476 214 476 214 430 c 2,54,-1
 214 250 l 2,55,56
 214 214 214 214 280 156 c 1,57,58
 346 114 346 114 418 114 c 256,59,60
 490 114 490 114 562 154 c 0,61,62
 644 202 644 202 644 270 c 2,50,-1
EndSplineSet
Ligature2: "'psts' Post Base Substitutions lookup 8 subtable" tm_ca tm_ikaar
EndChar

StartChar: tm_j_ikaar
Encoding: 65546 -1 123
Width: 1796
GlyphClass: 2
Flags: W
LayerCount: 2
Fore
SplineSet
1668 0 m 1,0,-1
 1508 0 l 1,1,-1
 1508 1000 l 2,2,3
 1508 1340 1508 1340 1304 1340 c 2,4,-1
 1238 1340 l 2,5,6
 1150 1340 1150 1340 1091 1272 c 128,-1,7
 1032 1204 1032 1204 1032 1114 c 2,8,-1
 1032 1066 l 2,9,10
 1032 1000 1032 1000 1078 954 c 1,11,12
 1194 954 1194 954 1266 848 c 0,13,14
 1328 754 1328 754 1328 632 c 2,15,-1
 1328 382 l 2,16,17
 1328 318 1328 318 1304 248 c 1,18,-1
 1274 190 l 1,19,-1
 1252 162 l 1,20,-1
 1228 134 l 2,21,22
 1130 20 1130 20 942 20 c 2,23,-1
 464 20 l 2,24,25
 376 20 376 20 290 -38 c 0,26,27
 192 -102 192 -102 192 -184 c 2,28,-1
 192 -296 l 2,29,30
 192 -458 192 -458 376 -458 c 2,31,-1
 418 -458 l 2,32,33
 462 -458 462 -458 548 -358 c 0,34,35
 680 -204 680 -204 720 -170 c 0,36,37
 838 -70 838 -70 942 -70 c 2,38,-1
 1078 -70 l 2,39,40
 1164 -70 1164 -70 1242 -128 c 0,41,42
 1328 -192 1328 -192 1328 -274 c 2,43,-1
 1328 -368 l 2,44,45
 1328 -466 1328 -466 1250 -522 c 0,46,47
 1180 -570 1180 -570 1078 -570 c 2,48,-1
 894 -570 l 2,49,50
 792 -570 792 -570 738 -480 c 1,51,-1
 804 -386 l 1,52,53
 840 -458 840 -458 942 -458 c 2,54,-1
 1008 -458 l 2,55,56
 1050 -458 1050 -458 1106 -420 c 128,-1,57
 1162 -382 1162 -382 1168 -344 c 1,58,-1
 1168 -296 l 2,59,60
 1168 -262 1168 -262 1120 -216 c 1,61,-1
 1072 -190 l 1,62,-1
 1032 -184 l 1,63,-1
 918 -184 l 2,64,65
 842 -184 842 -184 758 -284 c 2,66,-1
 600 -470 l 2,67,68
 516 -570 516 -570 394 -570 c 2,69,-1
 352 -570 l 2,70,71
 236 -570 236 -570 140 -510 c 0,72,73
 32 -442 32 -442 32 -320 c 2,74,-1
 32 -184 l 2,75,76
 32 -34 32 -34 192 56 c 0,77,78
 328 132 328 132 488 132 c 2,79,-1
 918 132 l 2,80,81
 1016 132 1016 132 1092 208 c 128,-1,82
 1168 284 1168 284 1168 382 c 2,83,-1
 1168 614 l 2,84,85
 1168 686 1168 686 1136 754 c 0,86,87
 1096 840 1096 840 1032 840 c 2,88,-1
 988 840 l 2,89,90
 940 840 940 840 882 786 c 1,91,92
 828 722 828 722 828 614 c 2,93,-1
 828 250 l 1,94,-1
 668 250 l 1,95,-1
 668 590 l 2,96,97
 668 680 668 680 634 750 c 0,98,99
 590 840 590 840 508 840 c 2,100,-1
 418 840 l 2,101,102
 268 840 268 840 238 750 c 1,103,-1
 304 758 l 1,104,105
 396 758 396 758 464 696 c 128,-1,106
 532 634 532 634 532 542 c 2,107,-1
 532 476 l 2,108,109
 532 386 532 386 454 310 c 1,110,111
 380 254 380 254 284 254 c 0,112,113
 178 254 178 254 108 310 c 0,114,115
 32 372 32 372 32 476 c 2,116,-1
 32 614 l 2,117,118
 32 748 32 748 137 851 c 128,-1,119
 242 954 242 954 376 954 c 2,120,-1
 464 954 l 2,121,122
 544 954 544 954 619 908 c 128,-1,123
 694 862 694 862 738 792 c 1,124,125
 798 904 798 904 926 942 c 1,126,127
 876 988 876 988 876 1066 c 2,128,-1
 876 1114 l 2,129,130
 876 1268 876 1268 982 1362 c 0,131,132
 1082 1454 1082 1454 1238 1454 c 2,133,-1
 1304 1454 l 2,134,135
 1464 1454 1464 1454 1572 1320 c 0,136,137
 1668 1202 1668 1202 1668 1000 c 2,138,-1
 1668 0 l 1,0,-1
376 430 m 2,139,-1
 376 566 l 2,140,141
 376 632 376 632 282 632 c 0,142,143
 192 632 192 632 192 566 c 2,144,-1
 192 430 l 1,145,146
 202 364 202 364 286 364 c 0,147,148
 376 364 376 364 376 430 c 2,139,-1
EndSplineSet
Ligature2: "'psts' Post Base Substitutions lookup 8 subtable" tm_ja tm_ikaar
EndChar

StartChar: tm_ny_ikaar
Encoding: 65547 -1 124
Width: 2168
GlyphClass: 2
Flags: W
LayerCount: 2
Fore
SplineSet
2036 0 m 1,0,-1
 1876 0 l 1,1,-1
 1876 1000 l 2,2,3
 1876 1126 1876 1126 1816 1224 c 0,4,5
 1744 1340 1744 1340 1626 1340 c 2,6,-1
 1536 1340 l 2,7,8
 1452 1340 1452 1340 1369 1269 c 128,-1,9
 1286 1198 1286 1198 1286 1114 c 2,10,-1
 1286 1066 l 2,11,12
 1286 1000 1286 1000 1332 954 c 1,13,-1
 1606 954 l 1,14,-1
 1606 840 l 1,15,-1
 1332 840 l 1,16,-1
 1332 520 l 1,17,18
 1398 550 1398 550 1454 550 c 0,19,20
 1574 550 1574 550 1650 432 c 0,21,22
 1718 330 1718 330 1718 204 c 0,23,24
 1718 -162 1718 -162 1472 -342 c 0,25,26
 1256 -500 1256 -500 876 -500 c 0,27,28
 524 -500 524 -500 276 -250 c 0,29,30
 164 -138 164 -138 98 -12 c 0,31,32
 54 72 54 72 40 180 c 0,33,34
 38 200 38 200 36 250 c 2,35,-1
 34 324 l 2,36,37
 26 598 26 598 218 882 c 1,38,-1
 286 792 l 1,39,40
 144 524 144 524 144 312 c 0,41,42
 144 260 144 260 148 250 c 0,43,44
 178 -10 178 -10 410 -198 c 0,45,46
 604 -354 604 -354 876 -386 c 1,47,48
 1026 -386 1026 -386 1198 -330 c 0,49,50
 1442 -250 1442 -250 1530 -56 c 0,51,52
 1570 38 1570 38 1564 168 c 2,53,-1
 1558 292 l 2,54,55
 1556 342 1556 342 1517 377 c 128,-1,56
 1478 412 1478 412 1428 412 c 0,57,58
 1368 412 1368 412 1332 364 c 1,59,-1
 1332 0 l 1,60,-1
 1172 0 l 1,61,-1
 1172 840 l 1,62,-1
 808 840 l 2,63,64
 714 840 714 840 636 762 c 128,-1,65
 558 684 558 684 558 590 c 1,66,67
 612 638 612 638 682 638 c 0,68,69
 768 638 768 638 833 577 c 128,-1,70
 898 516 898 516 898 430 c 2,71,-1
 898 226 l 2,72,73
 898 126 898 126 820 62 c 0,74,75
 750 4 750 4 646 4 c 0,76,77
 540 4 540 4 469 63 c 128,-1,78
 398 122 398 122 398 226 c 2,79,-1
 398 520 l 2,80,81
 398 690 398 690 518 822 c 128,-1,82
 638 954 638 954 808 954 c 2,83,-1
 1172 954 l 1,84,85
 1126 996 1126 996 1126 1066 c 2,86,-1
 1126 1114 l 2,87,88
 1126 1266 1126 1266 1258 1364 c 0,89,90
 1380 1454 1380 1454 1536 1454 c 2,91,-1
 1648 1454 l 2,92,93
 1816 1454 1816 1454 1930 1308 c 0,94,95
 2036 1174 2036 1174 2036 1000 c 2,96,-1
 2036 0 l 1,0,-1
742 204 m 2,97,-1
 742 382 l 2,98,99
 742 470 742 470 648 470 c 0,100,101
 612 470 612 470 585 443 c 128,-1,102
 558 416 558 416 558 382 c 2,103,-1
 558 204 l 2,104,105
 558 168 558 168 586 140 c 1,106,107
 606 126 606 126 648 114 c 1,108,109
 684 114 684 114 713 141 c 128,-1,110
 742 168 742 168 742 204 c 2,97,-1
EndSplineSet
Ligature2: "'psts' Post Base Substitutions lookup 8 subtable" tm_nya tm_ikaar
EndChar

StartChar: tm_tt_ikaar
Encoding: 65548 -1 125
Width: 1290
GlyphClass: 2
Flags: W
LayerCount: 2
Fore
SplineSet
1164 0 m 1,0,-1
 778 0 l 1,1,-1
 550 -524 l 1,2,-1
 372 -524 l 1,3,-1
 598 0 l 1,4,-1
 28 0 l 1,5,-1
 28 954 l 1,6,-1
 188 954 l 1,7,-1
 188 114 l 1,8,-1
 598 114 l 1,9,10
 372 244 372 244 372 406 c 2,11,-1
 372 454 l 2,12,13
 372 554 372 554 470 632 c 0,14,15
 560 704 560 704 664 704 c 2,16,-1
 734 704 l 2,17,18
 822 704 822 704 903 644 c 128,-1,19
 984 584 984 584 984 500 c 2,20,-1
 984 430 l 1,21,-1
 848 114 l 1,22,-1
 1164 114 l 1,23,-1
 1164 0 l 1,0,-1
806 500 m 1,24,25
 806 538 806 538 777 564 c 128,-1,26
 748 590 748 590 710 590 c 2,27,-1
 664 590 l 2,28,29
 618 590 618 590 573 542 c 128,-1,30
 528 494 528 494 528 454 c 2,31,-1
 528 406 l 2,32,33
 528 286 528 286 680 176 c 1,34,-1
 800 476 l 1,35,-1
 806 500 l 1,24,25
EndSplineSet
Ligature2: "'psts' Post Base Substitutions lookup 8 subtable" tm_tta tm_ikaar
EndChar

StartChar: tm_nn_ikaar
Encoding: 65549 -1 126
Width: 2950
GlyphClass: 2
Flags: W
LayerCount: 2
Fore
SplineSet
2766 0 m 1,0,-1
 2606 0 l 1,1,-1
 2606 1000 l 2,2,3
 2606 1340 2606 1340 2402 1340 c 2,4,-1
 2332 1340 l 2,5,6
 2258 1340 2258 1340 2186 1274 c 1,7,8
 2128 1206 2128 1206 2128 1114 c 2,9,-1
 2128 1066 l 2,10,11
 2128 1012 2128 1012 2176 954 c 1,12,-1
 2446 954 l 1,13,-1
 2446 840 l 1,14,-1
 2176 840 l 1,15,-1
 2176 0 l 1,16,-1
 2016 0 l 1,17,-1
 2016 840 l 1,18,-1
 1832 840 l 2,19,20
 1754 840 1754 840 1696 816 c 1,21,22
 1758 758 1758 758 1780 690 c 2,23,-1
 1804 614 l 1,24,-1
 1812 542 l 1,25,-1
 1812 226 l 2,26,27
 1812 126 1812 126 1738 60 c 0,28,29
 1672 0 1672 0 1560 0 c 0,30,31
 1454 0 1454 0 1386 60 c 0,32,33
 1312 122 1312 122 1312 226 c 2,34,-1
 1312 542 l 2,35,36
 1312 680 1312 680 1446 816 c 1,37,38
 1404 840 1404 840 1290 840 c 2,39,-1
 1196 840 l 2,40,41
 1116 840 1116 840 1062 816 c 1,42,43
 1104 774 1104 774 1144 688 c 0,44,45
 1164 646 1164 646 1168 612 c 2,46,-1
 1176 542 l 1,47,-1
 1176 226 l 2,48,49
 1176 120 1176 120 1098 58 c 0,50,51
 1028 2 1028 2 924 2 c 0,52,53
 816 2 816 2 746 61 c 128,-1,54
 676 120 676 120 676 226 c 2,55,-1
 676 542 l 2,56,57
 676 686 676 686 812 816 c 1,58,59
 766 840 766 840 652 840 c 2,60,-1
 446 840 l 2,61,62
 340 840 340 840 268 756 c 128,-1,63
 196 672 196 672 196 566 c 1,64,65
 258 628 258 628 338 628 c 0,66,67
 424 628 424 628 482 561 c 128,-1,68
 540 494 540 494 540 406 c 2,69,-1
 540 226 l 2,70,71
 540 126 540 126 465 66 c 128,-1,72
 390 6 390 6 286 6 c 256,73,74
 182 6 182 6 114 64 c 0,75,76
 40 124 40 124 40 226 c 2,77,-1
 40 520 l 2,78,79
 40 694 40 694 157 824 c 128,-1,80
 274 954 274 954 446 954 c 2,81,-1
 696 954 l 1,82,-1
 754 948 l 2,83,84
 768 946 768 946 826 926 c 0,85,86
 898 900 898 900 926 882 c 1,87,88
 1052 954 1052 954 1082 954 c 2,89,-1
 1332 954 l 1,90,-1
 1390 948 l 2,91,92
 1404 946 1404 946 1462 926 c 0,93,94
 1534 900 1534 900 1562 882 c 1,95,96
 1694 954 1694 954 1742 954 c 2,97,-1
 2016 954 l 1,98,99
 1968 996 1968 996 1968 1066 c 2,100,-1
 1968 1114 l 2,101,102
 1968 1264 1968 1264 2074 1359 c 128,-1,103
 2180 1454 2180 1454 2332 1454 c 2,104,-1
 2402 1454 l 2,105,106
 2572 1454 2572 1454 2674 1308 c 0,107,108
 2766 1176 2766 1176 2766 1000 c 2,109,-1
 2766 0 l 1,0,-1
1652 204 m 1,110,-1
 1652 566 l 2,111,112
 1652 648 1652 648 1562 648 c 0,113,114
 1468 648 1468 648 1468 566 c 2,115,-1
 1468 204 l 2,116,117
 1468 144 1468 144 1562 114 c 1,118,119
 1590 114 1590 114 1618 144 c 128,-1,120
 1646 174 1646 174 1652 204 c 1,110,-1
1016 204 m 1,121,-1
 1016 566 l 2,122,123
 1016 650 1016 650 926 650 c 0,124,125
 832 650 832 650 832 566 c 2,126,-1
 832 204 l 2,127,128
 832 188 832 188 862 146 c 1,129,-1
 886 126 l 2,130,131
 904 114 904 114 926 114 c 0,132,133
 954 114 954 114 982 144 c 128,-1,134
 1010 174 1010 174 1016 204 c 1,121,-1
378 204 m 2,135,-1
 378 382 l 2,136,137
 378 468 378 468 288 468 c 0,138,139
 196 468 196 468 196 382 c 2,140,-1
 196 204 l 2,141,142
 196 168 196 168 223 143 c 128,-1,143
 250 118 250 118 288 118 c 0,144,145
 324 118 324 118 351 142 c 128,-1,146
 378 166 378 166 378 204 c 2,135,-1
EndSplineSet
Ligature2: "'psts' Post Base Substitutions lookup 8 subtable" tm_nna tm_ikaar
EndChar

StartChar: tm_t_ikaar
Encoding: 65550 -1 127
Width: 1680
GlyphClass: 2
Flags: W
LayerCount: 2
Fore
SplineSet
1508 0 m 1,0,-1
 1352 0 l 1,1,-1
 1352 1000 l 2,2,3
 1352 1126 1352 1126 1292 1224 c 0,4,5
 1220 1340 1220 1340 1102 1340 c 2,6,-1
 1008 1340 l 2,7,8
 924 1340 924 1340 841 1269 c 128,-1,9
 758 1198 758 1198 758 1114 c 2,10,-1
 758 1066 l 2,11,12
 758 1000 758 1000 804 954 c 1,13,-1
 1078 954 l 1,14,-1
 1078 840 l 1,15,-1
 804 840 l 1,16,-1
 804 590 l 1,17,-1
 942 590 l 2,18,19
 1054 590 1054 590 1128 542 c 0,20,21
 1214 488 1214 488 1214 382 c 2,22,-1
 1214 156 l 2,23,24
 1214 -32 1214 -32 1056 -150 c 0,25,26
 922 -250 922 -250 758 -250 c 2,27,-1
 328 -250 l 2,28,29
 284 -250 284 -250 249 -276 c 128,-1,30
 214 -302 214 -302 214 -344 c 2,31,-1
 214 -524 l 1,32,-1
 54 -524 l 1,33,-1
 54 -344 l 2,34,35
 54 -136 54 -136 328 -136 c 2,36,-1
 758 -136 l 2,37,38
 860 -136 860 -136 957 -52 c 128,-1,39
 1054 32 1054 32 1054 132 c 2,40,-1
 1054 340 l 2,41,42
 1054 476 1054 476 918 476 c 2,43,-1
 804 476 l 1,44,-1
 804 292 l 2,45,46
 804 0 804 0 394 0 c 0,47,48
 256 0 256 0 152 64 c 0,49,50
 32 140 32 140 32 270 c 2,51,-1
 32 454 l 2,52,53
 32 492 32 492 68 546 c 1,54,-1
 104 578 l 2,55,56
 122 590 122 590 144 590 c 2,57,-1
 238 590 l 1,58,-1
 238 954 l 1,59,-1
 644 954 l 1,60,61
 602 1006 602 1006 602 1066 c 2,62,-1
 602 1114 l 2,63,64
 602 1260 602 1260 734 1360 c 0,65,66
 858 1454 858 1454 1008 1454 c 2,67,-1
 1126 1454 l 2,68,69
 1292 1454 1292 1454 1404 1306 c 0,70,71
 1508 1170 1508 1170 1508 1000 c 2,72,-1
 1508 0 l 1,0,-1
644 590 m 1,73,-1
 644 840 l 1,74,-1
 394 840 l 1,75,-1
 394 590 l 1,76,-1
 644 590 l 1,73,-1
644 270 m 2,77,-1
 644 476 l 1,78,-1
 258 476 l 2,79,80
 214 476 214 476 214 430 c 2,81,-1
 214 250 l 2,82,83
 214 214 214 214 280 156 c 1,84,85
 346 114 346 114 418 114 c 256,86,87
 490 114 490 114 562 154 c 0,88,89
 644 202 644 202 644 270 c 2,77,-1
EndSplineSet
Ligature2: "'psts' Post Base Substitutions lookup 8 subtable" tm_ta tm_ikaar
EndChar

StartChar: tm_n_ikaar
Encoding: 65551 -1 128
Width: 1430
GlyphClass: 2
Flags: W
LayerCount: 2
Fore
SplineSet
1300 0 m 1,0,-1
 1140 0 l 1,1,-1
 1140 1000 l 2,2,3
 1140 1126 1140 1126 1080 1224 c 0,4,5
 1008 1340 1008 1340 890 1340 c 2,6,-1
 800 1340 l 2,7,8
 716 1340 716 1340 633 1269 c 128,-1,9
 550 1198 550 1198 550 1114 c 2,10,-1
 550 1066 l 2,11,12
 550 1012 550 1012 598 954 c 1,13,-1
 872 954 l 1,14,-1
 872 840 l 1,15,-1
 598 840 l 1,16,-1
 598 406 l 1,17,18
 662 470 662 470 758 470 c 0,19,20
 862 470 862 470 933 400 c 128,-1,21
 1004 330 1004 330 1004 226 c 2,22,-1
 1004 0 l 2,23,24
 1004 -250 1004 -250 622 -250 c 2,25,-1
 210 -250 l 2,26,27
 74 -250 74 -250 74 -344 c 2,28,-1
 74 -524 l 1,29,-1
 -62 -524 l 1,30,-1
 -62 -344 l 2,31,32
 -62 -136 -62 -136 188 -136 c 2,33,-1
 640 -136 l 2,34,35
 722 -136 722 -136 780 -100 c 0,36,37
 848 -58 848 -58 848 20 c 2,38,-1
 848 204 l 2,39,40
 848 358 848 358 734 358 c 0,41,42
 656 358 656 358 598 270 c 1,43,-1
 598 0 l 1,44,-1
 438 0 l 1,45,-1
 438 840 l 1,46,-1
 188 840 l 1,47,-1
 188 0 l 1,48,-1
 28 0 l 1,49,-1
 28 954 l 1,50,-1
 438 954 l 1,51,52
 390 996 390 996 390 1066 c 2,53,-1
 390 1114 l 2,54,55
 390 1260 390 1260 526 1360 c 0,56,57
 650 1454 650 1454 800 1454 c 2,58,-1
 914 1454 l 2,59,60
 1082 1454 1082 1454 1196 1308 c 0,61,62
 1300 1174 1300 1174 1300 1000 c 2,63,-1
 1300 0 l 1,0,-1
EndSplineSet
Ligature2: "'psts' Post Base Substitutions lookup 8 subtable" tm_na tm_ikaar
EndChar

StartChar: tm_nnn_ikaar
Encoding: 65552 -1 129
Width: 2258
GlyphClass: 2
Flags: W
LayerCount: 2
Fore
SplineSet
2126 0 m 1,0,-1
 1968 0 l 1,1,-1
 1968 1000 l 2,2,3
 1968 1340 1968 1340 1762 1340 c 2,4,-1
 1696 1340 l 2,5,6
 1622 1340 1622 1340 1550 1274 c 1,7,8
 1492 1206 1492 1206 1492 1114 c 2,9,-1
 1492 1066 l 2,10,11
 1492 1000 1492 1000 1536 954 c 1,12,-1
 1808 954 l 1,13,-1
 1808 840 l 1,14,-1
 1536 840 l 1,15,-1
 1536 0 l 1,16,-1
 1376 0 l 1,17,-1
 1376 840 l 1,18,-1
 1196 840 l 2,19,20
 1106 840 1106 840 1058 792 c 1,21,22
 1172 684 1172 684 1172 542 c 2,23,-1
 1172 226 l 2,24,25
 1172 124 1172 124 1099 65 c 128,-1,26
 1026 6 1026 6 920 6 c 0,27,28
 824 6 824 6 748 61 c 128,-1,29
 672 116 672 116 672 226 c 2,30,-1
 672 542 l 2,31,32
 672 656 672 656 808 792 c 1,33,34
 742 840 742 840 626 840 c 2,35,-1
 446 840 l 2,36,37
 342 840 342 840 269 755 c 128,-1,38
 196 670 196 670 196 566 c 1,39,40
 258 628 258 628 342 628 c 0,41,42
 420 628 420 628 478 568 c 128,-1,43
 536 508 536 508 536 430 c 2,44,-1
 536 226 l 2,45,46
 536 124 536 124 463 65 c 128,-1,47
 390 6 390 6 284 6 c 256,48,49
 178 6 178 6 110 62 c 0,50,51
 36 122 36 122 36 226 c 2,52,-1
 36 520 l 2,53,54
 36 678 36 678 163 816 c 128,-1,55
 290 954 290 954 446 954 c 2,56,-1
 672 954 l 1,57,-1
 730 948 l 1,58,-1
 770 940 l 1,59,-1
 812 926 l 2,60,61
 860 910 860 910 922 882 c 1,62,-1
 1002 928 l 1,63,-1
 1082 954 l 1,64,-1
 1376 954 l 1,65,66
 1332 1004 1332 1004 1332 1066 c 2,67,-1
 1332 1114 l 2,68,69
 1332 1264 1332 1264 1438 1359 c 128,-1,70
 1544 1454 1544 1454 1696 1454 c 2,71,-1
 1762 1454 l 2,72,73
 1924 1454 1924 1454 2030 1320 c 0,74,75
 2126 1198 2126 1198 2126 1000 c 2,76,-1
 2126 0 l 1,0,-1
1012 204 m 2,77,-1
 1012 566 l 2,78,79
 1012 654 1012 654 926 654 c 0,80,81
 888 654 888 654 860 629 c 128,-1,82
 832 604 832 604 832 566 c 2,83,-1
 832 204 l 2,84,85
 832 116 832 116 924 116 c 0,86,87
 1012 116 1012 116 1012 204 c 2,77,-1
376 204 m 2,88,-1
 376 382 l 1,89,90
 334 476 334 476 286 476 c 0,91,92
 256 476 256 476 226 444 c 128,-1,93
 196 412 196 412 196 382 c 2,94,-1
 196 204 l 2,95,96
 196 116 196 116 286 116 c 256,97,98
 376 116 376 116 376 204 c 2,88,-1
EndSplineSet
Ligature2: "'psts' Post Base Substitutions lookup 8 subtable" tm_nnna tm_ikaar
EndChar

StartChar: tm_p_ikaar
Encoding: 65553 -1 130
Width: 1454
GlyphClass: 2
Flags: W
LayerCount: 2
Fore
SplineSet
1324 0 m 1,0,-1
 1168 0 l 1,1,-1
 1168 1066 l 2,2,3
 1168 1164 1168 1164 1102 1258 c 0,4,5
 1028 1364 1028 1364 918 1364 c 0,6,7
 816 1364 816 1364 734 1292 c 1,8,9
 668 1220 668 1220 668 1114 c 2,10,-1
 668 954 l 2,11,12
 668 770 668 770 782 770 c 1,13,-1
 782 954 l 1,14,-1
 938 954 l 1,15,-1
 938 0 l 1,16,-1
 32 0 l 1,17,-1
 32 954 l 1,18,-1
 188 954 l 1,19,-1
 188 114 l 1,20,-1
 782 114 l 1,21,-1
 782 656 l 1,22,23
 680 656 680 656 594 746 c 128,-1,24
 508 836 508 836 508 976 c 2,25,-1
 508 1156 l 2,26,27
 508 1302 508 1302 630 1394 c 0,28,29
 742 1476 742 1476 894 1476 c 0,30,31
 1110 1476 1110 1476 1228 1350 c 0,32,33
 1324 1248 1324 1248 1324 1066 c 2,34,-1
 1324 0 l 1,0,-1
EndSplineSet
Ligature2: "'psts' Post Base Substitutions lookup 8 subtable" tm_pa tm_ikaar
EndChar

StartChar: tm_m_ikaar
Encoding: 65554 -1 131
Width: 1590
GlyphClass: 2
Flags: W
LayerCount: 2
Fore
SplineSet
1464 -24 m 1,0,-1
 1304 -24 l 1,1,-1
 1304 976 l 2,2,3
 1304 1316 1304 1316 1102 1316 c 2,4,-1
 1032 1316 l 2,5,6
 958 1316 958 1316 886 1250 c 1,7,8
 828 1182 828 1182 828 1090 c 2,9,-1
 828 1042 l 2,10,11
 828 976 828 976 872 930 c 1,12,13
 1144 930 1144 930 1144 614 c 2,14,-1
 1144 156 l 2,15,16
 1144 -24 1144 -24 988 -24 c 2,17,-1
 32 -24 l 1,18,-1
 32 930 l 1,19,-1
 192 930 l 1,20,-1
 192 90 l 1,21,-1
 578 90 l 1,22,-1
 578 750 l 2,23,24
 578 858 578 858 714 906 c 1,25,26
 668 970 668 970 668 1042 c 2,27,-1
 668 1090 l 2,28,29
 668 1244 668 1244 774 1340 c 0,30,31
 876 1430 876 1430 1032 1430 c 2,32,-1
 1102 1430 l 2,33,34
 1276 1430 1276 1430 1376 1286 c 0,35,36
 1464 1158 1464 1158 1464 976 c 2,37,-1
 1464 -24 l 1,0,-1
988 204 m 2,38,-1
 988 614 l 2,39,40
 988 816 988 816 852 816 c 0,41,42
 804 816 804 816 771 784 c 128,-1,43
 738 752 738 752 738 704 c 2,44,-1
 738 90 l 1,45,-1
 918 90 l 2,46,47
 988 90 988 90 988 204 c 2,38,-1
EndSplineSet
Ligature2: "'psts' Post Base Substitutions lookup 8 subtable" tm_ma tm_ikaar
EndChar

StartChar: tm_y_ikaar
Encoding: 65555 -1 132
Width: 1730
GlyphClass: 2
Flags: W
LayerCount: 2
Fore
SplineSet
1602 0 m 1,0,-1
 1442 0 l 1,1,-1
 1442 1066 l 2,2,3
 1442 1176 1442 1176 1372 1266 c 0,4,5
 1298 1364 1298 1364 1192 1364 c 0,6,7
 1090 1364 1090 1364 1008 1292 c 1,8,9
 942 1220 942 1220 942 1114 c 2,10,-1
 942 954 l 2,11,12
 942 770 942 770 1054 770 c 1,13,-1
 1054 954 l 1,14,-1
 1214 954 l 1,15,-1
 1214 0 l 1,16,-1
 442 0 l 1,17,-1
 442 132 l 1,18,19
 406 80 406 80 330 40 c 128,-1,20
 254 0 254 0 168 0 c 0,21,22
 98 0 98 0 68 22 c 0,23,24
 32 46 32 46 32 114 c 2,25,-1
 32 954 l 1,26,-1
 192 954 l 1,27,-1
 192 156 l 1,28,29
 204 106 204 106 272 106 c 0,30,31
 338 106 338 106 385 154 c 128,-1,32
 432 202 432 202 442 270 c 1,33,-1
 442 954 l 1,34,-1
 602 954 l 1,35,-1
 602 114 l 1,36,-1
 1054 114 l 1,37,-1
 1054 656 l 1,38,39
 938 656 938 656 858 760 c 0,40,41
 782 858 782 858 782 976 c 2,42,-1
 782 1156 l 2,43,44
 782 1302 782 1302 904 1394 c 0,45,46
 1016 1476 1016 1476 1168 1476 c 0,47,48
 1368 1476 1368 1476 1485 1370 c 128,-1,49
 1602 1264 1602 1264 1602 1066 c 2,50,-1
 1602 0 l 1,0,-1
EndSplineSet
Ligature2: "'psts' Post Base Substitutions lookup 8 subtable" tm_ya tm_ikaar
EndChar

StartChar: tm_r_ikaar
Encoding: 65556 -1 133
Width: 1312
GlyphClass: 2
Flags: W
LayerCount: 2
Fore
SplineSet
1188 0 m 1,0,-1
 1028 0 l 1,1,-1
 1028 1000 l 2,2,3
 1028 1340 1028 1340 824 1340 c 2,4,-1
 754 1340 l 2,5,6
 680 1340 680 1340 608 1274 c 1,7,8
 550 1206 550 1206 550 1114 c 2,9,-1
 550 1066 l 2,10,11
 550 1008 550 1008 584 954 c 1,12,-1
 868 954 l 1,13,-1
 868 840 l 1,14,-1
 594 840 l 1,15,-1
 594 0 l 1,16,-1
 344 -274 l 1,17,-1
 254 -184 l 1,18,-1
 438 20 l 1,19,-1
 438 840 l 1,20,-1
 188 840 l 1,21,-1
 188 0 l 1,22,-1
 28 0 l 1,23,-1
 28 954 l 1,24,-1
 420 954 l 1,25,26
 390 1000 390 1000 390 1066 c 2,27,-1
 390 1114 l 2,28,29
 390 1264 390 1264 496 1359 c 128,-1,30
 602 1454 602 1454 754 1454 c 2,31,-1
 824 1454 l 2,32,33
 994 1454 994 1454 1096 1308 c 0,34,35
 1188 1176 1188 1176 1188 1000 c 2,36,-1
 1188 0 l 1,0,-1
EndSplineSet
Ligature2: "'psts' Post Base Substitutions lookup 8 subtable" tm_ra tm_ikaar
EndChar

StartChar: tm_rr_ikaar
Encoding: 65557 -1 134
Width: 1520
GlyphClass: 2
Flags: W
LayerCount: 2
Fore
SplineSet
1418 0 m 1,0,-1
 1258 0 l 1,1,-1
 1258 1000 l 2,2,3
 1258 1340 1258 1340 1054 1340 c 2,4,-1
 984 1340 l 2,5,6
 898 1340 898 1340 840 1271 c 128,-1,7
 782 1202 782 1202 782 1114 c 2,8,-1
 782 1066 l 2,9,10
 782 994 782 994 828 950 c 1,11,12
 948 932 948 932 1012 840 c 0,13,14
 1074 756 1074 756 1074 632 c 2,15,-1
 1074 156 l 2,16,17
 1074 -250 1074 -250 644 -250 c 2,18,-1
 234 -250 l 2,19,20
 190 -250 190 -250 156 -276 c 128,-1,21
 122 -302 122 -302 122 -344 c 2,22,-1
 122 -524 l 1,23,-1
 -40 -524 l 1,24,-1
 -40 -344 l 2,25,26
 -40 -240 -40 -240 48 -184 c 0,27,28
 124 -136 124 -136 234 -136 c 2,29,-1
 668 -136 l 2,30,31
 800 -136 800 -136 866 -26 c 0,32,33
 918 62 918 62 918 204 c 2,34,-1
 918 632 l 2,35,36
 918 698 918 698 872 766 c 0,37,38
 820 840 820 840 758 840 c 0,39,40
 692 840 692 840 644 780 c 1,41,-1
 626 752 l 1,42,-1
 608 708 l 1,43,44
 598 668 598 668 598 632 c 2,45,-1
 598 0 l 1,46,-1
 438 0 l 1,47,-1
 438 680 l 2,48,49
 438 730 438 730 404 785 c 128,-1,50
 370 840 370 840 324 840 c 256,51,52
 278 840 278 840 233 792 c 128,-1,53
 188 744 188 744 188 704 c 2,54,-1
 188 0 l 1,55,-1
 32 0 l 1,56,-1
 32 704 l 2,57,58
 32 784 32 784 84 848 c 0,59,60
 134 906 134 906 212 934 c 0,61,62
 268 954 268 954 304 954 c 0,63,64
 398 954 398 954 488 882 c 0,65,66
 554 830 554 830 554 792 c 1,67,-1
 578 844 l 1,68,69
 614 902 614 902 672 930 c 1,70,71
 622 980 622 980 622 1066 c 2,72,-1
 622 1114 l 2,73,74
 622 1268 622 1268 725 1361 c 128,-1,75
 828 1454 828 1454 984 1454 c 2,76,-1
 1054 1454 l 2,77,78
 1214 1454 1214 1454 1322 1320 c 0,79,80
 1418 1202 1418 1202 1418 1000 c 2,81,-1
 1418 0 l 1,0,-1
EndSplineSet
Ligature2: "'psts' Post Base Substitutions lookup 8 subtable" tm_rra tm_ikaar
EndChar

StartChar: tm_l_ikaar
Encoding: 65558 -1 135
Width: 1800
GlyphClass: 2
Flags: W
LayerCount: 2
Fore
SplineSet
1672 0 m 1,0,-1
 1512 0 l 1,1,-1
 1512 1066 l 2,2,3
 1512 1162 1512 1162 1434 1263 c 128,-1,4
 1356 1364 1356 1364 1262 1364 c 2,5,-1
 1148 1364 l 2,6,7
 1074 1364 1074 1364 1002 1292 c 1,8,9
 940 1218 940 1218 940 1140 c 0,10,11
 940 1052 940 1052 1036 1000 c 1,12,13
 1160 960 1160 960 1234 861 c 128,-1,14
 1308 762 1308 762 1308 632 c 2,15,-1
 1308 292 l 2,16,17
 1308 158 1308 158 1202 74 c 0,18,19
 1108 0 1108 0 970 0 c 0,20,21
 844 0 844 0 758 73 c 128,-1,22
 672 146 672 146 672 270 c 2,23,-1
 672 632 l 2,24,25
 672 698 672 698 626 766 c 0,26,27
 574 840 574 840 512 840 c 2,28,-1
 442 840 l 2,29,30
 336 840 336 840 264 756 c 128,-1,31
 192 672 192 672 192 566 c 1,32,33
 252 630 252 630 342 630 c 0,34,35
 386 630 386 630 408 620 c 2,36,-1
 446 602 l 1,37,-1
 476 578 l 1,38,39
 536 520 536 520 536 430 c 2,40,-1
 536 226 l 2,41,42
 536 146 536 146 451 73 c 128,-1,43
 366 0 366 0 286 0 c 0,44,45
 180 0 180 0 108 62 c 128,-1,46
 36 124 36 124 36 226 c 2,47,-1
 36 520 l 2,48,49
 36 678 36 678 161 816 c 128,-1,50
 286 954 286 954 442 954 c 2,51,-1
 536 954 l 2,52,53
 670 954 670 954 752 858 c 0,54,55
 828 768 828 768 828 632 c 2,56,-1
 828 270 l 2,57,58
 828 210 828 210 876 158 c 1,59,60
 926 118 926 118 990 118 c 0,61,62
 1058 118 1058 118 1103 160 c 128,-1,63
 1148 202 1148 202 1148 270 c 2,64,-1
 1148 632 l 2,65,66
 1148 728 1148 728 1083 804 c 128,-1,67
 1018 880 1018 880 922 906 c 1,68,69
 850 958 850 958 818 1012 c 0,70,71
 804 1042 804 1042 794 1078 c 1,72,-1
 786 1176 l 2,73,74
 776 1288 776 1288 894 1386 c 0,75,76
 1002 1476 1002 1476 1148 1476 c 2,77,-1
 1262 1476 l 2,78,79
 1430 1476 1430 1476 1546 1380 c 0,80,81
 1672 1278 1672 1278 1672 1114 c 2,82,-1
 1672 0 l 1,0,-1
376 204 m 2,83,-1
 376 382 l 2,84,85
 376 470 376 470 284 470 c 256,86,87
 192 470 192 470 192 382 c 2,88,-1
 192 204 l 2,89,90
 192 168 192 168 219 143 c 128,-1,91
 246 118 246 118 284 118 c 256,92,93
 322 118 322 118 349 142 c 128,-1,94
 376 166 376 166 376 204 c 2,83,-1
EndSplineSet
Ligature2: "'psts' Post Base Substitutions lookup 8 subtable" tm_la tm_ikaar
EndChar

StartChar: tm_ll_ikaar
Encoding: 65559 -1 136
Width: 2090
GlyphClass: 2
Flags: W
LayerCount: 2
Fore
SplineSet
1876 0 m 1,0,-1
 1718 0 l 1,1,-1
 1718 1000 l 2,2,3
 1718 1340 1718 1340 1512 1340 c 2,4,-1
 1446 1340 l 2,5,6
 1372 1340 1372 1340 1300 1274 c 1,7,8
 1242 1206 1242 1206 1242 1114 c 2,9,-1
 1242 1066 l 2,10,11
 1242 1000 1242 1000 1286 954 c 1,12,-1
 1558 954 l 1,13,-1
 1558 840 l 1,14,-1
 1286 840 l 1,15,-1
 1286 0 l 1,16,-1
 1126 0 l 1,17,-1
 1126 840 l 1,18,-1
 1012 840 l 2,19,20
 952 840 952 840 914 802 c 128,-1,21
 876 764 876 764 876 704 c 2,22,-1
 876 0 l 1,23,-1
 718 0 l 1,24,-1
 718 656 l 2,25,26
 718 700 718 700 708 722 c 2,27,-1
 690 760 l 1,28,-1
 666 790 l 2,29,30
 626 840 626 840 582 840 c 2,31,-1
 446 840 l 2,32,33
 334 840 334 840 265 760 c 128,-1,34
 196 680 196 680 196 566 c 1,35,36
 258 628 258 628 342 628 c 0,37,38
 420 628 420 628 478 568 c 128,-1,39
 536 508 536 508 536 430 c 2,40,-1
 536 226 l 2,41,42
 536 126 536 126 461 66 c 128,-1,43
 386 6 386 6 282 6 c 256,44,45
 178 6 178 6 110 64 c 0,46,47
 36 124 36 124 36 226 c 2,48,-1
 36 520 l 2,49,50
 36 684 36 684 160 819 c 128,-1,51
 284 954 284 954 446 954 c 2,52,-1
 558 954 l 2,53,54
 686 954 686 954 782 840 c 1,55,56
 860 954 860 954 992 954 c 2,57,-1
 1126 954 l 1,58,59
 1082 1004 1082 1004 1082 1066 c 2,60,-1
 1082 1114 l 2,61,62
 1082 1264 1082 1264 1188 1359 c 128,-1,63
 1294 1454 1294 1454 1446 1454 c 2,64,-1
 1512 1454 l 2,65,66
 1674 1454 1674 1454 1780 1320 c 0,67,68
 1876 1198 1876 1198 1876 1000 c 2,69,-1
 1876 0 l 1,0,-1
376 204 m 2,70,-1
 376 382 l 2,71,72
 376 470 376 470 286 470 c 256,73,74
 196 470 196 470 196 382 c 2,75,-1
 196 204 l 2,76,77
 196 116 196 116 286 116 c 256,78,79
 376 116 376 116 376 204 c 2,70,-1
EndSplineSet
Ligature2: "'psts' Post Base Substitutions lookup 8 subtable" tm_lla tm_ikaar
EndChar

StartChar: tm_lll_ikaar
Encoding: 65560 -1 137
Width: 1590
GlyphClass: 2
Flags: W
LayerCount: 2
Fore
SplineSet
1464 0 m 1,0,-1
 1304 0 l 1,1,-1
 1304 1000 l 2,2,3
 1304 1340 1304 1340 1102 1340 c 2,4,-1
 1032 1340 l 2,5,6
 958 1340 958 1340 886 1274 c 1,7,8
 828 1206 828 1206 828 1114 c 2,9,-1
 828 1066 l 2,10,11
 828 994 828 994 872 950 c 1,12,13
 1144 950 1144 950 1144 632 c 2,14,-1
 1144 180 l 2,15,16
 1144 0 1144 0 988 0 c 2,17,-1
 738 0 l 1,18,19
 738 -106 738 -106 782 -136 c 1,20,-1
 1102 -136 l 1,21,-1
 1102 -250 l 1,22,-1
 738 -250 l 1,23,24
 702 -570 702 -570 328 -570 c 0,25,26
 222 -570 222 -570 134 -510 c 0,27,28
 32 -444 32 -444 32 -344 c 2,29,-1
 32 -296 l 2,30,31
 32 -244 32 -244 68 -198 c 1,32,33
 106 -160 106 -160 144 -160 c 1,34,-1
 214 -250 l 1,35,-1
 192 -274 l 2,36,37
 172 -296 172 -296 172 -332 c 0,38,39
 172 -370 172 -370 222 -420 c 1,40,41
 272 -458 272 -458 328 -458 c 0,42,43
 446 -458 446 -458 500 -406 c 0,44,45
 522 -384 522 -384 554 -302 c 128,-1,46
 586 -220 586 -220 626 -184 c 1,47,48
 578 -136 578 -136 578 0 c 1,49,-1
 32 0 l 1,50,-1
 32 954 l 1,51,-1
 192 954 l 1,52,-1
 192 114 l 1,53,-1
 578 114 l 1,54,-1
 578 770 l 2,55,56
 578 868 578 868 714 930 c 1,57,58
 668 992 668 992 668 1066 c 2,59,-1
 668 1114 l 2,60,61
 668 1264 668 1264 774 1359 c 128,-1,62
 880 1454 880 1454 1032 1454 c 2,63,-1
 1102 1454 l 2,64,65
 1276 1454 1276 1454 1376 1310 c 0,66,67
 1464 1182 1464 1182 1464 1000 c 2,68,-1
 1464 0 l 1,0,-1
988 226 m 2,69,-1
 988 632 l 2,70,71
 988 840 988 840 852 840 c 0,72,73
 810 840 810 840 764 798 c 1,74,75
 738 766 738 766 738 726 c 2,76,-1
 738 114 l 1,77,-1
 918 114 l 2,78,79
 988 114 988 114 988 226 c 2,69,-1
EndSplineSet
Ligature2: "'psts' Post Base Substitutions lookup 8 subtable" tm_llla tm_ikaar
EndChar

StartChar: tm_v_ikaar
Encoding: 65561 -1 138
Width: 2000
GlyphClass: 2
Flags: W
LayerCount: 2
Fore
SplineSet
1828 0 m 1,0,-1
 1672 0 l 1,1,-1
 1672 1066 l 2,2,3
 1672 1164 1672 1164 1606 1258 c 0,4,5
 1532 1364 1532 1364 1422 1364 c 0,6,7
 1320 1364 1320 1364 1238 1292 c 1,8,9
 1172 1220 1172 1220 1172 1114 c 2,10,-1
 1172 954 l 2,11,12
 1172 770 1172 770 1286 770 c 1,13,-1
 1286 954 l 1,14,-1
 1442 954 l 1,15,-1
 1442 0 l 1,16,-1
 648 0 l 1,17,-1
 648 132 l 1,18,19
 708 170 708 170 760 288 c 0,20,21
 808 398 808 398 808 476 c 0,22,23
 808 610 808 610 752 714 c 0,24,25
 682 840 682 840 558 840 c 2,26,-1
 442 840 l 2,27,28
 346 840 346 840 269 763 c 128,-1,29
 192 686 192 686 192 590 c 1,30,31
 244 636 244 636 314 636 c 0,32,33
 400 636 400 636 468 575 c 128,-1,34
 536 514 536 514 536 430 c 2,35,-1
 536 226 l 2,36,37
 536 146 536 146 451 73 c 128,-1,38
 366 0 366 0 286 0 c 0,39,40
 180 0 180 0 108 62 c 128,-1,41
 36 124 36 124 36 226 c 2,42,-1
 36 520 l 2,43,44
 36 694 36 694 153 824 c 128,-1,45
 270 954 270 954 442 954 c 2,46,-1
 578 954 l 2,47,48
 762 954 762 954 864 822 c 0,49,50
 958 700 958 700 958 512 c 0,51,52
 958 276 958 276 808 114 c 1,53,-1
 1286 114 l 1,54,-1
 1286 656 l 1,55,56
 1184 656 1184 656 1098 746 c 128,-1,57
 1012 836 1012 836 1012 976 c 2,58,-1
 1012 1156 l 2,59,60
 1012 1302 1012 1302 1134 1394 c 0,61,62
 1246 1476 1246 1476 1398 1476 c 0,63,64
 1614 1476 1614 1476 1732 1350 c 0,65,66
 1828 1248 1828 1248 1828 1066 c 2,67,-1
 1828 0 l 1,0,-1
376 204 m 2,68,-1
 376 382 l 2,69,70
 376 426 376 426 350 449 c 128,-1,71
 324 472 324 472 286 472 c 0,72,73
 192 472 192 472 192 382 c 2,74,-1
 192 204 l 2,75,76
 192 168 192 168 222 141 c 128,-1,77
 252 114 252 114 286 114 c 256,78,79
 320 114 320 114 348 142 c 128,-1,80
 376 170 376 170 376 204 c 2,68,-1
EndSplineSet
Ligature2: "'psts' Post Base Substitutions lookup 8 subtable" tm_va tm_ikaar
EndChar

StartChar: tm_ss_ikaar
Encoding: 65562 -1 139
Width: 2144
GlyphClass: 2
Flags: W
LayerCount: 2
Fore
SplineSet
2012 0 m 1,0,-1
 1856 0 l 1,1,-1
 1856 1000 l 2,2,3
 1856 1340 1856 1340 1648 1340 c 2,4,-1
 1582 1340 l 2,5,6
 1508 1340 1508 1340 1436 1274 c 1,7,8
 1376 1208 1376 1208 1376 1114 c 2,9,-1
 1376 1066 l 2,10,11
 1376 994 1376 994 1422 950 c 1,12,13
 1476 944 1476 944 1529 884 c 128,-1,14
 1582 824 1582 824 1582 770 c 2,15,-1
 1582 542 l 2,16,17
 1582 458 1582 458 1536 406 c 1,18,19
 1618 358 1618 358 1668 278 c 1,20,21
 1694 228 1694 228 1706 194 c 128,-1,22
 1718 160 1718 160 1718 132 c 2,23,-1
 1718 20 l 2,24,25
 1718 2 1718 2 1696 0 c 2,26,-1
 1356 0 l 1,27,-1
 1106 -546 l 1,28,-1
 968 -500 l 1,29,-1
 1196 0 l 1,30,-1
 648 0 l 1,31,-1
 648 114 l 1,32,33
 710 158 710 158 759 266 c 128,-1,34
 808 374 808 374 808 454 c 0,35,36
 808 588 808 588 750 700 c 0,37,38
 680 840 680 840 558 840 c 2,39,-1
 446 840 l 2,40,41
 350 840 350 840 273 752 c 128,-1,42
 196 664 196 664 196 566 c 1,43,44
 258 628 258 628 342 628 c 0,45,46
 420 628 420 628 478 568 c 128,-1,47
 536 508 536 508 536 430 c 2,48,-1
 536 226 l 2,49,50
 536 132 536 132 444 62 c 0,51,52
 360 0 360 0 262 0 c 0,53,54
 170 0 170 0 98 72 c 0,55,56
 36 134 36 134 36 226 c 2,57,-1
 36 520 l 2,58,59
 36 688 36 688 158 821 c 128,-1,60
 280 954 280 954 446 954 c 2,61,-1
 582 954 l 2,62,63
 750 954 750 954 868 802 c 0,64,65
 970 670 970 670 970 474 c 0,66,67
 970 234 970 234 808 114 c 1,68,-1
 1242 114 l 1,69,-1
 1356 340 l 1,70,71
 1242 356 1242 356 1168 416 c 0,72,73
 1082 484 1082 484 1082 590 c 2,74,-1
 1082 750 l 2,75,76
 1082 902 1082 902 1262 950 c 1,77,78
 1218 990 1218 990 1218 1066 c 2,79,-1
 1218 1114 l 2,80,81
 1218 1264 1218 1264 1324 1359 c 128,-1,82
 1430 1454 1430 1454 1582 1454 c 2,83,-1
 1648 1454 l 2,84,85
 1808 1454 1808 1454 1916 1320 c 0,86,87
 2012 1202 2012 1202 2012 1000 c 2,88,-1
 2012 0 l 1,0,-1
1422 542 m 2,89,-1
 1422 770 l 2,90,91
 1422 838 1422 838 1332 838 c 256,92,93
 1242 838 1242 838 1242 770 c 2,94,-1
 1242 542 l 2,95,96
 1242 518 1242 518 1270 496 c 1,97,98
 1292 486 1292 486 1332 476 c 1,99,100
 1422 476 1422 476 1422 542 c 2,89,-1
1564 156 m 1,101,102
 1564 228 1564 228 1492 292 c 1,103,-1
 1398 114 l 1,104,-1
 1558 114 l 1,105,-1
 1564 156 l 1,101,102
376 204 m 2,106,-1
 376 382 l 2,107,108
 376 470 376 470 286 470 c 256,109,110
 196 470 196 470 196 382 c 2,111,-1
 196 204 l 2,112,113
 196 116 196 116 284 116 c 0,114,115
 376 116 376 116 376 204 c 2,106,-1
EndSplineSet
Ligature2: "'psts' Post Base Substitutions lookup 8 subtable" tm_ssa tm_ikaar
EndChar

StartChar: tm_s_ikaar
Encoding: 65563 -1 140
Width: 2282
GlyphClass: 2
Flags: W
LayerCount: 2
Fore
SplineSet
2148 0 m 1,0,-1
 1992 0 l 1,1,-1
 1992 1066 l 2,2,3
 1992 1162 1992 1162 1914 1263 c 128,-1,4
 1836 1364 1836 1364 1742 1364 c 2,5,-1
 1626 1364 l 2,6,7
 1540 1364 1540 1364 1480 1297 c 128,-1,8
 1420 1230 1420 1230 1420 1142 c 0,9,10
 1420 1056 1420 1056 1512 1000 c 1,11,12
 1638 962 1638 962 1712 863 c 128,-1,13
 1786 764 1786 764 1786 632 c 2,14,-1
 1786 292 l 2,15,16
 1786 158 1786 158 1682 78 c 0,17,18
 1588 4 1588 4 1450 4 c 0,19,20
 1324 4 1324 4 1240 72 c 0,21,22
 1148 148 1148 148 1148 270 c 2,23,-1
 1148 656 l 2,24,25
 1148 714 1148 714 1110 774 c 0,26,27
 1066 840 1066 840 1012 840 c 2,28,-1
 968 840 l 2,29,30
 932 840 932 840 874 786 c 1,31,32
 832 732 832 732 832 680 c 2,33,-1
 832 0 l 1,34,-1
 672 0 l 1,35,-1
 672 614 l 2,36,37
 672 688 672 688 628 760 c 128,-1,38
 584 832 584 832 512 840 c 1,39,-1
 446 840 l 2,40,41
 358 840 358 840 277 759 c 128,-1,42
 196 678 196 678 196 590 c 1,43,44
 242 632 242 632 376 632 c 0,45,46
 444 632 444 632 490 566 c 128,-1,47
 536 500 536 500 536 430 c 2,48,-1
 536 226 l 2,49,50
 536 126 536 126 458 62 c 0,51,52
 388 4 388 4 284 4 c 0,53,54
 178 4 178 4 107 63 c 128,-1,55
 36 122 36 122 36 226 c 2,56,-1
 36 520 l 2,57,58
 36 700 36 700 152 827 c 128,-1,59
 268 954 268 954 446 954 c 2,60,-1
 536 954 l 2,61,62
 640 954 640 954 742 792 c 1,63,64
 774 854 774 854 849 904 c 128,-1,65
 924 954 924 954 992 954 c 2,66,-1
 1058 954 l 2,67,68
 1164 954 1164 954 1236 871 c 128,-1,69
 1308 788 1308 788 1308 680 c 2,70,-1
 1308 250 l 2,71,72
 1308 198 1308 198 1350 152 c 1,73,74
 1394 118 1394 118 1452 118 c 0,75,76
 1522 118 1522 118 1574 160 c 128,-1,77
 1626 202 1626 202 1626 270 c 2,78,-1
 1626 632 l 2,79,80
 1626 730 1626 730 1561 806 c 128,-1,81
 1496 882 1496 882 1398 906 c 1,82,83
 1320 966 1320 966 1296 1008 c 0,84,85
 1262 1066 1262 1066 1262 1176 c 0,86,87
 1262 1302 1262 1302 1384 1392 c 0,88,89
 1494 1476 1494 1476 1626 1476 c 2,90,-1
 1742 1476 l 2,91,92
 1910 1476 1910 1476 2024 1380 c 0,93,94
 2148 1278 2148 1278 2148 1114 c 2,95,-1
 2148 0 l 1,0,-1
376 204 m 2,96,-1
 376 382 l 2,97,98
 376 418 376 418 349 447 c 128,-1,99
 322 476 322 476 286 476 c 0,100,101
 256 476 256 476 226 444 c 128,-1,102
 196 412 196 412 196 382 c 2,103,-1
 196 204 l 2,104,105
 196 116 196 116 286 116 c 256,106,107
 376 116 376 116 376 204 c 2,96,-1
EndSplineSet
Ligature2: "'psts' Post Base Substitutions lookup 8 subtable" tm_sa tm_ikaar
EndChar

StartChar: tm_h_ikaar
Encoding: 65564 -1 141
Width: 2676
GlyphClass: 2
Flags: W
LayerCount: 2
Fore
SplineSet
2542 0 m 1,0,-1
 2382 0 l 1,1,-1
 2382 1000 l 2,2,3
 2382 1340 2382 1340 2180 1340 c 2,4,-1
 2110 1340 l 2,5,6
 2036 1340 2036 1340 1964 1274 c 1,7,8
 1906 1206 1906 1206 1906 1114 c 2,9,-1
 1906 1066 l 2,10,11
 1906 994 1906 994 1958 942 c 1,12,13
 2064 916 2064 916 2122 831 c 128,-1,14
 2180 746 2180 746 2180 632 c 2,15,-1
 2180 156 l 2,16,17
 2180 -250 2180 -250 1746 -250 c 2,18,-1
 472 -250 l 2,19,20
 388 -250 388 -250 360 -344 c 1,21,-1
 360 -524 l 1,22,-1
 200 -524 l 1,23,-1
 200 -344 l 2,24,25
 200 -240 200 -240 288 -184 c 0,26,27
 362 -136 362 -136 472 -136 c 2,28,-1
 1770 -136 l 2,29,30
 1902 -136 1902 -136 1968 -28 c 0,31,32
 2020 62 2020 62 2020 204 c 2,33,-1
 2020 632 l 2,34,35
 2020 708 2020 708 1978 770 c 0,36,37
 1932 840 1932 840 1860 840 c 0,38,39
 1700 840 1700 840 1700 632 c 2,40,-1
 1700 0 l 1,41,-1
 1542 0 l 1,42,-1
 1542 680 l 2,43,44
 1542 840 1542 840 1430 840 c 0,45,46
 1368 840 1368 840 1326 790 c 0,47,48
 1292 750 1292 750 1292 704 c 2,49,-1
 1292 0 l 1,50,-1
 656 0 l 1,51,-1
 656 114 l 1,52,53
 720 158 720 158 768 268 c 0,54,55
 812 370 812 370 812 454 c 0,56,57
 812 590 812 590 756 702 c 0,58,59
 686 840 686 840 562 840 c 2,60,-1
 450 840 l 2,61,62
 352 840 352 840 276 753 c 128,-1,63
 200 666 200 666 200 566 c 1,64,65
 262 628 262 628 346 628 c 0,66,67
 426 628 426 628 484 569 c 128,-1,68
 542 510 542 510 542 430 c 2,69,-1
 542 250 l 2,70,71
 542 148 542 148 458 77 c 128,-1,72
 374 6 374 6 272 6 c 256,73,74
 170 6 170 6 106 66 c 128,-1,75
 42 126 42 126 42 226 c 2,76,-1
 42 520 l 2,77,78
 42 690 42 690 162 822 c 128,-1,79
 282 954 282 954 450 954 c 2,80,-1
 562 954 l 2,81,82
 730 954 730 954 854 828 c 0,83,84
 972 708 972 708 972 476 c 0,85,86
 972 372 972 372 932 276 c 0,87,88
 888 172 888 172 812 114 c 1,89,-1
 1132 114 l 1,90,-1
 1132 704 l 2,91,92
 1132 804 1132 804 1218 879 c 128,-1,93
 1304 954 1304 954 1406 954 c 0,94,95
 1520 954 1520 954 1598 882 c 0,96,97
 1656 828 1656 828 1656 792 c 1,98,-1
 1664 810 l 1,99,-1
 1692 852 l 2,100,101
 1732 912 1732 912 1804 938 c 1,102,103
 1746 996 1746 996 1746 1066 c 2,104,-1
 1746 1114 l 2,105,106
 1746 1264 1746 1264 1852 1359 c 128,-1,107
 1958 1454 1958 1454 2110 1454 c 2,108,-1
 2180 1454 l 2,109,110
 2354 1454 2354 1454 2454 1310 c 0,111,112
 2542 1182 2542 1182 2542 1000 c 2,113,-1
 2542 0 l 1,0,-1
382 204 m 2,114,-1
 382 382 l 2,115,116
 382 470 382 470 292 470 c 0,117,118
 200 470 200 470 200 382 c 2,119,-1
 200 204 l 2,120,121
 200 116 200 116 288 116 c 0,122,123
 322 116 322 116 352 143 c 128,-1,124
 382 170 382 170 382 204 c 2,114,-1
EndSplineSet
Ligature2: "'psts' Post Base Substitutions lookup 8 subtable" tm_ha tm_ikaar
EndChar

StartChar: tm_k_iikaar
Encoding: 65565 -1 142
Width: 1336
GlyphClass: 2
Flags: W
LayerCount: 2
Fore
SplineSet
1282 1204 m 2,0,1
 1282 1152 1282 1152 1229 1109 c 128,-1,2
 1176 1066 1176 1066 1122 1066 c 2,3,-1
 1032 1066 l 2,4,5
 952 1066 952 1066 903 1118 c 128,-1,6
 854 1170 854 1170 854 1250 c 0,7,8
 854 1298 854 1298 872 1340 c 1,9,10
 816 1340 816 1340 763 1288 c 128,-1,11
 710 1236 710 1236 710 1180 c 2,12,-1
 710 1132 l 2,13,14
 710 1054 710 1054 782 954 c 1,15,-1
 1074 954 l 1,16,-1
 1074 840 l 1,17,-1
 804 840 l 1,18,-1
 804 590 l 1,19,-1
 938 590 l 2,20,21
 1210 590 1210 590 1210 382 c 2,22,-1
 1210 250 l 2,23,24
 1210 144 1210 144 1126 66 c 0,25,26
 1030 -24 1030 -24 908 -14 c 2,27,-1
 836 -8 l 1,28,-1
 894 114 l 1,29,-1
 918 110 l 1,30,31
 968 110 968 110 1011 162 c 128,-1,32
 1054 214 1054 214 1054 270 c 2,33,-1
 1054 364 l 2,34,35
 1054 476 1054 476 918 476 c 2,36,-1
 804 476 l 1,37,-1
 804 292 l 2,38,39
 804 0 804 0 394 0 c 0,40,41
 256 0 256 0 152 64 c 0,42,43
 32 140 32 140 32 270 c 2,44,-1
 32 454 l 2,45,46
 32 492 32 492 68 546 c 1,47,-1
 104 578 l 2,48,49
 122 590 122 590 144 590 c 2,50,-1
 234 590 l 1,51,-1
 234 954 l 1,52,-1
 622 954 l 1,53,54
 612 966 612 966 576 1042 c 1,55,-1
 560 1092 l 1,56,-1
 554 1132 l 1,57,-1
 554 1204 l 2,58,59
 554 1316 554 1316 660 1390 c 0,60,61
 756 1454 756 1454 872 1454 c 2,62,-1
 996 1454 l 2,63,64
 1104 1454 1104 1454 1182 1416 c 0,65,66
 1282 1366 1282 1366 1282 1270 c 2,67,-1
 1282 1204 l 2,0,1
1122 1250 m 2,68,-1
 1122 1292 l 2,69,70
 1122 1358 1122 1358 1054 1358 c 0,71,72
 984 1358 984 1358 984 1292 c 2,73,-1
 984 1250 l 2,74,75
 984 1180 984 1180 1052 1180 c 0,76,77
 1122 1180 1122 1180 1122 1250 c 2,68,-1
644 590 m 1,78,-1
 644 840 l 1,79,-1
 394 840 l 1,80,-1
 394 590 l 1,81,-1
 644 590 l 1,78,-1
644 270 m 2,82,-1
 644 476 l 1,83,-1
 258 476 l 2,84,85
 210 476 210 476 210 430 c 2,86,-1
 210 250 l 2,87,88
 210 210 210 210 276 156 c 1,89,90
 342 114 342 114 418 114 c 0,91,92
 490 114 490 114 562 154 c 0,93,94
 644 202 644 202 644 270 c 2,82,-1
EndSplineSet
Ligature2: "'abvs' Above Base Substitutions lookup 6 subtable" tm_ka tm_iikaar
EndChar

StartChar: tm_ng_iikaar
Encoding: 65566 -1 143
Width: 1520
GlyphClass: 2
Flags: W
LayerCount: 2
Fore
SplineSet
1602 1270 m 0,0,1
 1602 1170 1602 1170 1540 1118 c 128,-1,2
 1478 1066 1478 1066 1376 1066 c 0,3,4
 1192 1066 1192 1066 1192 1250 c 1,5,6
 1126 1220 1126 1220 1126 1114 c 2,7,-1
 1126 976 l 2,8,9
 1126 770 1126 770 1238 770 c 1,10,-1
 1238 954 l 1,11,-1
 1394 954 l 1,12,-1
 1394 0 l 1,13,-1
 394 0 l 1,14,-1
 394 114 l 1,15,-1
 692 114 l 1,16,17
 852 174 852 174 852 406 c 0,18,19
 852 464 852 464 818 514 c 128,-1,20
 784 564 784 564 728 564 c 0,21,22
 644 564 644 564 602 476 c 1,23,-1
 602 270 l 1,24,-1
 442 270 l 1,25,-1
 442 840 l 1,26,-1
 192 840 l 1,27,-1
 192 0 l 1,28,-1
 32 0 l 1,29,-1
 32 954 l 1,30,-1
 852 954 l 1,31,-1
 852 840 l 1,32,-1
 602 840 l 1,33,-1
 602 614 l 1,34,35
 668 680 668 680 804 680 c 0,36,37
 900 680 900 680 958 588 c 0,38,39
 1008 508 1008 508 1008 406 c 0,40,41
 1008 208 1008 208 894 114 c 1,42,-1
 1238 114 l 1,43,-1
 1238 656 l 1,44,45
 1122 656 1122 656 1040 760 c 0,46,47
 964 858 964 858 964 976 c 2,48,-1
 964 1156 l 2,49,50
 964 1272 964 1272 1064 1368 c 0,51,52
 1176 1476 1176 1476 1352 1476 c 0,53,54
 1602 1476 1602 1476 1602 1270 c 0,0,1
1460 1268 m 0,55,56
 1460 1306 1460 1306 1436 1335 c 128,-1,57
 1412 1364 1412 1364 1376 1364 c 0,58,59
 1306 1364 1306 1364 1306 1270 c 0,60,61
 1306 1180 1306 1180 1376 1180 c 0,62,63
 1460 1180 1460 1180 1460 1268 c 0,55,56
EndSplineSet
Ligature2: "'abvs' Above Base Substitutions lookup 6 subtable" tm_nga tm_iikaar
EndChar

StartChar: tm_c_iikaar
Encoding: 65567 -1 144
Width: 1174
GlyphClass: 2
Flags: W
LayerCount: 2
Fore
SplineSet
1262 1204 m 2,0,1
 1262 1168 1262 1168 1220 1110 c 1,2,3
 1176 1066 1176 1066 1122 1066 c 2,4,-1
 1032 1066 l 2,5,6
 952 1066 952 1066 903 1118 c 128,-1,7
 854 1170 854 1170 854 1250 c 0,8,9
 854 1298 854 1298 872 1340 c 1,10,11
 816 1340 816 1340 763 1288 c 128,-1,12
 710 1236 710 1236 710 1180 c 2,13,-1
 710 1132 l 2,14,15
 710 1054 710 1054 782 954 c 1,16,-1
 1074 954 l 1,17,-1
 1074 840 l 1,18,-1
 804 840 l 1,19,-1
 804 590 l 1,20,-1
 1054 590 l 1,21,-1
 1054 476 l 1,22,-1
 804 476 l 1,23,-1
 804 292 l 2,24,25
 804 0 804 0 394 0 c 0,26,27
 256 0 256 0 152 64 c 0,28,29
 32 140 32 140 32 270 c 2,30,-1
 32 454 l 2,31,32
 32 492 32 492 68 546 c 1,33,-1
 104 578 l 2,34,35
 122 590 122 590 144 590 c 2,36,-1
 234 590 l 1,37,-1
 234 954 l 1,38,-1
 622 954 l 1,39,40
 612 966 612 966 576 1042 c 1,41,-1
 560 1092 l 1,42,-1
 554 1132 l 1,43,-1
 554 1204 l 2,44,45
 554 1316 554 1316 660 1390 c 0,46,47
 756 1454 756 1454 872 1454 c 2,48,-1
 996 1454 l 2,49,50
 1262 1454 1262 1454 1262 1270 c 2,51,-1
 1262 1204 l 2,0,1
1122 1250 m 2,52,-1
 1122 1292 l 2,53,54
 1122 1358 1122 1358 1054 1358 c 0,55,56
 984 1358 984 1358 984 1292 c 2,57,-1
 984 1250 l 2,58,59
 984 1180 984 1180 1052 1180 c 0,60,61
 1122 1180 1122 1180 1122 1250 c 2,52,-1
644 590 m 1,62,-1
 644 840 l 1,63,-1
 394 840 l 1,64,-1
 394 590 l 1,65,-1
 644 590 l 1,62,-1
644 270 m 2,66,-1
 644 476 l 1,67,-1
 258 476 l 2,68,69
 210 476 210 476 210 430 c 2,70,-1
 210 250 l 2,71,72
 210 210 210 210 276 156 c 1,73,74
 342 114 342 114 418 114 c 0,75,76
 490 114 490 114 562 154 c 0,77,78
 644 202 644 202 644 270 c 2,66,-1
EndSplineSet
Ligature2: "'abvs' Above Base Substitutions lookup 6 subtable" tm_ca tm_iikaar
EndChar

StartChar: tm_j_iikaar
Encoding: 65568 -1 145
Width: 1476
GlyphClass: 2
Flags: W
LayerCount: 2
Fore
SplineSet
1554 1204 m 2,0,1
 1554 1158 1554 1158 1506 1112 c 128,-1,2
 1458 1066 1458 1066 1394 1066 c 2,3,-1
 1304 1066 l 2,4,5
 1228 1066 1228 1066 1176 1123 c 128,-1,6
 1124 1180 1124 1180 1128 1254 c 2,7,-1
 1130 1300 l 1,8,-1
 1144 1340 l 1,9,10
 1088 1340 1088 1340 1038 1288 c 128,-1,11
 988 1236 988 1236 988 1180 c 2,12,-1
 988 1132 l 2,13,14
 988 1062 988 1062 1054 954 c 1,15,-1
 1078 954 l 2,16,17
 1194 954 1194 954 1266 848 c 0,18,19
 1328 754 1328 754 1328 632 c 2,20,-1
 1328 382 l 2,21,22
 1328 318 1328 318 1304 248 c 1,23,-1
 1274 190 l 1,24,-1
 1252 162 l 1,25,-1
 1228 134 l 2,26,27
 1130 20 1130 20 942 20 c 2,28,-1
 464 20 l 2,29,30
 376 20 376 20 290 -38 c 0,31,32
 192 -102 192 -102 192 -184 c 2,33,-1
 192 -296 l 2,34,35
 192 -458 192 -458 376 -458 c 2,36,-1
 418 -458 l 2,37,38
 462 -458 462 -458 548 -358 c 0,39,40
 680 -204 680 -204 720 -170 c 0,41,42
 838 -70 838 -70 942 -70 c 2,43,-1
 1078 -70 l 2,44,45
 1164 -70 1164 -70 1242 -128 c 0,46,47
 1328 -192 1328 -192 1328 -274 c 2,48,-1
 1328 -368 l 2,49,50
 1328 -466 1328 -466 1250 -522 c 0,51,52
 1180 -570 1180 -570 1078 -570 c 2,53,-1
 894 -570 l 2,54,55
 792 -570 792 -570 738 -480 c 1,56,-1
 804 -386 l 1,57,58
 840 -458 840 -458 942 -458 c 2,59,-1
 1008 -458 l 2,60,61
 1050 -458 1050 -458 1106 -420 c 128,-1,62
 1162 -382 1162 -382 1168 -344 c 1,63,-1
 1168 -296 l 2,64,65
 1168 -262 1168 -262 1120 -216 c 1,66,-1
 1072 -190 l 1,67,-1
 1032 -184 l 1,68,-1
 918 -184 l 2,69,70
 842 -184 842 -184 758 -284 c 2,71,-1
 600 -470 l 2,72,73
 516 -570 516 -570 394 -570 c 2,74,-1
 352 -570 l 2,75,76
 236 -570 236 -570 140 -510 c 0,77,78
 32 -442 32 -442 32 -320 c 2,79,-1
 32 -184 l 2,80,81
 32 -34 32 -34 192 56 c 0,82,83
 328 132 328 132 488 132 c 2,84,-1
 918 132 l 2,85,86
 1016 132 1016 132 1092 208 c 128,-1,87
 1168 284 1168 284 1168 382 c 2,88,-1
 1168 614 l 2,89,90
 1168 686 1168 686 1136 754 c 0,91,92
 1096 840 1096 840 1032 840 c 2,93,-1
 988 840 l 2,94,95
 940 840 940 840 882 786 c 1,96,97
 828 722 828 722 828 614 c 2,98,-1
 828 250 l 1,99,-1
 668 250 l 1,100,-1
 668 590 l 2,101,102
 668 680 668 680 634 750 c 0,103,104
 590 840 590 840 508 840 c 2,105,-1
 418 840 l 2,106,107
 268 840 268 840 238 750 c 1,108,-1
 304 758 l 1,109,110
 396 758 396 758 464 696 c 128,-1,111
 532 634 532 634 532 542 c 2,112,-1
 532 476 l 2,113,114
 532 386 532 386 454 310 c 1,115,116
 380 254 380 254 284 254 c 0,117,118
 178 254 178 254 108 310 c 0,119,120
 32 372 32 372 32 476 c 2,121,-1
 32 614 l 2,122,123
 32 748 32 748 137 851 c 128,-1,124
 242 954 242 954 376 954 c 2,125,-1
 464 954 l 2,126,127
 544 954 544 954 619 908 c 128,-1,128
 694 862 694 862 738 792 c 1,129,130
 796 906 796 906 906 942 c 1,131,132
 880 968 880 968 854 1031 c 128,-1,133
 828 1094 828 1094 828 1132 c 2,134,-1
 828 1204 l 2,135,136
 828 1316 828 1316 934 1388 c 0,137,138
 1028 1454 1028 1454 1144 1454 c 2,139,-1
 1270 1454 l 2,140,141
 1382 1454 1382 1454 1456 1418 c 0,142,143
 1554 1370 1554 1370 1554 1270 c 2,144,-1
 1554 1204 l 2,0,1
1394 1250 m 2,145,-1
 1394 1292 l 2,146,147
 1394 1358 1394 1358 1328 1358 c 0,148,149
 1258 1358 1258 1358 1258 1292 c 2,150,-1
 1258 1250 l 2,151,152
 1258 1180 1258 1180 1328 1180 c 0,153,154
 1394 1180 1394 1180 1394 1250 c 2,145,-1
376 430 m 2,155,-1
 376 566 l 2,156,157
 376 634 376 634 284 634 c 256,158,159
 192 634 192 634 192 566 c 2,160,-1
 192 430 l 1,161,162
 202 364 202 364 286 364 c 0,163,164
 376 364 376 364 376 430 c 2,155,-1
EndSplineSet
Ligature2: "'abvs' Above Base Substitutions lookup 6 subtable" tm_ja tm_iikaar
EndChar

StartChar: tm_ny_iikaar
Encoding: 65569 -1 146
Width: 1844
GlyphClass: 2
Flags: W
LayerCount: 2
Fore
SplineSet
1828 1204 m 2,0,1
 1828 1158 1828 1158 1780 1112 c 128,-1,2
 1732 1066 1732 1066 1672 1066 c 2,3,-1
 1578 1066 l 2,4,5
 1502 1066 1502 1066 1450 1120 c 1,6,7
 1406 1176 1406 1176 1406 1252 c 0,8,9
 1406 1302 1406 1302 1422 1340 c 1,10,11
 1368 1340 1368 1340 1315 1288 c 128,-1,12
 1262 1236 1262 1236 1262 1180 c 2,13,-1
 1262 1132 l 2,14,15
 1262 1056 1262 1056 1328 954 c 1,16,-1
 1602 954 l 1,17,-1
 1602 840 l 1,18,-1
 1328 840 l 1,19,-1
 1328 520 l 1,20,21
 1394 550 1394 550 1450 550 c 0,22,23
 1570 550 1570 550 1646 432 c 0,24,25
 1714 330 1714 330 1714 204 c 0,26,27
 1714 -160 1714 -160 1470 -340 c 0,28,29
 1254 -500 1254 -500 876 -500 c 0,30,31
 524 -500 524 -500 276 -250 c 0,32,33
 164 -138 164 -138 98 -12 c 0,34,35
 54 72 54 72 40 180 c 0,36,37
 38 200 38 200 36 250 c 2,38,-1
 34 328 l 2,39,40
 28 596 28 596 214 882 c 1,41,-1
 286 792 l 1,42,43
 144 536 144 536 144 314 c 0,44,45
 144 34 144 34 376 -168 c 0,46,47
 578 -344 578 -344 876 -386 c 1,48,49
 1030 -386 1030 -386 1198 -330 c 0,50,51
 1442 -248 1442 -248 1526 -54 c 0,52,53
 1562 32 1562 32 1562 176 c 2,54,-1
 1562 268 l 1,55,-1
 1558 292 l 1,56,57
 1558 340 1558 340 1516 376 c 128,-1,58
 1474 412 1474 412 1426 412 c 0,59,60
 1380 412 1380 412 1328 364 c 1,61,-1
 1328 0 l 1,62,-1
 1172 0 l 1,63,-1
 1172 840 l 1,64,-1
 808 840 l 2,65,66
 712 840 712 840 635 763 c 128,-1,67
 558 686 558 686 558 590 c 1,68,69
 614 640 614 640 678 640 c 0,70,71
 764 640 764 640 831 577 c 128,-1,72
 898 514 898 514 898 430 c 2,73,-1
 898 226 l 2,74,75
 898 126 898 126 820 62 c 0,76,77
 750 4 750 4 646 4 c 0,78,79
 540 4 540 4 469 63 c 128,-1,80
 398 122 398 122 398 226 c 2,81,-1
 398 520 l 2,82,83
 398 692 398 692 517 823 c 128,-1,84
 636 954 636 954 808 954 c 2,85,-1
 1172 954 l 1,86,87
 1140 992 1140 992 1124 1040 c 2,88,-1
 1108 1090 l 1,89,-1
 1102 1132 l 1,90,-1
 1102 1204 l 2,91,92
 1102 1316 1102 1316 1210 1390 c 0,93,94
 1304 1454 1304 1454 1422 1454 c 2,95,-1
 1546 1454 l 2,96,97
 1676 1454 1676 1454 1752 1402 c 128,-1,98
 1828 1350 1828 1350 1828 1270 c 2,99,-1
 1828 1204 l 2,0,1
1672 1250 m 2,100,-1
 1672 1292 l 2,101,102
 1672 1358 1672 1358 1602 1358 c 0,103,104
 1536 1358 1536 1358 1536 1292 c 2,105,-1
 1536 1250 l 2,106,107
 1536 1180 1536 1180 1602 1180 c 0,108,109
 1672 1180 1672 1180 1672 1250 c 2,100,-1
738 204 m 2,110,-1
 738 382 l 2,111,112
 738 424 738 424 712 447 c 128,-1,113
 686 470 686 470 646 470 c 0,114,115
 558 470 558 470 558 382 c 2,116,-1
 558 204 l 2,117,118
 558 116 558 116 648 116 c 256,119,120
 738 116 738 116 738 204 c 2,110,-1
EndSplineSet
Ligature2: "'abvs' Above Base Substitutions lookup 6 subtable" tm_nya tm_iikaar
EndChar

StartChar: tm_tt_iikaar
Encoding: 65570 -1 147
Width: 1290
GlyphClass: 2
Flags: W
LayerCount: 2
Fore
SplineSet
1140 364 m 2,0,1
 1140 318 1140 318 1092 272 c 128,-1,2
 1044 226 1044 226 984 226 c 2,3,-1
 890 226 l 2,4,5
 816 226 816 226 762 280 c 1,6,7
 718 336 718 336 718 410 c 0,8,9
 718 472 718 472 734 500 c 1,10,11
 680 500 680 500 627 448 c 128,-1,12
 574 396 574 396 574 340 c 2,13,-1
 574 292 l 2,14,15
 574 222 574 222 640 114 c 1,16,-1
 484 114 l 1,17,-1
 440 198 l 1,18,19
 420 254 420 254 414 292 c 1,20,-1
 414 364 l 2,21,22
 414 480 414 480 518 564 c 0,23,24
 616 642 616 642 736 642 c 2,25,-1
 862 642 l 2,26,27
 966 642 966 642 1048 590 c 0,28,29
 1140 530 1140 530 1140 430 c 2,30,-1
 1140 364 l 2,0,1
1164 0 m 1,31,-1
 28 0 l 1,32,-1
 28 954 l 1,33,-1
 188 954 l 1,34,-1
 188 114 l 1,35,-1
 1164 114 l 1,36,-1
 1164 0 l 1,31,-1
984 406 m 2,37,-1
 984 454 l 2,38,39
 984 518 984 518 914 518 c 0,40,41
 848 518 848 518 848 454 c 2,42,-1
 848 406 l 2,43,44
 848 340 848 340 914 340 c 0,45,46
 984 340 984 340 984 406 c 2,37,-1
EndSplineSet
Ligature2: "'abvs' Above Base Substitutions lookup 5 subtable" tm_tta tm_iikaar
EndChar

StartChar: tm_nn_iikaar
Encoding: 65571 -1 148
Width: 2512
GlyphClass: 2
Flags: W
LayerCount: 2
Fore
SplineSet
2652 1204 m 2,0,1
 2652 1152 2652 1152 2599 1109 c 128,-1,2
 2546 1066 2546 1066 2492 1066 c 2,3,-1
 2402 1066 l 2,4,5
 2320 1066 2320 1066 2273 1118 c 128,-1,6
 2226 1170 2226 1170 2226 1252 c 0,7,8
 2226 1302 2226 1302 2242 1340 c 1,9,10
 2188 1340 2188 1340 2135 1288 c 128,-1,11
 2082 1236 2082 1236 2082 1180 c 2,12,-1
 2082 1132 l 2,13,14
 2082 1056 2082 1056 2152 954 c 1,15,-1
 2446 954 l 1,16,-1
 2446 840 l 1,17,-1
 2176 840 l 1,18,-1
 2176 0 l 1,19,-1
 2016 0 l 1,20,-1
 2016 840 l 1,21,-1
 1832 840 l 2,22,23
 1754 840 1754 840 1696 816 c 1,24,25
 1758 758 1758 758 1780 690 c 2,26,-1
 1804 614 l 1,27,-1
 1812 542 l 1,28,-1
 1812 226 l 2,29,30
 1812 126 1812 126 1738 60 c 0,31,32
 1672 0 1672 0 1560 0 c 0,33,34
 1454 0 1454 0 1386 60 c 0,35,36
 1312 122 1312 122 1312 226 c 2,37,-1
 1312 542 l 2,38,39
 1312 680 1312 680 1446 816 c 1,40,41
 1404 840 1404 840 1290 840 c 2,42,-1
 1196 840 l 2,43,44
 1116 840 1116 840 1062 816 c 1,45,46
 1104 774 1104 774 1144 688 c 0,47,48
 1164 646 1164 646 1168 612 c 2,49,-1
 1176 542 l 1,50,-1
 1176 226 l 2,51,52
 1176 120 1176 120 1098 58 c 0,53,54
 1028 2 1028 2 924 2 c 0,55,56
 816 2 816 2 746 61 c 128,-1,57
 676 120 676 120 676 226 c 2,58,-1
 676 542 l 2,59,60
 676 686 676 686 812 816 c 1,61,62
 766 840 766 840 652 840 c 2,63,-1
 446 840 l 2,64,65
 340 840 340 840 268 756 c 128,-1,66
 196 672 196 672 196 566 c 1,67,68
 258 628 258 628 338 628 c 0,69,70
 424 628 424 628 482 561 c 128,-1,71
 540 494 540 494 540 406 c 2,72,-1
 540 226 l 2,73,74
 540 126 540 126 465 66 c 128,-1,75
 390 6 390 6 286 6 c 256,76,77
 182 6 182 6 114 64 c 0,78,79
 40 124 40 124 40 226 c 2,80,-1
 40 520 l 2,81,82
 40 694 40 694 157 824 c 128,-1,83
 274 954 274 954 446 954 c 2,84,-1
 696 954 l 1,85,-1
 754 948 l 2,86,87
 768 946 768 946 826 926 c 0,88,89
 898 900 898 900 926 882 c 1,90,91
 1052 954 1052 954 1082 954 c 2,92,-1
 1332 954 l 1,93,-1
 1390 948 l 2,94,95
 1404 946 1404 946 1462 926 c 0,96,97
 1534 900 1534 900 1562 882 c 1,98,99
 1694 954 1694 954 1742 954 c 2,100,-1
 1992 954 l 1,101,102
 1980 970 1980 970 1946 1042 c 1,103,-1
 1926 1132 l 1,104,-1
 1926 1204 l 2,105,106
 1926 1316 1926 1316 2032 1388 c 0,107,108
 2126 1454 2126 1454 2242 1454 c 2,109,-1
 2368 1454 l 2,110,111
 2476 1454 2476 1454 2552 1416 c 0,112,113
 2652 1366 2652 1366 2652 1270 c 2,114,-1
 2652 1204 l 2,0,1
2492 1250 m 2,115,-1
 2492 1292 l 2,116,117
 2492 1358 2492 1358 2426 1358 c 0,118,119
 2356 1358 2356 1358 2356 1292 c 2,120,-1
 2356 1250 l 2,121,122
 2356 1180 2356 1180 2422 1180 c 0,123,124
 2492 1180 2492 1180 2492 1250 c 2,115,-1
1652 204 m 2,125,-1
 1652 566 l 2,126,127
 1652 628 1652 628 1562 656 c 1,128,129
 1538 656 1538 656 1502 626 c 0,130,131
 1482 606 1482 606 1468 566 c 1,132,-1
 1468 204 l 2,133,134
 1468 120 1468 120 1558 120 c 0,135,136
 1652 120 1652 120 1652 204 c 2,125,-1
1016 204 m 2,137,-1
 1016 566 l 2,138,139
 1016 650 1016 650 926 650 c 0,140,141
 832 650 832 650 832 566 c 2,142,-1
 832 204 l 2,143,144
 832 120 832 120 922 120 c 0,145,146
 1016 120 1016 120 1016 204 c 2,137,-1
378 204 m 2,147,-1
 378 382 l 2,148,149
 378 468 378 468 288 468 c 0,150,151
 196 468 196 468 196 382 c 2,152,-1
 196 204 l 2,153,154
 196 168 196 168 223 143 c 128,-1,155
 250 118 250 118 288 118 c 0,156,157
 324 118 324 118 351 142 c 128,-1,158
 378 166 378 166 378 204 c 2,147,-1
EndSplineSet
Ligature2: "'abvs' Above Base Substitutions lookup 6 subtable" tm_nna tm_iikaar
EndChar

StartChar: tm_t_iikaar
Encoding: 65572 -1 149
Width: 1336
GlyphClass: 2
Flags: W
LayerCount: 2
Fore
SplineSet
1282 1204 m 2,0,1
 1282 1152 1282 1152 1229 1109 c 128,-1,2
 1176 1066 1176 1066 1122 1066 c 2,3,-1
 1032 1066 l 2,4,5
 952 1066 952 1066 903 1118 c 128,-1,6
 854 1170 854 1170 854 1250 c 0,7,8
 854 1298 854 1298 872 1340 c 1,9,10
 816 1340 816 1340 763 1288 c 128,-1,11
 710 1236 710 1236 710 1180 c 2,12,-1
 710 1132 l 2,13,14
 710 1054 710 1054 782 954 c 1,15,-1
 1074 954 l 1,16,-1
 1074 840 l 1,17,-1
 804 840 l 1,18,-1
 804 590 l 1,19,-1
 938 590 l 2,20,21
 1052 590 1052 590 1124 544 c 0,22,23
 1210 488 1210 488 1210 382 c 2,24,-1
 1210 156 l 2,25,26
 1210 -32 1210 -32 1052 -150 c 0,27,28
 918 -250 918 -250 758 -250 c 2,29,-1
 324 -250 l 2,30,31
 280 -250 280 -250 245 -276 c 128,-1,32
 210 -302 210 -302 210 -344 c 2,33,-1
 210 -524 l 1,34,-1
 54 -524 l 1,35,-1
 54 -344 l 2,36,37
 54 -136 54 -136 324 -136 c 2,38,-1
 758 -136 l 2,39,40
 860 -136 860 -136 957 -52 c 128,-1,41
 1054 32 1054 32 1054 132 c 2,42,-1
 1054 340 l 2,43,44
 1054 476 1054 476 918 476 c 2,45,-1
 804 476 l 1,46,-1
 804 292 l 2,47,48
 804 0 804 0 394 0 c 0,49,50
 256 0 256 0 152 64 c 0,51,52
 32 140 32 140 32 270 c 2,53,-1
 32 454 l 2,54,55
 32 492 32 492 68 546 c 1,56,-1
 104 578 l 2,57,58
 122 590 122 590 144 590 c 2,59,-1
 234 590 l 1,60,-1
 234 954 l 1,61,-1
 622 954 l 1,62,63
 554 1052 554 1052 554 1132 c 2,64,-1
 554 1204 l 2,65,66
 554 1316 554 1316 660 1390 c 0,67,68
 756 1454 756 1454 872 1454 c 2,69,-1
 996 1454 l 2,70,71
 1104 1454 1104 1454 1182 1416 c 0,72,73
 1282 1366 1282 1366 1282 1270 c 2,74,-1
 1282 1204 l 2,0,1
1122 1250 m 2,75,-1
 1122 1292 l 2,76,77
 1122 1358 1122 1358 1054 1358 c 0,78,79
 984 1358 984 1358 984 1292 c 2,80,-1
 984 1250 l 2,81,82
 984 1180 984 1180 1052 1180 c 0,83,84
 1122 1180 1122 1180 1122 1250 c 2,75,-1
644 590 m 1,85,-1
 644 840 l 1,86,-1
 394 840 l 1,87,-1
 394 590 l 1,88,-1
 644 590 l 1,85,-1
644 270 m 2,89,-1
 644 476 l 1,90,-1
 258 476 l 2,91,92
 210 476 210 476 210 430 c 2,93,-1
 210 250 l 2,94,95
 210 210 210 210 276 156 c 1,96,97
 342 114 342 114 418 114 c 0,98,99
 490 114 490 114 562 154 c 0,100,101
 644 202 644 202 644 270 c 2,89,-1
EndSplineSet
Ligature2: "'abvs' Above Base Substitutions lookup 6 subtable" tm_ta tm_iikaar
EndChar

StartChar: tm_n_iikaar
Encoding: 65573 -1 150
Width: 1106
GlyphClass: 2
Flags: W
LayerCount: 2
Fore
SplineSet
1050 1204 m 2,0,1
 1050 1152 1050 1152 997 1109 c 128,-1,2
 944 1066 944 1066 890 1066 c 2,3,-1
 800 1066 l 2,4,5
 718 1066 718 1066 671 1118 c 128,-1,6
 624 1170 624 1170 624 1252 c 0,7,8
 624 1302 624 1302 640 1340 c 1,9,10
 586 1340 586 1340 533 1288 c 128,-1,11
 480 1236 480 1236 480 1180 c 2,12,-1
 480 1132 l 2,13,14
 480 1042 480 1042 550 954 c 1,15,-1
 844 954 l 1,16,-1
 844 840 l 1,17,-1
 570 840 l 1,18,-1
 570 406 l 1,19,20
 634 470 634 470 732 470 c 0,21,22
 836 470 836 470 908 400 c 128,-1,23
 980 330 980 330 980 226 c 2,24,-1
 980 0 l 2,25,26
 980 -250 980 -250 594 -250 c 2,27,-1
 188 -250 l 2,28,29
 50 -250 50 -250 50 -344 c 2,30,-1
 50 -524 l 1,31,-1
 -86 -524 l 1,32,-1
 -86 -344 l 2,33,34
 -86 -136 -86 -136 164 -136 c 2,35,-1
 618 -136 l 2,36,37
 698 -136 698 -136 754 -98 c 0,38,39
 820 -56 820 -56 820 20 c 2,40,-1
 820 204 l 2,41,42
 820 358 820 358 708 358 c 0,43,44
 628 358 628 358 570 270 c 1,45,-1
 570 0 l 1,46,-1
 414 0 l 1,47,-1
 414 840 l 1,48,-1
 164 840 l 1,49,-1
 164 0 l 1,50,-1
 4 0 l 1,51,-1
 4 954 l 1,52,-1
 390 954 l 1,53,54
 320 1030 320 1030 320 1132 c 2,55,-1
 320 1204 l 2,56,57
 320 1316 320 1316 428 1390 c 0,58,59
 522 1454 522 1454 640 1454 c 2,60,-1
 766 1454 l 2,61,62
 874 1454 874 1454 950 1416 c 0,63,64
 1050 1366 1050 1366 1050 1270 c 2,65,-1
 1050 1204 l 2,0,1
890 1250 m 2,66,-1
 890 1292 l 2,67,68
 890 1360 890 1360 822 1360 c 256,69,70
 754 1360 754 1360 754 1292 c 2,71,-1
 754 1250 l 2,72,73
 754 1180 754 1180 820 1180 c 0,74,75
 890 1180 890 1180 890 1250 c 2,66,-1
EndSplineSet
Ligature2: "'abvs' Above Base Substitutions lookup 6 subtable" tm_na tm_iikaar
EndChar

StartChar: tm_nnn_iikaar
Encoding: 65574 -1 151
Width: 1908
GlyphClass: 2
Flags: W
LayerCount: 2
Fore
SplineSet
2012 1204 m 2,0,1
 2012 1158 2012 1158 1964 1112 c 128,-1,2
 1916 1066 1916 1066 1852 1066 c 2,3,-1
 1762 1066 l 2,4,5
 1678 1066 1678 1066 1628 1124 c 0,6,7
 1582 1176 1582 1176 1586 1252 c 2,8,-1
 1588 1296 l 2,9,10
 1588 1312 1588 1312 1602 1340 c 1,11,12
 1548 1340 1548 1340 1495 1288 c 128,-1,13
 1442 1236 1442 1236 1442 1180 c 2,14,-1
 1442 1132 l 2,15,16
 1442 1050 1442 1050 1512 954 c 1,17,-1
 1808 954 l 1,18,-1
 1808 840 l 1,19,-1
 1536 840 l 1,20,-1
 1536 0 l 1,21,-1
 1376 0 l 1,22,-1
 1376 840 l 1,23,-1
 1192 840 l 2,24,25
 1112 840 1112 840 1058 792 c 1,26,27
 1172 684 1172 684 1172 542 c 2,28,-1
 1172 226 l 2,29,30
 1172 124 1172 124 1099 65 c 128,-1,31
 1026 6 1026 6 920 6 c 0,32,33
 824 6 824 6 748 61 c 128,-1,34
 672 116 672 116 672 226 c 2,35,-1
 672 542 l 2,36,37
 672 662 672 662 808 792 c 1,38,39
 738 840 738 840 626 840 c 2,40,-1
 442 840 l 2,41,42
 338 840 338 840 265 755 c 128,-1,43
 192 670 192 670 192 566 c 1,44,45
 254 628 254 628 340 628 c 0,46,47
 420 628 420 628 478 569 c 128,-1,48
 536 510 536 510 536 430 c 2,49,-1
 536 226 l 2,50,51
 536 124 536 124 463 65 c 128,-1,52
 390 6 390 6 284 6 c 256,53,54
 178 6 178 6 110 62 c 0,55,56
 36 122 36 122 36 226 c 2,57,-1
 36 520 l 2,58,59
 36 684 36 684 158 819 c 128,-1,60
 280 954 280 954 442 954 c 2,61,-1
 672 954 l 2,62,63
 722 954 722 954 811 926 c 128,-1,64
 900 898 900 898 922 882 c 1,65,66
 1048 954 1048 954 1078 954 c 2,67,-1
 1352 954 l 1,68,-1
 1308 1042 l 1,69,-1
 1292 1092 l 1,70,-1
 1286 1132 l 1,71,-1
 1286 1204 l 2,72,73
 1286 1316 1286 1316 1392 1388 c 0,74,75
 1486 1454 1486 1454 1602 1454 c 2,76,-1
 1726 1454 l 2,77,78
 1834 1454 1834 1454 1912 1416 c 0,79,80
 2012 1366 2012 1366 2012 1270 c 2,81,-1
 2012 1204 l 2,0,1
1852 1250 m 2,82,-1
 1852 1292 l 2,83,84
 1852 1358 1852 1358 1784 1358 c 0,85,86
 1714 1358 1714 1358 1714 1292 c 2,87,-1
 1714 1250 l 2,88,89
 1714 1180 1714 1180 1784 1180 c 0,90,91
 1852 1180 1852 1180 1852 1250 c 2,82,-1
1012 204 m 2,92,-1
 1012 566 l 2,93,94
 1012 656 1012 656 922 656 c 0,95,96
 894 656 894 656 861 625 c 128,-1,97
 828 594 828 594 828 566 c 2,98,-1
 828 204 l 2,99,100
 828 116 828 116 922 116 c 0,101,102
 958 116 958 116 985 140 c 128,-1,103
 1012 164 1012 164 1012 204 c 2,92,-1
376 204 m 2,104,-1
 376 382 l 1,105,106
 328 476 328 476 286 476 c 0,107,108
 250 476 250 476 221 447 c 128,-1,109
 192 418 192 418 192 382 c 2,110,-1
 192 204 l 2,111,112
 192 116 192 116 284 116 c 256,113,114
 376 116 376 116 376 204 c 2,104,-1
EndSplineSet
Ligature2: "'abvs' Above Base Substitutions lookup 6 subtable" tm_nnna tm_iikaar
EndChar

StartChar: tm_p_iikaar
Encoding: 65575 -1 152
Width: 1072
GlyphClass: 2
Flags: W
LayerCount: 2
Fore
SplineSet
1140 1270 m 0,0,1
 1140 1170 1140 1170 1078 1118 c 128,-1,2
 1016 1066 1016 1066 914 1066 c 0,3,4
 734 1066 734 1066 734 1250 c 1,5,6
 710 1238 710 1238 684 1194 c 1,7,8
 668 1150 668 1150 664 1114 c 1,9,-1
 664 976 l 2,10,11
 664 770 664 770 778 770 c 1,12,-1
 778 954 l 1,13,-1
 938 954 l 1,14,-1
 938 0 l 1,15,-1
 28 0 l 1,16,-1
 28 954 l 1,17,-1
 188 954 l 1,18,-1
 188 114 l 1,19,-1
 778 114 l 1,20,-1
 778 656 l 1,21,22
 660 656 660 656 580 760 c 0,23,24
 504 854 504 854 504 976 c 2,25,-1
 504 1156 l 2,26,27
 504 1296 504 1296 630 1390 c 0,28,29
 744 1476 744 1476 890 1476 c 0,30,31
 1140 1476 1140 1476 1140 1270 c 0,0,1
1004 1270 m 0,32,33
 1004 1304 1004 1304 981 1329 c 128,-1,34
 958 1354 958 1354 924 1354 c 0,35,36
 848 1354 848 1354 848 1270 c 0,37,38
 848 1182 848 1182 924 1182 c 0,39,40
 1004 1182 1004 1182 1004 1270 c 0,32,33
EndSplineSet
Ligature2: "'abvs' Above Base Substitutions lookup 6 subtable" tm_pa tm_iikaar
EndChar

StartChar: tm_m_iikaar
Encoding: 65576 -1 153
Width: 1290
GlyphClass: 2
Flags: W
LayerCount: 2
Fore
SplineSet
1372 1204 m 2,0,1
 1372 1150 1372 1150 1318 1108 c 128,-1,2
 1264 1066 1264 1066 1210 1066 c 2,3,-1
 1122 1066 l 2,4,5
 1042 1066 1042 1066 991 1120 c 128,-1,6
 940 1174 940 1174 944 1254 c 2,7,-1
 946 1300 l 1,8,-1
 960 1340 l 1,9,10
 904 1340 904 1340 854 1288 c 128,-1,11
 804 1236 804 1236 804 1180 c 2,12,-1
 804 1132 l 2,13,14
 804 1042 804 1042 872 950 c 1,15,16
 1144 950 1144 950 1144 632 c 2,17,-1
 1144 180 l 2,18,19
 1144 104 1144 104 1101 52 c 128,-1,20
 1058 0 1058 0 984 0 c 2,21,-1
 32 0 l 1,22,-1
 32 954 l 1,23,-1
 188 954 l 1,24,-1
 188 114 l 1,25,-1
 574 114 l 1,26,-1
 574 770 l 2,27,28
 574 874 574 874 718 934 c 1,29,30
 700 962 700 962 670 1030 c 1,31,-1
 644 1132 l 1,32,-1
 644 1204 l 2,33,34
 644 1316 644 1316 750 1388 c 0,35,36
 844 1454 844 1454 960 1454 c 2,37,-1
 1086 1454 l 2,38,39
 1194 1454 1194 1454 1272 1416 c 0,40,41
 1372 1366 1372 1366 1372 1270 c 2,42,-1
 1372 1204 l 2,0,1
1210 1250 m 2,43,-1
 1210 1292 l 2,44,45
 1210 1358 1210 1358 1144 1358 c 0,46,47
 1074 1358 1074 1358 1074 1292 c 2,48,-1
 1074 1250 l 2,49,50
 1074 1180 1074 1180 1142 1180 c 256,51,52
 1210 1180 1210 1180 1210 1250 c 2,43,-1
984 226 m 2,53,-1
 984 632 l 2,54,55
 984 840 984 840 848 840 c 0,56,57
 806 840 806 840 760 798 c 1,58,59
 734 766 734 766 734 726 c 2,60,-1
 734 114 l 1,61,-1
 918 114 l 2,62,63
 984 114 984 114 984 226 c 2,53,-1
EndSplineSet
Ligature2: "'abvs' Above Base Substitutions lookup 6 subtable" tm_ma tm_iikaar
EndChar

StartChar: tm_y_iikaar
Encoding: 65577 -1 154
Width: 1344
GlyphClass: 2
Flags: W
LayerCount: 2
Fore
SplineSet
1418 1270 m 0,0,1
 1418 1174 1418 1174 1354 1120 c 128,-1,2
 1290 1066 1290 1066 1188 1066 c 0,3,4
 1008 1066 1008 1066 1008 1250 c 1,5,6
 938 1216 938 1216 938 1114 c 2,7,-1
 938 976 l 2,8,9
 938 770 938 770 1054 770 c 1,10,-1
 1054 954 l 1,11,-1
 1210 954 l 1,12,-1
 1210 0 l 1,13,-1
 438 0 l 1,14,-1
 438 132 l 1,15,16
 394 74 394 74 318 37 c 128,-1,17
 242 0 242 0 168 0 c 256,18,19
 94 0 94 0 66 20 c 0,20,21
 32 44 32 44 32 114 c 2,22,-1
 32 954 l 1,23,-1
 188 954 l 1,24,-1
 188 156 l 1,25,26
 200 106 200 106 270 106 c 0,27,28
 334 106 334 106 383 156 c 128,-1,29
 432 206 432 206 438 270 c 1,30,-1
 438 954 l 1,31,-1
 598 954 l 1,32,-1
 598 114 l 1,33,-1
 1054 114 l 1,34,-1
 1054 656 l 1,35,36
 938 656 938 656 858 760 c 0,37,38
 782 858 782 858 782 976 c 2,39,-1
 782 1156 l 2,40,41
 782 1296 782 1296 908 1390 c 0,42,43
 1022 1476 1022 1476 1168 1476 c 0,44,45
 1418 1476 1418 1476 1418 1270 c 0,0,1
1276 1268 m 0,46,47
 1276 1308 1276 1308 1252 1336 c 128,-1,48
 1228 1364 1228 1364 1188 1364 c 0,49,50
 1120 1364 1120 1364 1120 1268 c 0,51,52
 1120 1180 1120 1180 1188 1180 c 0,53,54
 1276 1180 1276 1180 1276 1268 c 0,46,47
EndSplineSet
Ligature2: "'abvs' Above Base Substitutions lookup 6 subtable" tm_ya tm_iikaar
EndChar

StartChar: tm_r_iikaar
Encoding: 65578 -1 155
Width: 1036
GlyphClass: 2
Flags: W
LayerCount: 2
Fore
SplineSet
1074 1204 m 2,0,1
 1074 1158 1074 1158 1026 1112 c 128,-1,2
 978 1066 978 1066 914 1066 c 2,3,-1
 824 1066 l 2,4,5
 748 1066 748 1066 696 1123 c 128,-1,6
 644 1180 644 1180 648 1254 c 2,7,-1
 650 1300 l 1,8,-1
 664 1340 l 1,9,10
 610 1340 610 1340 557 1288 c 128,-1,11
 504 1236 504 1236 504 1180 c 2,12,-1
 504 1132 l 2,13,14
 504 1044 504 1044 560 954 c 1,15,-1
 868 954 l 1,16,-1
 868 840 l 1,17,-1
 594 840 l 1,18,-1
 594 0 l 1,19,-1
 344 -274 l 1,20,-1
 254 -184 l 1,21,-1
 438 20 l 1,22,-1
 438 840 l 1,23,-1
 188 840 l 1,24,-1
 188 0 l 1,25,-1
 28 0 l 1,26,-1
 28 954 l 1,27,-1
 406 954 l 1,28,-1
 370 1042 l 1,29,-1
 354 1092 l 1,30,-1
 348 1132 l 1,31,-1
 348 1204 l 2,32,33
 348 1316 348 1316 454 1388 c 0,34,35
 548 1454 548 1454 664 1454 c 2,36,-1
 790 1454 l 2,37,38
 898 1454 898 1454 974 1416 c 0,39,40
 1074 1366 1074 1366 1074 1270 c 2,41,-1
 1074 1204 l 2,0,1
914 1250 m 2,42,-1
 914 1292 l 2,43,44
 914 1358 914 1358 848 1358 c 0,45,46
 778 1358 778 1358 778 1292 c 2,47,-1
 778 1250 l 2,48,49
 778 1180 778 1180 846 1180 c 256,50,51
 914 1180 914 1180 914 1250 c 2,42,-1
EndSplineSet
Ligature2: "'abvs' Above Base Substitutions lookup 5 subtable" tm_ra tm_iikaar
EndChar

StartChar: tm_rr_iikaar
Encoding: 65579 -1 156
Width: 1250
GlyphClass: 2
Flags: W
LayerCount: 2
Fore
SplineSet
1324 1204 m 2,0,1
 1324 1158 1324 1158 1276 1112 c 128,-1,2
 1228 1066 1228 1066 1164 1066 c 2,3,-1
 1074 1066 l 2,4,5
 998 1066 998 1066 946 1123 c 128,-1,6
 894 1180 894 1180 898 1254 c 2,7,-1
 900 1300 l 1,8,-1
 914 1340 l 1,9,10
 860 1340 860 1340 807 1288 c 128,-1,11
 754 1236 754 1236 754 1180 c 2,12,-1
 754 1132 l 2,13,14
 754 1046 754 1046 824 950 c 1,15,16
 942 932 942 932 1010 840 c 0,17,18
 1074 756 1074 756 1074 632 c 2,19,-1
 1074 156 l 2,20,21
 1074 -250 1074 -250 640 -250 c 2,22,-1
 234 -250 l 2,23,24
 190 -250 190 -250 156 -275 c 128,-1,25
 122 -300 122 -300 122 -344 c 2,26,-1
 122 -524 l 1,27,-1
 -40 -524 l 1,28,-1
 -40 -344 l 2,29,30
 -40 -240 -40 -240 48 -184 c 0,31,32
 124 -136 124 -136 234 -136 c 2,33,-1
 664 -136 l 2,34,35
 914 -136 914 -136 914 204 c 2,36,-1
 914 632 l 2,37,38
 914 698 914 698 870 764 c 0,39,40
 820 840 820 840 754 840 c 0,41,42
 700 840 700 840 642 780 c 1,43,44
 598 718 598 718 598 632 c 2,45,-1
 598 0 l 1,46,-1
 438 0 l 1,47,-1
 438 680 l 2,48,49
 438 730 438 730 404 785 c 128,-1,50
 370 840 370 840 324 840 c 0,51,52
 280 840 280 840 234 793 c 128,-1,53
 188 746 188 746 188 704 c 2,54,-1
 188 0 l 1,55,-1
 28 0 l 1,56,-1
 28 704 l 2,57,58
 28 784 28 784 80 848 c 0,59,60
 130 906 130 906 208 934 c 0,61,62
 264 954 264 954 300 954 c 0,63,64
 404 954 404 954 486 882 c 0,65,66
 538 838 538 838 550 792 c 1,67,68
 560 824 560 824 576 846 c 0,69,70
 604 894 604 894 680 934 c 1,71,72
 658 948 658 948 622 1024 c 1,73,74
 598 1090 598 1090 598 1132 c 2,75,-1
 598 1204 l 2,76,77
 598 1316 598 1316 704 1388 c 0,78,79
 798 1454 798 1454 914 1454 c 2,80,-1
 1040 1454 l 2,81,82
 1148 1454 1148 1454 1224 1416 c 0,83,84
 1324 1366 1324 1366 1324 1270 c 2,85,-1
 1324 1204 l 2,0,1
1164 1250 m 2,86,-1
 1164 1292 l 2,87,88
 1164 1358 1164 1358 1098 1358 c 0,89,90
 1028 1358 1028 1358 1028 1292 c 2,91,-1
 1028 1250 l 2,92,93
 1028 1180 1028 1180 1096 1180 c 256,94,95
 1164 1180 1164 1180 1164 1250 c 2,86,-1
EndSplineSet
Ligature2: "'abvs' Above Base Substitutions lookup 6 subtable" tm_rra tm_iikaar
EndChar

